<svg width="120" height="24" viewBox="0 0 120 24" fill="none" xmlns="http://www.w3.org/2000/svg">
<path d="M99.4104 1V2.72336H109.478C112.29 2.90476 118.131 5.00907 118.277 11.9751C118.422 18.941 112.744 21.1361 109.841 21.6803H101.134V11.9751H99.4104V23.3129H109.841C113.197 23.3129 120 19.9569 120 11.9751C120 3.9932 113.107 1 109.841 1H99.4104Z" fill="black"/>
<path d="M0 1.0907V2.63265H10.1587C11.7007 2.63265 15.3288 4.5698 15.3288 8.70975C15.3288 12.7007 11.836 14.1822 9.97732 14.3333L0 14.5147V23.2222H1.72336V16.1474L9.97732 15.966L14.966 23.2222H17.2336L11.7007 15.4218C15.3288 15.059 16.8707 10.8874 16.8707 8.70975C16.8707 3.53968 12.517 1.0907 10.1587 1.0907H0Z" fill="black"/>
<rect x="22.4943" y="1.0907" width="14.5125" height="1.63265" fill="black"/>
<path d="M58.7755 1.0907H41.5419V2.72335H56.3265L41.5419 21.6803V23.2222H58.7755V21.6803H43.7188L58.7755 2.45124V1.0907Z" fill="black"/>
<path d="M83.8095 12.1564C83.8095 17.9673 79.0176 22.678 73.1066 22.678C67.1955 22.678 62.4036 17.9673 62.4036 12.1564C62.4036 6.34554 67.1955 1.63489 73.1066 1.63489C79.0176 1.63489 83.8095 6.34554 83.8095 12.1564Z" stroke="black" stroke-width="1.6"/>
<rect x="22.4943" y="11.2494" width="14.5125" height="1.63265" fill="black"/>
<rect x="22.4943" y="21.5896" width="14.5125" height="1.63265" fill="black"/>
<rect x="89.9773" y="1.0907" width="1.81406" height="22.1315" fill="black"/>
</svg>
