<svg width="75" height="96" viewBox="0 0 75 96" fill="none" xmlns="http://www.w3.org/2000/svg">
<path d="M32.4668 89.059C25.887 93.5422 10.9032 99.8188 3.60566 89.059C-5.51624 75.6093 11.4431 39.9849 21.6999 26.8062C32.4667 12.9722 56.3931 -6.818 70.1507 7.40024C83.9084 21.6185 57.1408 70.998 46.9721 76.57M46.9721 76.57V65.6181M46.9721 76.57H55.3463" stroke="#EE5E00" stroke-width="1.5"/>
<path d="M5.47067 41.4095C2.07301 32.8937 -2.57025 13.5772 6.03807 4.43753C16.7985 -6.98711 44.3617 15.5892 54.6575 28.824C65.4441 42.6896 81.1335 72.4752 69.6773 89.8234C58.2212 107.172 19.1945 73.368 15.0108 60.2335M15.0108 60.2335L23.6268 60.4459M15.0108 60.2335L14.8462 70.9611" stroke="#EE5E00" stroke-width="1.5"/>
<path d="M17 48.668C23.0292 35.814 39.8701 17.8185 59 48.668M22.5182 48.668C27.1679 40.3545 39.8701 28.7156 53.4818 48.668C48.4234 56.8536 35.1489 68.3135 22.5182 48.668Z" stroke="#EE5E00" stroke-width="1.5"/>
<path d="M42.25 48.7431C42.25 50.5289 41.7296 52.1145 40.9261 53.2346C40.1217 54.3561 39.0771 54.9633 38 54.9633C36.9229 54.9633 35.8783 54.3561 35.0739 53.2346C34.2704 52.1145 33.75 50.5289 33.75 48.7431C33.75 46.9573 34.2704 45.3717 35.0739 44.2516C35.8783 43.1302 36.9229 42.5229 38 42.5229C39.0771 42.5229 40.1217 43.1302 40.9261 44.2516C41.7296 45.3717 42.25 46.9573 42.25 48.7431Z" stroke="#EE5E00" stroke-width="1.5"/>
</svg>
