<svg width="79" height="97" viewBox="0 0 79 97" fill="none" xmlns="http://www.w3.org/2000/svg">
<path d="M2 96L25.8636 72.2991L27.4679 73.906M37.4947 96L43.3102 89.7735L40.3021 86.7607M27.4679 73.906L30.877 70.2906V60.2479L34.0856 57.0342M27.4679 73.906L40.3021 86.7607M39.0989 63.8633C40.1016 67.0769 42.508 70.6923 38.6979 74.7094M39.0989 63.8633C38.8948 63.209 38.7572 62.7212 38.6979 62.322M39.0989 63.8633L51.131 75.9145M40.3021 86.7607L51.131 75.9145M38.6979 62.322C38.4659 60.7603 39.4327 60.5534 42.3075 57.0342C45.1952 53.4991 43.5107 50.0712 42.3075 48.7991L38.1965 52.9167M38.6979 62.322L46.7193 53.8205L59.9545 67.0769L56.746 70.2906M51.131 75.9145L56.746 70.2906M51.131 75.9145L67.5749 91.782L72.3877 85.9573L56.746 70.2906M34.0856 57.0342L29.6738 52.643M34.0856 57.0342L38.1965 52.9167M11.0241 24.6966L6.6123 20.2778L2 25.0983L6.6123 29.6891M11.0241 24.6966L6.6123 29.6891M11.0241 24.6966L27.4679 8.42736C28.5374 7.62394 31.3583 6.70001 34.0856 9.43163C35.1136 10.4613 37.4658 12.7955 40.3021 15.6051M6.6123 29.6891L29.6738 52.643M40.3021 15.6051L52.7353 2L77 26.1026L59.9545 43.1752C57.2065 44.345 55.6598 44.0832 54.8577 43.1752M40.3021 15.6051C44.5721 19.8349 49.9393 25.1423 53.5374 28.6982M29.6738 52.643L34.0856 48.2162M53.5374 28.6982C53.8895 29.0462 54.2246 29.3773 54.5401 29.6891C55.9439 30.9708 57.9091 34.4179 54.5401 37.953C54.0433 39.599 53.7868 41.963 54.8577 43.1752M53.5374 28.6982L47.3166 34.9402M34.0856 48.2162L38.1965 52.9167M34.0856 48.2162L47.3166 34.9402M47.3166 34.9402L54.8577 43.1752" stroke="#EE5E00" stroke-width="1.5"/>
</svg>
