<svg width="32" height="27" viewBox="0 0 32 27" fill="none" xmlns="http://www.w3.org/2000/svg">
<path d="M28.6931 13.2518H29.3537C29.3537 13.2518 30.878 13.2518 30.878 11.9573C30.878 10.6629 29.3537 10.6629 29.3537 10.6629L20.3598 10.8208M28.6931 13.2518H3.38821M28.6931 13.2518C28.8551 15.9938 27.9823 21.1575 23.6626 22.589M21.4776 22.9605L11.2134 23.2095M21.4776 22.9605C21.5285 23.9729 21.8232 25.9976 22.5955 25.9976C23.3679 25.9976 23.6287 23.7252 23.6626 22.589M21.4776 22.9605C22.289 22.9345 23.0146 22.8038 23.6626 22.589M11.2134 23.2095C10.5521 23.1892 9.73296 23.0484 8.87602 22.7342M11.2134 23.2095C11.0271 24.172 10.4919 26.0772 9.84146 25.9976C9.19106 25.9179 8.92683 23.7888 8.87602 22.7342M3.38821 13.2518H2.21951C2.21951 13.2518 1 13.2518 1 12.1814C1 11.111 2.21951 11.111 2.21951 11.111L3.38821 11.0806M3.38821 13.2518C3.20383 19.1234 6.22144 21.7607 8.87602 22.7342M3.38821 11.0806C3.15108 8.75068 3.97764 4.33976 9.18089 5.33553C9.01152 3.94145 9.40447 1.12343 12.3313 1.00394C15.9898 0.854578 16.0915 4.98699 15.6341 7.02831C16.9383 6.86806 19.7093 7.40222 20.3598 10.8208M3.38821 11.0806L8.0122 11.0098M20.3598 10.8208H13.3476M8.0122 11.0098C7.87669 10.2303 8.0122 8.02406 10.4004 8.02406C11.8232 8.02406 13.3069 8.45026 13.3476 10.8208M8.0122 11.0098L13.3476 10.8208" stroke="black" stroke-width="0.8" stroke-linecap="round" stroke-linejoin="round"/>
</svg>
