<svg width="41" height="27" viewBox="0 0 41 27" fill="none" xmlns="http://www.w3.org/2000/svg">
<path d="M6.39216 7.86275C4.03922 8.2549 1 11.2941 1 13.2549V18.6471M6.39216 7.86275V4.43137C6.55556 3.28758 7.66667 1 10.8039 1C13.9412 1 17.0131 1 18.1569 1C18.9421 1 19.7255 1.88235 20.1176 3.45098M6.39216 7.86275H20.1176M20.1176 3.45098C20.281 2.63399 20.1176 1 22.0784 1C24.0392 1 28.2876 1 29.9216 1C30.7386 1 34.3333 1.4902 34.3333 4.43137V7.86275M20.1176 3.45098V7.86275M34.3333 7.86275C35.8039 8.35294 38.7451 9.82353 39.7255 13.2549V18.6471M34.3333 7.86275H20.1176M1 18.6471V25.5098C1 25.5098 1.4902 26 3.94118 26C6.39216 26 6.39216 25.5098 6.39216 25.5098V23.0588H33.8431V25.5098C33.8431 25.5098 33.8431 26 36.7843 26C39.7255 26 39.7255 25.5098 39.7255 25.5098V18.6471M1 18.6471H23.0588M29.9216 18.6471H39.7255" stroke="black" stroke-width="0.8" stroke-linecap="round"/>
</svg>
