<svg width="46" height="46" viewBox="0 0 46 46" fill="none" xmlns="http://www.w3.org/2000/svg">
<circle cx="23" cy="23" r="23" fill="#292C2F"/>
<path d="M18.9965 26.002C14.0444 21.0491 14.2814 17.3035 16.5469 15.6048L17.0488 15.2309C17.1769 15.1367 17.3225 15.0692 17.4772 15.0323C17.6319 14.9955 17.7924 14.9901 17.9491 15.0164C18.1059 15.0428 18.2558 15.1004 18.39 15.1858C18.5241 15.2711 18.6397 15.3826 18.7299 15.5135L19.9939 17.3323C20.1631 17.5757 20.2362 17.8731 20.1992 18.1672C20.1623 18.4613 20.0179 18.7313 19.7938 18.9254L18.577 19.9772C18.2728 20.2406 18.1239 20.6401 18.2608 21.0187C18.5137 21.7232 19.1278 22.9664 20.5799 24.4178C22.0321 25.8699 23.2745 26.4839 23.9789 26.7377C24.3584 26.8738 24.7578 26.7257 25.0212 26.4207L26.0731 25.2055C26.2671 24.9814 26.5372 24.837 26.8313 24.8C27.1253 24.7631 27.4227 24.8362 27.6661 25.0053L29.4881 26.2702C29.6189 26.3601 29.7303 26.4754 29.8157 26.6092C29.901 26.743 29.9586 26.8926 29.9851 27.0491C30.0115 27.2056 30.0062 27.3658 29.9695 27.5203C29.9329 27.6747 29.8655 27.8202 29.7715 27.9481L29.3953 28.4548C27.6974 30.7187 23.9501 30.9548 18.9965 26.002Z" fill="white"/>
</svg>
