<svg width="30" height="30" viewBox="0 0 30 30" fill="none" xmlns="http://www.w3.org/2000/svg">
<g id="chart-up">
<path id="Vector" d="M20.9375 13.125C20.9375 11.9169 21.9169 10.9375 23.125 10.9375H24.375C25.5831 10.9375 26.5625 11.9169 26.5625 13.125V25.625C26.5625 26.8331 25.5831 27.8125 24.375 27.8125H23.125C21.9169 27.8125 20.9375 26.8331 20.9375 25.625V13.125Z" fill="white"/>
<path id="Vector_2" d="M12.1875 17.5C12.1875 16.2919 13.1669 15.3125 14.375 15.3125H15.625C16.8331 15.3125 17.8125 16.2919 17.8125 17.5V25.625C17.8125 26.8331 16.8331 27.8125 15.625 27.8125H14.375C13.1669 27.8125 12.1875 26.8331 12.1875 25.625V17.5Z" fill="white"/>
<path id="Vector_3" d="M3.4375 20.625C3.4375 19.4169 4.41688 18.4375 5.625 18.4375H6.875C8.08313 18.4375 9.0625 19.4169 9.0625 20.625V25.625C9.0625 26.8331 8.08313 27.8125 6.875 27.8125H5.625C4.41688 27.8125 3.4375 26.8331 3.4375 25.625V20.625Z" fill="white"/>
<path id="Vector_4" d="M19.0629 3.4375C19.0629 2.74715 19.6225 2.1875 20.3129 2.1875H24.0629C24.7533 2.1875 25.3129 2.74715 25.3129 3.4375V7.1875C25.3129 7.87785 24.7533 8.4375 24.0629 8.4375C23.3725 8.4375 22.8129 7.87785 22.8129 7.1875V6.48446C22.127 7.11296 21.2087 7.88694 20.034 8.74411C17.043 10.9268 12.3971 13.6438 5.70812 15.8734C5.0532 16.0916 4.3453 15.7378 4.12699 15.0828C3.90867 14.4279 4.26262 13.72 4.91755 13.5016C11.3536 11.3563 15.7702 8.7607 18.5604 6.72464C19.6277 5.94578 20.4581 5.24801 21.0732 4.6875H20.3129C19.6225 4.6875 19.0629 4.12785 19.0629 3.4375Z" fill="white"/>
</g>
</svg>
