<svg width="30" height="30" viewBox="0 0 30 30" fill="none" xmlns="http://www.w3.org/2000/svg">
<g id="checkmark-badge-02">
<path id="Vector" fill-rule="evenodd" clip-rule="evenodd" d="M16.9607 3.00701C16.1495 2.331 14.9711 2.331 14.16 3.00701L11.4709 5.24786H7.43536C6.22725 5.24786 5.24786 6.22723 5.24786 7.43536V11.4709L3.00701 14.16C2.331 14.9711 2.331 16.1495 3.00701 16.9607L5.24786 19.6497L5.24787 23.6854C5.24787 24.8935 6.22725 25.8729 7.43537 25.8729H11.4709L14.16 28.1137C14.9711 28.7897 16.1495 28.7897 16.9607 28.1137L19.6497 25.8729H23.6854C24.8935 25.8729 25.8729 24.8935 25.8729 23.6854V19.6497L28.1137 16.9607C28.7897 16.1495 28.7897 14.9711 28.1137 14.16L25.8729 11.4709V7.43536C25.8729 6.22723 24.8935 5.24786 23.6854 5.24786H19.6497L16.9607 3.00701ZM19.8879 13.544C20.5001 13.2251 20.738 12.4702 20.4191 11.8579C20.1002 11.2456 19.3452 11.0078 18.733 11.3267C16.9481 12.2563 15.4917 14.036 14.5295 15.4394C14.4462 15.5609 14.3657 15.6809 14.2882 15.7986C14.1134 16.0644 13.9536 16.3194 13.81 16.5567C13.7027 16.466 13.5985 16.3822 13.4995 16.3056C13.4677 16.2812 13.4366 16.2575 13.4061 16.2345C13.137 16.0319 12.8949 15.8721 12.7181 15.7619C12.6294 15.7065 12.5561 15.663 12.503 15.6321C12.4764 15.6167 12.4547 15.6044 12.4385 15.5954L12.4185 15.5842L12.4117 15.5805L12.4091 15.5791L12.4071 15.578C11.8004 15.2485 11.0415 15.4731 10.712 16.0797C10.3826 16.6862 10.6075 17.4452 11.2138 17.7749L11.2164 17.7762L11.2497 17.7954C11.2815 17.8137 11.3313 17.8432 11.3949 17.8829C11.5228 17.9627 11.7027 18.0814 11.9023 18.2316C12.3193 18.5456 12.7441 18.9397 13.0019 19.3501C13.244 19.7357 13.6766 19.9591 14.1312 19.9334C14.5856 19.9076 14.9902 19.6365 15.1874 19.2262L15.1905 19.2197L15.2064 19.1876C15.2211 19.1579 15.2441 19.112 15.275 19.0519C15.3367 18.9315 15.4299 18.7545 15.5515 18.5357C15.7952 18.0971 16.1499 17.4971 16.5914 16.8531C17.5041 15.5221 18.6727 14.1769 19.8879 13.544Z" fill="white"/>
</g>
</svg>
