<svg width="107" height="34" viewBox="0 0 107 34" fill="none" xmlns="http://www.w3.org/2000/svg">
<path d="M7 17C7 13.088 10.134 9.91665 14 9.91665C17.866 9.91665 21 13.088 21 17L28 17C28 9.17595 21.732 2.83331 14 2.83331C6.26802 2.83331 6.75952e-07 9.17594 0 17C-6.75952e-07 24.824 6.26801 31.1666 14 31.1666L14 24.0833C10.134 24.0833 7 20.912 7 17Z" fill="#7839EE"/>
<path opacity="0.5" d="M14 17H21V24.0833H14V17Z" fill="#7839EE"/>
<path d="M26.127 24.0835H21V29.2716C23.1254 28.0275 24.8976 26.2342 26.127 24.0835Z" fill="#7839EE"/>
<path d="M60.6469 12.4128C60.1179 12.4128 59.683 12.26 59.3421 11.9544C59.013 11.637 58.8484 11.2491 58.8484 10.7907C58.8484 10.3205 59.013 9.93258 59.3421 9.62695C59.683 9.30957 60.1179 9.15088 60.6469 9.15088C61.1641 9.15088 61.5873 9.30957 61.9164 9.62695C62.2573 9.93258 62.4277 10.3205 62.4277 10.7907C62.4277 11.2491 62.2573 11.637 61.9164 11.9544C61.5873 12.26 61.1641 12.4128 60.6469 12.4128Z" fill="#3E3E3E"/>
<path d="M62.1456 13.4355V23.2743H59.1305V13.4355H62.1456Z" fill="#3E3E3E"/>
<path fill-rule="evenodd" clip-rule="evenodd" d="M39.2068 23.36C38.3261 23.2684 37.5033 23.0107 36.7382 22.5867C35.7743 22.0459 35.0044 21.2936 34.4284 20.3297C33.8641 19.3541 33.582 18.2609 33.582 17.0501C33.582 15.8394 33.8641 14.7521 34.4284 13.7882C35.0044 12.8243 35.7743 12.072 36.7382 11.5312C37.7139 10.9905 38.7836 10.7202 39.9473 10.7202C41.111 10.7202 42.1748 10.9905 43.1387 11.5312C44.1144 12.072 44.8784 12.8243 45.4309 13.7882C45.9952 14.7521 46.2773 15.8394 46.2773 17.0501C46.2773 18.2609 45.9952 19.3541 45.4309 20.3297C44.8667 21.2936 44.1026 22.0459 43.1387 22.5867C42.5514 22.9162 41.9269 23.1453 41.2654 23.274C41.3099 23.5817 41.4056 23.8319 41.5523 24.0246C41.763 24.3142 42.0461 24.5117 42.4015 24.617C42.757 24.7355 43.1585 24.7948 43.6062 24.7948C44.1723 24.7948 44.6462 24.7355 45.028 24.617C45.423 24.4985 45.7455 24.334 45.9957 24.1233L46.5091 26.4734C46.1668 26.7367 45.7258 26.9341 45.186 27.0658C44.6462 27.2106 44.113 27.283 43.5864 27.283C42.7175 27.283 41.9539 27.1382 41.2956 26.8486C40.6373 26.5589 40.1239 26.1376 39.7553 25.5847C39.3866 25.0317 39.2023 24.3471 39.2023 23.5309C39.2023 23.4745 39.2038 23.4175 39.2068 23.36ZM42.31 19.6597C41.7223 20.318 40.9347 20.6471 39.9473 20.6471C38.9481 20.6471 38.1488 20.3239 37.5493 19.6773C36.9616 19.0191 36.6677 18.1433 36.6677 17.0501C36.6677 15.9452 36.9616 15.0694 37.5493 14.4229C38.1488 13.7764 38.9481 13.4532 39.9473 13.4532C40.9347 13.4532 41.7223 13.7823 42.31 14.4406C42.9095 15.0871 43.2093 15.9569 43.2093 17.0501C43.2093 18.1316 42.9095 19.0014 42.31 19.6597Z" fill="#3E3E3E"/>
<path d="M57.3174 23.2743V13.4355H54.3023V18.7781C54.3023 19.4364 54.1318 19.9477 53.791 20.3121C53.4501 20.6765 52.9858 20.8587 52.398 20.8587C51.822 20.8587 51.3636 20.6765 51.0227 20.3121C50.6818 19.9477 50.5114 19.4364 50.5114 18.7781V13.4355H47.5139V19.1836C47.5139 20.0417 47.6726 20.7882 47.9899 21.4229C48.3073 22.0577 48.754 22.5455 49.33 22.8864C49.906 23.2156 50.5701 23.3801 51.3224 23.3801C51.9572 23.3801 52.5332 23.2508 53.0504 22.9922C53.5794 22.7219 53.9967 22.3692 54.3023 21.9343V23.2743H57.3174Z" fill="#3E3E3E"/>
<path d="M67.91 20.5413L69.7967 23.2743H73.1821L69.7967 18.3902L73.0939 13.4355H69.8319L68.245 16.1509L66.3584 13.4355H62.973L66.3055 18.2491L63.0611 23.2743H66.3231L67.91 20.5413Z" fill="#3E3E3E"/>
<path fill-rule="evenodd" clip-rule="evenodd" d="M78.4698 23.4154C77.5059 23.4154 76.636 23.2097 75.8602 22.7983C75.0962 22.3868 74.4908 21.7991 74.0441 21.035C73.6092 20.271 73.3917 19.3776 73.3917 18.3549C73.3917 17.344 73.6151 16.4565 74.0617 15.6925C74.5084 14.9166 75.1197 14.323 75.8955 13.9116C76.6713 13.5002 77.5412 13.2945 78.5051 13.2945C79.469 13.2945 80.3388 13.5002 81.1146 13.9116C81.8905 14.323 82.5017 14.9166 82.9484 15.6925C83.3951 16.4565 83.6184 17.344 83.6184 18.3549C83.6184 19.3658 83.3892 20.2592 82.9308 21.035C82.4841 21.7991 81.867 22.3868 81.0794 22.7983C80.3036 23.2097 79.4337 23.4154 78.4698 23.4154ZM78.4698 20.8058C79.0458 20.8058 79.5336 20.5942 79.9333 20.1711C80.3447 19.7479 80.5504 19.1425 80.5504 18.3549C80.5504 17.5674 80.3506 16.962 79.9509 16.5388C79.563 16.1156 79.0811 15.904 78.5051 15.904C77.9173 15.904 77.4295 16.1156 77.0416 16.5388C76.6537 16.9502 76.4597 17.5556 76.4597 18.3549C76.4597 19.1425 76.6478 19.7479 77.024 20.1711C77.4119 20.5942 77.8938 20.8058 78.4698 20.8058Z" fill="#3E3E3E"/>
<path d="M90.349 23.2743V20.7177H89.2734C88.9443 20.7177 88.7092 20.653 88.5681 20.5237C88.4271 20.3944 88.3566 20.1828 88.3566 19.8889V15.9393H90.3314V13.4355H88.3566V11.0375H85.3414V13.4355H84.1424V15.9393H85.3414V19.8537C85.3414 21.0644 85.6471 21.9402 86.2583 22.4809C86.8696 23.0098 87.7218 23.2743 88.815 23.2743H90.349Z" fill="#3E3E3E"/>
<path d="M93.1922 12.4128C92.6632 12.4128 92.2283 12.26 91.8874 11.9544C91.5583 11.637 91.3937 11.2491 91.3937 10.7907C91.3937 10.3205 91.5583 9.93258 91.8874 9.62695C92.2283 9.30957 92.6632 9.15088 93.1922 9.15088C93.7094 9.15088 94.1326 9.30957 94.4617 9.62695C94.8026 9.93258 94.9731 10.3205 94.9731 10.7907C94.9731 11.2491 94.8026 11.637 94.4617 11.9544C94.1326 12.26 93.7094 12.4128 93.1922 12.4128Z" fill="#3E3E3E"/>
<path d="M94.6909 23.2743H91.6758V13.4355H94.6909V23.2743Z" fill="#3E3E3E"/>
<path d="M96.541 15.6748C96.1295 16.4389 95.9238 17.3323 95.9238 18.3549C95.9238 19.3776 96.1295 20.271 96.541 21.035C96.9641 21.7991 97.546 22.3868 98.2865 22.7983C99.0389 23.2097 99.897 23.4154 100.861 23.4154C102.083 23.4154 103.112 23.0863 103.947 22.428C104.781 21.7697 105.328 20.8646 105.586 19.7126H102.377C102.107 20.4649 101.584 20.8411 100.808 20.8411C100.255 20.8411 99.8147 20.6295 99.4855 20.2063C99.1564 19.7714 98.9918 19.1543 98.9918 18.3549C98.9918 17.5556 99.1564 16.9443 99.4855 16.5212C99.8147 16.0862 100.255 15.8688 100.808 15.8688C101.584 15.8688 102.107 16.2449 102.377 16.9972H105.586C105.328 15.8218 104.781 14.9108 103.947 14.2642C103.124 13.6177 102.095 13.2945 100.861 13.2945C99.897 13.2945 99.0389 13.5002 98.2865 13.9116C97.546 14.323 96.9641 14.9108 96.541 15.6748Z" fill="#3E3E3E"/>
</svg>
