<svg width="1820" height="960" viewBox="0 0 1820 960" fill="none" xmlns="http://www.w3.org/2000/svg">
<g clip-path="url(#clip0_677_1908)">
<rect width="1820" height="960" fill="#131112"/>
<g opacity="0.04">
<line opacity="0.2" x1="1870" y1="270.5" x2="-50" y2="270.5" stroke="#D4D5D2"/>
<line opacity="0.2" x1="1870" y1="540.5" x2="-50" y2="540.5" stroke="#D4D5D2"/>
<line opacity="0.2" x1="1870" y1="809.5" x2="-50" y2="809.5" stroke="#D4D5D2"/>
<line opacity="0.2" x1="233.5" y1="2.18557e-08" x2="233.5" y2="977" stroke="#D4D5D2"/>
<line opacity="0.2" x1="1043.5" y1="2.18557e-08" x2="1043.5" y2="977" stroke="#D4D5D2"/>
<line opacity="0.2" x1="503.5" y1="2.18557e-08" x2="503.5" y2="977" stroke="#D4D5D2"/>
<line opacity="0.2" x1="1313.5" y1="2.18557e-08" x2="1313.5" y2="977" stroke="#D4D5D2"/>
<line opacity="0.2" x1="773.5" y1="2.18557e-08" x2="773.5" y2="977" stroke="#D4D5D2"/>
<line opacity="0.2" x1="1583.5" y1="2.18557e-08" x2="1583.5" y2="977" stroke="#D4D5D2"/>
</g>
<g filter="url(#filter0_f_677_1908)">
<circle cx="1457.5" cy="833.5" r="217.5" fill="#00DFDF"/>
</g>
<g filter="url(#filter1_f_677_1908)">
<circle cx="1768" cy="958" r="254" fill="#FF469D"/>
</g>
<g filter="url(#filter2_f_677_1908)">
<circle cx="1835.5" cy="643.5" r="238.5" fill="#FF7847"/>
</g>
</g>
<defs>
<filter id="filter0_f_677_1908" x="640" y="16" width="1635" height="1635" filterUnits="userSpaceOnUse" color-interpolation-filters="sRGB">
<feFlood flood-opacity="0" result="BackgroundImageFix"/>
<feBlend mode="normal" in="SourceGraphic" in2="BackgroundImageFix" result="shape"/>
<feGaussianBlur stdDeviation="300" result="effect1_foregroundBlur_677_1908"/>
</filter>
<filter id="filter1_f_677_1908" x="914" y="104" width="1708" height="1708" filterUnits="userSpaceOnUse" color-interpolation-filters="sRGB">
<feFlood flood-opacity="0" result="BackgroundImageFix"/>
<feBlend mode="normal" in="SourceGraphic" in2="BackgroundImageFix" result="shape"/>
<feGaussianBlur stdDeviation="300" result="effect1_foregroundBlur_677_1908"/>
</filter>
<filter id="filter2_f_677_1908" x="997" y="-195" width="1677" height="1677" filterUnits="userSpaceOnUse" color-interpolation-filters="sRGB">
<feFlood flood-opacity="0" result="BackgroundImageFix"/>
<feBlend mode="normal" in="SourceGraphic" in2="BackgroundImageFix" result="shape"/>
<feGaussianBlur stdDeviation="300" result="effect1_foregroundBlur_677_1908"/>
</filter>
<clipPath id="clip0_677_1908">
<rect width="1820" height="960" fill="white"/>
</clipPath>
</defs>
</svg>
