<svg width="50" height="53" viewBox="0 0 50 53" fill="none" xmlns="http://www.w3.org/2000/svg">
<path d="M0 52H1.92308M48.5577 52H46.875M46.875 52V30.125M46.875 52H41.8269M46.875 30.125H48.5577V22.1923H24.5192M46.875 30.125H24.5192M24.5192 22.1923V12.0962L1.92308 2V52M24.5192 22.1923V30.125M24.5192 52H28.8462M24.5192 52V30.125M24.5192 52H13.2212M1.92308 52H13.2212M28.8462 52H41.8269M28.8462 52V46.5913M41.8269 52V46.5913M28.8462 41.1827V34.9327H41.8269V41.1827M28.8462 41.1827H41.8269M28.8462 41.1827V46.5913M41.8269 41.1827V46.5913M28.8462 46.5913H41.8269M33.6538 49.1154H36.7788M13.2212 52V46.5913M5.52885 33.4904H11.7788V26.5192H5.52885V33.4904ZM15.1442 33.4904H20.6731V26.5192H15.1442V33.4904ZM15.1442 22.1923H20.6731V15.9423H15.1442V22.1923ZM11.7788 22.1923H5.52885V15.9423H11.7788V22.1923Z" stroke="#EE5E00" stroke-width="1.5"/>
<path d="M0 52H1.92308M48.5577 52H46.875M46.875 52V30.125M46.875 52H41.8269M46.875 30.125H48.5577V22.1923H24.5192M46.875 30.125H24.5192M24.5192 22.1923V12.0962L1.92308 2V52M24.5192 22.1923V30.125M24.5192 52H28.8462M24.5192 52V30.125M24.5192 52H13.2212M1.92308 52H13.2212M28.8462 52H41.8269M28.8462 52V46.5913M41.8269 52V46.5913M28.8462 41.1827V34.9327H41.8269V41.1827M28.8462 41.1827H41.8269M28.8462 41.1827V46.5913M41.8269 41.1827V46.5913M28.8462 46.5913H41.8269M33.6538 49.1154H36.7788M13.2212 52V46.5913M5.52885 33.4904H11.7788V26.5192H5.52885V33.4904ZM15.1442 33.4904H20.6731V26.5192H15.1442V33.4904ZM15.1442 22.1923H20.6731V15.9423H15.1442V22.1923ZM11.7788 22.1923H5.52885V15.9423H11.7788V22.1923Z" stroke="#EE5E00" stroke-width="1.5"/>
<path d="M17.2797 41.4231C17.2797 43.7968 15.3554 45.7212 12.9817 45.7212C10.6079 45.7212 8.68359 43.7968 8.68359 41.4231C8.68359 39.0493 10.6079 37.125 12.9817 37.125C15.3554 37.125 17.2797 39.0493 17.2797 41.4231Z" stroke="#EE5E00" stroke-width="1.5"/>
</svg>
