<svg width="40" height="53" viewBox="0 0 40 53" fill="none" xmlns="http://www.w3.org/2000/svg">
<path d="M0 52H3.38983M39.1949 52H36.4407M36.4407 52V36.1102L29.4492 33.0761M36.4407 52H25.2119M25.2119 52H12.6059M25.2119 52V47.7627M12.6059 52V36.1102M12.6059 52H3.38983M29.4492 25.3051V33.0761M29.4492 25.3051L25.2119 22.5868M29.4492 25.3051V22.5868M29.4492 25.3051L25.8163 27.6356M12.6059 36.1102V31.2373M12.6059 36.1102L20.2019 31.2373M29.4492 33.0761L25.2119 31.2373V32.5085M17.7966 17.8299L12.6059 14.5V31.2373M17.7966 17.8299V8.77966L29.4492 2V8.77966M17.7966 17.8299L25.2119 22.5868M12.6059 31.2373L3.38983 35.2627V52M23.7288 8.77966H29.4492M29.4492 8.77966V12.3814M20.7627 12.3814H29.4492M29.4492 12.3814V15.5593M20.7627 15.5593H29.4492M29.4492 15.5593V19.161M21.822 18.9492L28.8136 19.161H29.4492M29.4492 19.161V22.5868M25.2119 22.5868H29.4492M14.6186 20.8559H17.7966M14.6186 24.2458H21.822M14.6186 27.6356H25.8163M25.8163 27.6356L20.2019 31.2373M14.6186 31.2373H20.2019M22.4576 32.5085H25.2119M25.2119 32.5085V36.1102M18.4322 36.1102H25.2119M25.2119 36.1102V39.0763M14.6186 39.0763H25.2119M25.2119 39.0763V43.5254M14.6186 43.5254H25.2119M25.2119 43.5254V47.7627M14.6186 47.5508L25.2119 47.7627" stroke="#EE5E00" stroke-width="1.5"/>
<path d="M0 52H3.38983M39.1949 52H36.4407M36.4407 52V36.1102L29.4492 33.0761M36.4407 52H25.2119M25.2119 52H12.6059M25.2119 52V47.7627M12.6059 52V36.1102M12.6059 52H3.38983M29.4492 25.3051V33.0761M29.4492 25.3051L25.2119 22.5868M29.4492 25.3051V22.5868M29.4492 25.3051L25.8163 27.6356M12.6059 36.1102V31.2373M12.6059 36.1102L20.2019 31.2373M29.4492 33.0761L25.2119 31.2373V32.5085M17.7966 17.8299L12.6059 14.5V31.2373M17.7966 17.8299V8.77966L29.4492 2V8.77966M17.7966 17.8299L25.2119 22.5868M12.6059 31.2373L3.38983 35.2627V52M23.7288 8.77966H29.4492M29.4492 8.77966V12.3814M20.7627 12.3814H29.4492M29.4492 12.3814V15.5593M20.7627 15.5593H29.4492M29.4492 15.5593V19.161M21.822 18.9492L28.8136 19.161H29.4492M29.4492 19.161V22.5868M25.2119 22.5868H29.4492M14.6186 20.8559H17.7966M14.6186 24.2458H21.822M14.6186 27.6356H25.8163M25.8163 27.6356L20.2019 31.2373M14.6186 31.2373H20.2019M22.4576 32.5085H25.2119M25.2119 32.5085V36.1102M18.4322 36.1102H25.2119M25.2119 36.1102V39.0763M14.6186 39.0763H25.2119M25.2119 39.0763V43.5254M14.6186 43.5254H25.2119M25.2119 43.5254V47.7627M14.6186 47.5508L25.2119 47.7627" stroke="#EE5E00" stroke-width="1.5"/>
<path d="M6.35547 38.6524H9.53343M6.35547 42.0423C7.54191 42.3812 8.96846 42.1835 9.53343 42.0423M6.35547 45.8558H9.53343M6.35547 48.8219H9.53343M28.8131 36.9575H29.6606M31.7792 36.9575H33.0504M28.8131 40.1355H29.6606M31.7792 40.1355H33.0504M28.8131 43.5253H29.6606M31.7792 43.5253H33.0504M28.8131 46.9151H29.6606M31.7792 46.9151H33.0504M28.8131 50.305H29.6606M31.7792 50.305H33.0504" stroke="#EE5E00" stroke-width="3"/>
<path d="M6.35547 38.6524H9.53343M6.35547 42.0423C7.54191 42.3812 8.96846 42.1835 9.53343 42.0423M6.35547 45.8558H9.53343M6.35547 48.8219H9.53343M28.8131 36.9575H29.6606M31.7792 36.9575H33.0504M28.8131 40.1355H29.6606M31.7792 40.1355H33.0504M28.8131 43.5253H29.6606M31.7792 43.5253H33.0504M28.8131 46.9151H29.6606M31.7792 46.9151H33.0504M28.8131 50.305H29.6606M31.7792 50.305H33.0504" stroke="#EE5E00" stroke-width="3"/>
</svg>
