<svg width="32" height="32" viewBox="0 0 32 32" fill="none" xmlns="http://www.w3.org/2000/svg">
<mask id="mask0_770_693" style="mask-type:alpha" maskUnits="userSpaceOnUse" x="4" y="2" width="27" height="20">
<path d="M21.2203 2.98735H4.10254L11.2106 10.1179H21.2203C22.6419 10.4418 22.9523 11.5275 22.9298 12.0298C22.9658 13.4874 21.8051 14.0918 21.2203 14.2117H15.3269L22.4125 21.2523C28.7287 19.8307 30.1128 14.5117 30.0154 12.0298C29.8174 5.19174 24.0695 3.1523 21.2203 2.98735Z" fill="#EE5E00"/>
</mask>
<g mask="url(#mask0_770_693)">
<path d="M21.2203 2.98735H4.10254L11.2106 10.1179H21.2203C22.6419 10.4418 22.9523 11.5275 22.9298 12.0298C22.9658 13.4874 21.8051 14.0918 21.2203 14.2117H15.3269L22.4125 21.2523C28.7287 19.8307 30.1128 14.5117 30.0154 12.0298C29.8174 5.19174 24.0695 3.1523 21.2203 2.98735Z" fill="#EE5E00"/>
<g filter="url(#filter0_f_770_693)">
<ellipse cx="24.4851" cy="4.87421" rx="5.33102" ry="3.75646" transform="rotate(29.0849 24.4851 4.87421)" fill="#F8BA91"/>
</g>
</g>
<path d="M29.0253 29.0126L18.9931 29.0351L3 13.0421V2.96486L29.0253 29.0126Z" fill="url(#paint0_linear_770_693)"/>
<ellipse cx="7.90301" cy="25.1437" rx="3.80145" ry="3.89142" fill="#EE5E00"/>
<mask id="mask1_770_693" style="mask-type:alpha" maskUnits="userSpaceOnUse" x="4" y="21" width="8" height="9">
<ellipse cx="7.90399" cy="25.1437" rx="3.80145" ry="3.89142" fill="#EE5E00"/>
</mask>
<g mask="url(#mask1_770_693)">
<ellipse cx="7.90399" cy="25.1437" rx="3.80145" ry="3.89142" fill="#EE5E00"/>
<g filter="url(#filter1_f_770_693)">
<ellipse cx="9.79377" cy="23.1868" rx="1.88948" ry="1.95696" fill="#F8BA91"/>
</g>
</g>
<defs>
<filter id="filter0_f_770_693" x="12.4795" y="-6.30832" width="24.0107" height="22.3651" filterUnits="userSpaceOnUse" color-interpolation-filters="sRGB">
<feFlood flood-opacity="0" result="BackgroundImageFix"/>
<feBlend mode="normal" in="SourceGraphic" in2="BackgroundImageFix" result="shape"/>
<feGaussianBlur stdDeviation="3.5" result="effect1_foregroundBlur_770_693"/>
</filter>
<filter id="filter1_f_770_693" x="4.9043" y="18.2298" width="9.7793" height="9.91391" filterUnits="userSpaceOnUse" color-interpolation-filters="sRGB">
<feFlood flood-opacity="0" result="BackgroundImageFix"/>
<feBlend mode="normal" in="SourceGraphic" in2="BackgroundImageFix" result="shape"/>
<feGaussianBlur stdDeviation="1.5" result="effect1_foregroundBlur_770_693"/>
</filter>
<linearGradient id="paint0_linear_770_693" x1="10.6479" y1="16.0112" x2="20.4327" y2="29.0126" gradientUnits="userSpaceOnUse">
<stop stop-color="#EE5E00"/>
<stop offset="1" stop-color="#F08B48"/>
</linearGradient>
</defs>
</svg>
