<svg width="53" height="52" viewBox="0 0 53 52" fill="none" xmlns="http://www.w3.org/2000/svg">
<path d="M5.01606 42.9679H1V51H51.4016V42.9679H47.5863M5.01606 42.9679V21.8835H17.4659M5.01606 42.9679H32.5261M47.5863 21.8835V1H13.4498V8.83133H17.4659M47.5863 21.8835H17.4659M47.5863 21.8835V28.51M47.5863 42.9679V28.51M47.5863 42.9679H38.3494M17.4659 16.4618V21.8835M17.4659 16.4618V8.83133M17.4659 16.4618H32.5261M17.4659 8.83133H32.5261M32.5261 16.4618H41.7631V8.83133H32.5261M32.5261 16.4618V8.83133M47.5863 28.51H38.3494M32.5261 37.5462H11.0402V28.51H32.5261M32.5261 37.5462V42.9679M32.5261 37.5462V28.51M32.5261 42.9679H38.3494M38.3494 42.9679V28.51M38.3494 28.51H32.5261" stroke="#EE5E00" stroke-width="1.5"/>
</svg>
