<svg width="68" height="53" viewBox="0 0 68 53" fill="none" xmlns="http://www.w3.org/2000/svg">
<path d="M0 52H3.94737M67.3684 52H61.0526M61.0526 52V49.1053M61.0526 52H53.3109M61.0526 46.2105V49.1053M61.0526 49.1053C58.9474 48.2281 56 44.3684 61.0526 35.9474C63.5088 39.3684 66.9474 46.7895 61.0526 49.1053ZM57.8947 35.9474L53.3109 30.4211M18.6842 14.3684L29.7368 2L53.3109 30.4211M18.6842 14.3684H3.94737V52M18.6842 14.3684H25.7895V30.4211M3.94737 52H12.3684M25.7895 52V30.4211M25.7895 52H36.3158M25.7895 52H21.3158M25.7895 30.4211H36.3158M53.3109 30.4211V52M53.3109 30.4211H36.3158M53.3109 52H36.3158M36.3158 30.4211V52M21.3158 52H12.3684M21.3158 52V42M12.3684 52V42M12.3684 42V20.6842H21.3158V42M12.3684 42H21.3158" stroke="#EE5E00" stroke-width="1.5"/>
<path d="M0 52H3.94737M67.3684 52H61.0526M61.0526 52V49.1053M61.0526 52H53.3109M61.0526 46.2105V49.1053M61.0526 49.1053C58.9474 48.2281 56 44.3684 61.0526 35.9474C63.5088 39.3684 66.9474 46.7895 61.0526 49.1053ZM57.8947 35.9474L53.3109 30.4211M18.6842 14.3684L29.7368 2L53.3109 30.4211M18.6842 14.3684H3.94737V52M18.6842 14.3684H25.7895V30.4211M3.94737 52H12.3684M25.7895 52V30.4211M25.7895 52H36.3158M25.7895 52H21.3158M25.7895 30.4211H36.3158M53.3109 30.4211V52M53.3109 30.4211H36.3158M53.3109 52H36.3158M36.3158 30.4211V52M21.3158 52H12.3684M21.3158 52V42M12.3684 52V42M12.3684 42V20.6842H21.3158V42M12.3684 42H21.3158" stroke="#EE5E00" stroke-width="1.5"/>
</svg>
