<svg width="93" height="93" viewBox="0 0 93 93" fill="none" xmlns="http://www.w3.org/2000/svg">
<path d="M74.3572 91.5H91.5001V85.4286H82.9286M74.3572 91.5V85.4286H82.9286M74.3572 91.5H70.0715M82.9286 85.4286V80.0715M82.9286 60.4285V67.5714M82.9286 67.5714V80.0715M82.9286 67.5714C81.6281 66.9521 79.7669 65.7013 78.5218 64M82.9286 80.0715C95.7858 75.7858 90.6667 67.5715 86.5001 64C87.0953 63.5238 88.2858 61.7143 88.2858 58.2857C88.2858 55.9069 85.645 54.4083 82.9286 54.5229M82.9286 80.0715C70.3572 77.5001 74.7526 68.2858 78.5218 64M78.5218 64C77.3734 62.4311 76.749 60.4789 77.5715 58.2857C78.5249 55.7431 80.7511 54.6147 82.9286 54.5229M52.2143 91.5L51.1429 62.9286H70.0715V91.5M52.2143 91.5H70.0715M52.2143 91.5H38.6429M58.2858 74.0001V80.0715M30.7857 91.5H1.5V85.4286H3.64286M30.7857 91.5V85.4286H27.9286M30.7857 91.5H38.6429M3.64286 85.4286H27.9286M3.64286 85.4286C4.15271 83.2872 5.31326 80.648 7.21429 79.0483M27.9286 85.4286C26.7857 79.1428 21.5 80.4286 19 81.8572C13.6095 76.63 9.75207 76.9129 7.21429 79.0483M7.21429 79.0483V58.2857M7.21429 58.2857H1.5L9.35715 46.1429H14.3572M7.21429 58.2857H38.6429M38.6429 46.1429L61.1429 15.0714L82.9286 46.1429M38.6429 46.1429H30.7857M38.6429 46.1429V58.2857M82.9286 46.1429V54.5229M82.9286 46.1429H91.5001L61.1429 3.64286L54 13.2857M54 13.2857H35.7857M54 13.2857L45.0715 26.5M35.7857 13.2857V8.28572H38.6429V1.5H20.7857V8.28572H25.4286V13.2857M35.7857 13.2857H25.4286M25.4286 13.2857H14.3572L3.64286 26.5H14.3572M45.0715 26.5L30.7857 46.1429M45.0715 26.5H14.3572M30.7857 46.1429H14.3572M14.3572 46.1429V26.5M38.6429 58.2857V91.5M19 30.4286V40.0715H27.9286V30.4286H19ZM54 37.2143V51.1429H66.5001V37.2143H54ZM17.9286 64.7143H27.9286V74.0001H17.9286V64.7143Z" stroke="#BBBBBB" stroke-width="1.5"/>
</svg>
