<svg width="89" height="93" viewBox="0 0 89 93" fill="none" xmlns="http://www.w3.org/2000/svg">
<path d="M0 92H3.46154M87.4038 92H84.375M84.375 92V52.625M84.375 92H75.2885M84.375 52.625H87.4038V38.3462H44.1346M84.375 52.625H44.1346M44.1346 38.3462V20.1731L3.46154 2V92M44.1346 38.3462V52.625M44.1346 92H51.9231M44.1346 92V52.625M44.1346 92H23.7981M3.46154 92H23.7981M51.9231 92H75.2885M51.9231 92V82.2644M75.2885 92V82.2644M51.9231 72.5288V61.2788H75.2885V72.5288M51.9231 72.5288H75.2885M51.9231 72.5288V82.2644M75.2885 72.5288V82.2644M51.9231 82.2644H75.2885M60.5769 86.8077H66.2019M23.7981 92V82.2644M9.95192 58.6827H21.2019V46.1346H9.95192V58.6827ZM27.2596 58.6827H37.2115V46.1346H27.2596V58.6827ZM27.2596 38.3462H37.2115V27.0962H27.2596V38.3462ZM21.2019 38.3462H9.95192V27.0962H21.2019V38.3462Z" stroke="#BBBBBB" stroke-width="1.5"/>
<circle cx="23.3653" cy="72.9615" r="8.33654" stroke="#BBBBBB" stroke-width="1.5"/>
</svg>
