<svg width="93" height="92" viewBox="0 0 93 92" fill="none" xmlns="http://www.w3.org/2000/svg">
<path d="M2.92301 91H11.0046M73.0863 43.9796H92.1883V91H73.0863M73.0863 43.9796V91M73.0863 43.9796V1H34.8822V26.3469M73.0863 91H59.3108M34.8822 91H11.0046M34.8822 91V26.3469M34.8822 91H45.5353M11.0046 91V81.449M11.0046 71.898V81.449M11.0046 81.449C17.6169 77.5306 26.874 67.1224 11.0046 56.8367C4.3924 59.1633 -6.99544 71.898 11.0046 81.449ZM16.5149 51.3265V26.3469H34.8822M45.5353 91V71.898H59.4945L59.3108 91M45.5353 91H59.3108M23.1271 57.9388H26.8006V56.102H23.1271V57.9388ZM23.1271 45.8163V48.3878H27.9026V45.8163H23.1271ZM23.1271 35.898V38.4694H27.9026V35.898H23.1271ZM44.0659 13.1224V24.5102H48.1067V13.1224H44.0659ZM57.2904 13.1224V24.5102H60.9639V13.1224H57.2904ZM44.0659 32.2245H48.1067V43.9796H44.0659V32.2245ZM57.2904 32.2245H60.9639V43.9796H57.2904V32.2245ZM57.2904 51.3265H60.9639V63.449H57.2904V51.3265ZM48.1067 51.3265H44.0659V63.449H48.1067V51.3265ZM77.8618 56.102V59.4082H83.7394V56.102H77.8618ZM78.5965 66.7551V70.0612H83.7394V66.7551H78.5965ZM78.5965 77.4082V80.3469H83.7394V77.4082H78.5965Z" stroke="#BBBBBB" stroke-width="1.5"/>
</svg>
