<svg width="75" height="93" viewBox="0 0 75 93" fill="none" xmlns="http://www.w3.org/2000/svg">
<path d="M7.53846 72.9615L2 70.1923L38 2L50.1154 25.1721M7.53846 72.9615L8.98901 70.1923M7.53846 72.9615V81.9615H11M68.8077 72.9615L73.6538 70.1923L57.7308 39.7375M68.8077 72.9615L67.3407 70.1923M68.8077 72.9615V81.9615H63.9615M8.98901 70.1923L38 14.8077L67.3407 70.1923M8.98901 70.1923H20.6923M20.6923 70.1923V56.6923H27.7885M20.6923 70.1923V75.7308H27.7885M27.7885 75.7308H34.8846V70.1923M27.7885 75.7308V56.6923M27.7885 56.6923H34.8846V70.1923M47.5192 75.7308H40.7692V70.1923M47.5192 75.7308H54.2692V70.1923M47.5192 75.7308V56.6923M47.5192 56.6923H54.2692V70.1923M47.5192 56.6923H40.7692V70.1923M34.8846 70.1923H40.7692M54.2692 70.1923H67.3407M11 81.9615V92H18.6154V88.8846M11 81.9615H18.6154M18.6154 81.9615V88.8846M18.6154 81.9615H27.7885M18.6154 88.8846L27.7885 81.9615M27.7885 81.9615H33.8462M27.7885 81.9615V92H33.8462V81.9615M33.8462 81.9615H42.5M42.5 81.9615V92H47.5192V81.9615M42.5 81.9615H47.5192M47.5192 81.9615L57.7308 88.8846M47.5192 81.9615H57.7308M57.7308 88.8846V92H63.9615V81.9615M57.7308 88.8846V81.9615M57.7308 81.9615H63.9615M57.7308 39.7375V13.7692H50.1154V25.1721M57.7308 39.7375L50.1154 25.1721" stroke="#BBBBBB" stroke-width="1.5"/>
<path d="M44.5189 37.3078C44.5189 41.0994 41.4451 44.1732 37.6535 44.1732C33.8618 44.1732 30.7881 41.0994 30.7881 37.3078C30.7881 33.5161 33.8618 30.4424 37.6535 30.4424C41.4451 30.4424 44.5189 33.5161 44.5189 37.3078Z" stroke="#BBBBBB" stroke-width="1.5"/>
</svg>
