<svg width="122" height="93" viewBox="0 0 122 93" fill="none" xmlns="http://www.w3.org/2000/svg">
<path d="M0 92H7.10526M121.263 92H109.895M109.895 92V86.7895M109.895 92H95.9596M109.895 81.5789V86.7895M109.895 86.7895C106.105 85.2105 100.8 78.2632 109.895 63.1053C114.316 69.2632 120.505 82.6211 109.895 86.7895ZM104.211 63.1053L95.9596 53.1579M33.6316 24.2632L53.5263 2L95.9596 53.1579M33.6316 24.2632H7.10526V92M33.6316 24.2632H46.4211V53.1579M7.10526 92H22.2632M46.4211 92V53.1579M46.4211 92H65.3684M46.4211 92H38.3684M46.4211 53.1579H65.3684M95.9596 53.1579V92M95.9596 53.1579H65.3684M95.9596 92H65.3684M65.3684 53.1579V92M38.3684 92H22.2632M38.3684 92V74M22.2632 92V74M22.2632 74V35.6316H38.3684V74M22.2632 74H38.3684" stroke="#BBBBBB" stroke-width="1.5"/>
</svg>
