<svg width="71" height="93" viewBox="0 0 71 93" fill="none" xmlns="http://www.w3.org/2000/svg">
<path d="M0 92H6.1017M70.5508 92H65.5932M65.5932 92V63.3983L53.0085 57.937M65.5932 92H45.3814M45.3814 92H22.6907M45.3814 92V84.3729M22.6907 92V63.3983M22.6907 92H6.1017M53.0085 43.9492V57.937M53.0085 43.9492L45.3814 39.0563M53.0085 43.9492V39.0563M53.0085 43.9492L46.4693 48.1441M22.6907 63.3983V54.6271M22.6907 63.3983L36.3634 54.6271M53.0085 57.937L45.3814 54.6271V56.9153M32.0339 30.4938L22.6907 24.5V54.6271M32.0339 30.4938V14.2034L53.0085 2V14.2034M32.0339 30.4938L45.3814 39.0563M22.6907 54.6271L6.1017 61.8729V92M42.7119 14.2034H53.0085M53.0085 14.2034V20.6864M37.3729 20.6864H53.0085M53.0085 20.6864V26.4068M37.3729 26.4068H53.0085M53.0085 26.4068V32.8898M39.2797 32.5085L51.8644 32.8898H53.0085M53.0085 32.8898V39.0563M45.3814 39.0563H53.0085M26.3136 35.9407H32.0339M26.3136 42.0424H39.2797M26.3136 48.1441H46.4693M46.4693 48.1441L36.3634 54.6271M26.3136 54.6271H36.3634M40.4237 56.9153H45.3814M45.3814 56.9153V63.3983M33.178 63.3983H45.3814M45.3814 63.3983V68.7373M26.3136 68.7373H45.3814M45.3814 68.7373V76.7458M26.3136 76.7458H45.3814M45.3814 76.7458V84.3729M26.3136 83.9915L45.3814 84.3729" stroke="#BBBBBB" stroke-width="1.5"/>
<path d="M11.4409 67.9747H17.1613M11.4409 74.0764C13.5765 74.6865 16.1443 74.3306 17.1613 74.0764M11.4409 80.9408H17.1613M11.4409 86.2798H17.1613M51.8646 64.9238H53.3901M57.2036 64.9238H59.4918M51.8646 70.6442H53.3901M57.2036 70.6442H59.4918M51.8646 76.7459H53.3901M57.2036 76.7459H59.4918M51.8646 82.8476H53.3901M57.2036 82.8476H59.4918M51.8646 88.9493H53.3901M57.2036 88.9493H59.4918" stroke="#BBBBBB" stroke-width="3"/>
</svg>
