<svg width="1820" height="1933" viewBox="0 0 1820 1933" fill="none" xmlns="http://www.w3.org/2000/svg">
<g clip-path="url(#clip0_658_1237)">
<rect width="1820" height="1933" fill="#131212"/>
<rect opacity="0.3" x="234" y="271" width="269" height="269" fill="url(#paint0_linear_658_1237)"/>
<rect opacity="0.3" x="1314" y="271" width="269" height="269" fill="url(#paint1_linear_658_1237)"/>
<rect opacity="0.3" x="774" y="1" width="269" height="269" fill="url(#paint2_linear_658_1237)"/>
<rect opacity="0.3" x="774" y="541" width="269" height="269" fill="url(#paint3_linear_658_1237)"/>
<g opacity="0.04">
<line x1="1870" y1="270.5" x2="-50" y2="270.5" stroke="#D4D5D2"/>
<line x1="1870" y1="540.5" x2="-50" y2="540.5" stroke="#D4D5D2"/>
<line x1="233.5" y1="2.18557e-08" x2="233.5" y2="977" stroke="#D4D5D2"/>
<line x1="1043.5" y1="2.18557e-08" x2="1043.5" y2="977" stroke="#D4D5D2"/>
<line x1="503.5" y1="2.18557e-08" x2="503.5" y2="977" stroke="#D4D5D2"/>
<line x1="1313.5" y1="2.18557e-08" x2="1313.5" y2="977" stroke="#D4D5D2"/>
<line x1="773.5" y1="2.18557e-08" x2="773.5" y2="977" stroke="#D4D5D2"/>
<line x1="1583.5" y1="2.18557e-08" x2="1583.5" y2="977" stroke="#D4D5D2"/>
</g>
<g opacity="0.32" filter="url(#filter0_f_658_1237)">
<path d="M1409.11 1362.49C1200.17 1236.66 1104.07 1009.86 817.162 992.188C523.203 974.084 325.631 1162.71 97.7376 1281.73C97.1875 1282.01 96.6341 1282.3 96.084 1282.59L815.798 1737.51L1409.11 1362.49Z" fill="#0A7CFF"/>
<path d="M1696.34 694L1227.1 1117.31H2207C2167.35 980.525 2036.5 905.777 1901.98 828.946C1830 787.834 1756.99 746.127 1696.34 694Z" fill="#0A7CFF"/>
<path d="M931.75 1178.02L267.22 694C201.029 733.7 126.324 769.951 51.6758 806.174C-154.647 906.291 -360.501 1006.18 -384.711 1178.02H931.75Z" fill="#FF469D"/>
<path d="M-384.192 1178.02C-418.15 1416.91 -137.863 1614.65 116.749 1768.69L931.75 1178.02H-384.192Z" fill="#FF7847"/>
<path d="M1946.44 1904.87C2151.07 1725.78 2196.69 1427.63 2124.65 1178.02H1144.67L1946.44 1904.87Z" fill="#00DFDF"/>
<path d="M931.872 1326.61L233.527 1769.39C459.122 1888.79 682.296 1912.89 977.157 1925.9L977.239 1925.9L931.872 1326.61Z" fill="#7733FF"/>
<path d="M1733.54 1833.43L931.873 1326.61L977.24 1925.9C1246.85 1937.8 1541.23 1950.78 1733.54 1833.43Z" fill="#00DFDF"/>
</g>
<path d="M754.134 345.721L753.355 343.302L747.738 347.381L754.134 345.721Z" fill="#1E1E1E"/>
<line x1="1583.5" y1="435.5" x2="1583.5" y2="645.5" stroke="url(#paint4_linear_658_1237)"/>
<line x1="1688" y1="541" x2="1478" y2="541" stroke="url(#paint5_linear_658_1237)"/>
<line x1="227" y1="192" x2="227" y2="369" stroke="url(#paint6_linear_658_1237)"/>
<line x1="315" y1="281" x2="138" y2="281" stroke="url(#paint7_linear_658_1237)"/>
</g>
<defs>
<filter id="filter0_f_658_1237" x="-634.747" y="446.253" width="3089.49" height="1734.86" filterUnits="userSpaceOnUse" color-interpolation-filters="sRGB">
<feFlood flood-opacity="0" result="BackgroundImageFix"/>
<feBlend mode="normal" in="SourceGraphic" in2="BackgroundImageFix" result="shape"/>
<feGaussianBlur stdDeviation="123.873" result="effect1_foregroundBlur_658_1237"/>
</filter>
<linearGradient id="paint0_linear_658_1237" x1="368.5" y1="271" x2="368.5" y2="540" gradientUnits="userSpaceOnUse">
<stop stop-color="#222020"/>
<stop offset="1" stop-color="#131212"/>
</linearGradient>
<linearGradient id="paint1_linear_658_1237" x1="1448.5" y1="271" x2="1448.5" y2="540" gradientUnits="userSpaceOnUse">
<stop stop-color="#222020"/>
<stop offset="1" stop-color="#131212"/>
</linearGradient>
<linearGradient id="paint2_linear_658_1237" x1="908.5" y1="1" x2="908.5" y2="270" gradientUnits="userSpaceOnUse">
<stop stop-color="#222020"/>
<stop offset="1" stop-color="#131212"/>
</linearGradient>
<linearGradient id="paint3_linear_658_1237" x1="908.5" y1="541" x2="908.5" y2="810" gradientUnits="userSpaceOnUse">
<stop stop-color="#222020"/>
<stop offset="1" stop-color="#131212"/>
</linearGradient>
<linearGradient id="paint4_linear_658_1237" x1="1582.5" y1="435.5" x2="1582.5" y2="645.5" gradientUnits="userSpaceOnUse">
<stop stop-color="#131212"/>
<stop offset="0.49" stop-color="#00DFDF"/>
<stop offset="1" stop-color="#131212"/>
</linearGradient>
<linearGradient id="paint5_linear_658_1237" x1="1688" y1="540" x2="1478" y2="540" gradientUnits="userSpaceOnUse">
<stop stop-color="#131212"/>
<stop offset="0.49" stop-color="#00DFDF"/>
<stop offset="1" stop-color="#131212"/>
</linearGradient>
<linearGradient id="paint6_linear_658_1237" x1="226" y1="192" x2="226" y2="369" gradientUnits="userSpaceOnUse">
<stop stop-color="#131212"/>
<stop offset="0.49" stop-color="#00DFDF"/>
<stop offset="1" stop-color="#131212"/>
</linearGradient>
<linearGradient id="paint7_linear_658_1237" x1="315" y1="280" x2="138" y2="280" gradientUnits="userSpaceOnUse">
<stop stop-color="#131212"/>
<stop offset="0.49" stop-color="#00DFDF"/>
<stop offset="1" stop-color="#131212"/>
</linearGradient>
<clipPath id="clip0_658_1237">
<rect width="1820" height="1933" fill="white"/>
</clipPath>
</defs>
</svg>
