<svg width="562" height="473" viewBox="0 0 562 473" fill="none" xmlns="http://www.w3.org/2000/svg">
<path d="M201 243.447L39 148V338.894L201 427V243.447Z" fill="url(#paint0_linear_13181_2853)" stroke="url(#paint1_linear_13181_2853)"/>
<path d="M523 338.667V148L362 243.333V434L523 338.667Z" fill="url(#paint2_linear_13181_2853)" stroke="url(#paint3_linear_13181_2853)"/>
<g style="mix-blend-mode:plus-lighter" filter="url(#filter0_f_13181_2853)">
<path d="M201 243.447L39 148V338.894L201 427V243.447Z" fill="url(#paint4_linear_13181_2853)"/>
<path d="M201 243.447L39 148V338.894L201 427V243.447Z" stroke="url(#paint5_linear_13181_2853)"/>
</g>
<g style="mix-blend-mode:plus-lighter" filter="url(#filter1_f_13181_2853)">
<path d="M523 338.667V148L362 243.333V434L523 338.667Z" fill="url(#paint6_linear_13181_2853)"/>
<path d="M523 338.667V148L362 243.333V434L523 338.667Z" stroke="url(#paint7_linear_13181_2853)"/>
</g>
<path d="M120 278.553V95L281.5 190.447L443 95V278.553L281.5 374L120 278.553Z" fill="url(#paint8_linear_13181_2853)" stroke="url(#paint9_linear_13181_2853)"/>
<g style="mix-blend-mode:plus-lighter" filter="url(#filter2_f_13181_2853)">
<path d="M120 278.553V95L281.5 190.447L443 95V278.553L281.5 374L120 278.553Z" fill="url(#paint10_linear_13181_2853)"/>
<path d="M120 278.553V95L281.5 190.447L443 95V278.553L281.5 374L120 278.553Z" stroke="url(#paint11_linear_13181_2853)"/>
</g>
<defs>
<filter id="filter0_f_13181_2853" x="0.5" y="109.125" width="239" height="356.716" filterUnits="userSpaceOnUse" color-interpolation-filters="sRGB">
<feFlood flood-opacity="0" result="BackgroundImageFix"/>
<feBlend mode="normal" in="SourceGraphic" in2="BackgroundImageFix" result="shape"/>
<feGaussianBlur stdDeviation="19" result="effect1_foregroundBlur_13181_2853"/>
</filter>
<filter id="filter1_f_13181_2853" x="323.5" y="109.123" width="238" height="363.754" filterUnits="userSpaceOnUse" color-interpolation-filters="sRGB">
<feFlood flood-opacity="0" result="BackgroundImageFix"/>
<feBlend mode="normal" in="SourceGraphic" in2="BackgroundImageFix" result="shape"/>
<feGaussianBlur stdDeviation="19" result="effect1_foregroundBlur_13181_2853"/>
</filter>
<filter id="filter2_f_13181_2853" x="25.4" y="0.0237045" width="512.2" height="468.657" filterUnits="userSpaceOnUse" color-interpolation-filters="sRGB">
<feFlood flood-opacity="0" result="BackgroundImageFix"/>
<feBlend mode="normal" in="SourceGraphic" in2="BackgroundImageFix" result="shape"/>
<feGaussianBlur stdDeviation="47.05" result="effect1_foregroundBlur_13181_2853"/>
</filter>
<linearGradient id="paint0_linear_13181_2853" x1="-21.9014" y1="64.5" x2="107.302" y2="226.038" gradientUnits="userSpaceOnUse">
<stop stop-color="#3291F6"/>
<stop offset="1" stop-color="#1C1C1C" stop-opacity="0"/>
</linearGradient>
<linearGradient id="paint1_linear_13181_2853" x1="34.0986" y1="143.5" x2="97.5895" y2="208.545" gradientUnits="userSpaceOnUse">
<stop stop-color="#3291F6"/>
<stop offset="1" stop-color="#1C1C1C" stop-opacity="0"/>
</linearGradient>
<linearGradient id="paint2_linear_13181_2853" x1="553.133" y1="76.3823" x2="476.813" y2="230.915" gradientUnits="userSpaceOnUse">
<stop stop-color="#444CE7"/>
<stop offset="1" stop-color="#1C1C1C" stop-opacity="0"/>
</linearGradient>
<linearGradient id="paint3_linear_13181_2853" x1="518.959" y1="151.87" x2="481.72" y2="227.297" gradientUnits="userSpaceOnUse">
<stop stop-color="#3249FF"/>
<stop offset="1" stop-color="#1C1C1C" stop-opacity="0"/>
</linearGradient>
<linearGradient id="paint4_linear_13181_2853" x1="-21.9014" y1="64.5" x2="107.302" y2="226.038" gradientUnits="userSpaceOnUse">
<stop stop-color="#3291F6"/>
<stop offset="1" stop-color="#1C1C1C" stop-opacity="0"/>
</linearGradient>
<linearGradient id="paint5_linear_13181_2853" x1="34.0986" y1="143.5" x2="97.5895" y2="208.545" gradientUnits="userSpaceOnUse">
<stop stop-color="#3291F6"/>
<stop offset="1" stop-color="#1C1C1C" stop-opacity="0"/>
</linearGradient>
<linearGradient id="paint6_linear_13181_2853" x1="553.133" y1="76.3823" x2="476.813" y2="230.915" gradientUnits="userSpaceOnUse">
<stop stop-color="#444CE7"/>
<stop offset="1" stop-color="#1C1C1C" stop-opacity="0"/>
</linearGradient>
<linearGradient id="paint7_linear_13181_2853" x1="518.959" y1="151.87" x2="481.72" y2="227.297" gradientUnits="userSpaceOnUse">
<stop stop-color="#3249FF"/>
<stop offset="1" stop-color="#1C1C1C" stop-opacity="0"/>
</linearGradient>
<linearGradient id="paint8_linear_13181_2853" x1="453.599" y1="65" x2="429.13" y2="211.685" gradientUnits="userSpaceOnUse">
<stop stop-color="#32D9F6"/>
<stop offset="1" stop-color="#1C1C1C" stop-opacity="0"/>
</linearGradient>
<linearGradient id="paint9_linear_13181_2853" x1="434.892" y1="98.7754" x2="411.686" y2="275.398" gradientUnits="userSpaceOnUse">
<stop stop-color="#32D9F6"/>
<stop offset="1" stop-color="#1C1C1C" stop-opacity="0"/>
</linearGradient>
<linearGradient id="paint10_linear_13181_2853" x1="453.599" y1="65" x2="429.13" y2="211.685" gradientUnits="userSpaceOnUse">
<stop stop-color="#32D9F6"/>
<stop offset="1" stop-color="#1C1C1C" stop-opacity="0"/>
</linearGradient>
<linearGradient id="paint11_linear_13181_2853" x1="434.892" y1="98.7754" x2="411.686" y2="275.398" gradientUnits="userSpaceOnUse">
<stop stop-color="#32D9F6"/>
<stop offset="1" stop-color="#1C1C1C" stop-opacity="0"/>
</linearGradient>
</defs>
</svg>
