<svg width="25" height="25" viewBox="0 0 25 25" fill="none" xmlns="http://www.w3.org/2000/svg">
<rect x="0.5" y="0.5" width="24" height="24" stroke="#EE5E00"/>
<path d="M9.33249 17.23C9.59383 17.2207 9.79449 17.1787 9.93449 17.104C10.0745 17.02 10.1725 16.88 10.2285 16.684C10.2845 16.4787 10.3125 16.1987 10.3125 15.844V10.258C10.3125 10.0247 10.3172 9.80067 10.3265 9.586C10.3452 9.37133 10.3592 9.20333 10.3685 9.082C10.2098 9.09133 10.0278 9.10067 9.82249 9.11C9.61716 9.11 9.45383 9.11467 9.33249 9.124V8.2C9.93916 8.19067 10.5505 8.186 11.1665 8.186C11.7825 8.186 12.3985 8.18133 13.0145 8.172C13.8638 8.16267 14.5965 8.27 15.2125 8.494C15.8285 8.70867 16.2998 9.04 16.6265 9.488C16.9532 9.92667 17.1165 10.496 17.1165 11.196C17.1165 11.5693 17.0372 11.9427 16.8785 12.316C16.7292 12.68 16.4865 13.0207 16.1505 13.338C15.8238 13.646 15.3898 13.898 14.8485 14.094C14.3165 14.29 13.6725 14.3973 12.9165 14.416C12.7672 14.416 12.6225 14.416 12.4825 14.416C12.3425 14.416 12.2072 14.4113 12.0765 14.402V15.9C12.0765 16.1613 12.0718 16.3993 12.0625 16.614C12.0532 16.8287 12.0392 16.9967 12.0205 17.118C12.1418 17.1087 12.2772 17.104 12.4265 17.104C12.5758 17.0947 12.7252 17.09 12.8745 17.09C13.0332 17.0807 13.1545 17.076 13.2385 17.076V18H9.33249V17.23ZM12.0765 13.52C12.1978 13.5293 12.3145 13.5387 12.4265 13.548C12.5385 13.5573 12.6598 13.562 12.7905 13.562C13.3132 13.562 13.7518 13.4687 14.1065 13.282C14.4705 13.0953 14.7458 12.8293 14.9325 12.484C15.1192 12.1293 15.2125 11.7 15.2125 11.196C15.2125 10.7387 15.1472 10.3653 15.0165 10.076C14.8858 9.78667 14.7132 9.56733 14.4985 9.418C14.2838 9.25933 14.0458 9.152 13.7845 9.096C13.5232 9.04 13.2618 9.012 13.0005 9.012C12.7578 9.012 12.5665 9.04933 12.4265 9.124C12.2958 9.19867 12.2025 9.334 12.1465 9.53C12.0998 9.71667 12.0765 9.97333 12.0765 10.3V13.52Z" fill="#EE5E00"/>
</svg>
