<svg width="64" height="54" viewBox="0 0 64 54" fill="none" xmlns="http://www.w3.org/2000/svg">
<path d="M13 23.4444L10.5 25.5H2L33 1L44.2449 10.5M13 23.4444L33 7L53 23.4444M13 23.4444V48.5M13 48.5H7V53H59V48.5H57.5M13 48.5H18M30.5 48.5V28H18V48.5M30.5 48.5H18M30.5 48.5H41.75M53 39.5V23.4444M53 23.4444L55.5 25.5H62L53 17.8966M41.75 28H35.5V33M41.75 28H48V33M41.75 28V33M41.75 38H48V33M41.75 38H35.5V33M41.75 38V33M41.75 33H35.5M41.75 33H48M44.2449 10.5V2H53V17.8966M44.2449 10.5L53 17.8966M41.75 48.5C41.3333 47 41.6 44 46 44C47.3333 42.1667 50.7 39.7 53.5 44.5C54.6667 44.3333 57.1 44.9 57.5 48.5M41.75 48.5H57.5" stroke="#EE5E00"/>
</svg>
