<svg width="93" height="92" viewBox="0 0 93 92" fill="none" xmlns="http://www.w3.org/2000/svg">
<path d="M8.22892 76.5422H1V91H91.7229V76.5422H84.8554M8.22892 76.5422V38.5904H30.6386M8.22892 76.5422H57.747M84.8554 38.5904V1H23.4096V15.0964H30.6386M84.8554 38.5904H30.6386M84.8554 38.5904V50.5181M84.8554 76.5422V50.5181M84.8554 76.5422H68.2289M30.6386 28.8313V38.5904M30.6386 28.8313V15.0964M30.6386 28.8313H57.747M30.6386 15.0964H57.747M57.747 28.8313H74.3735V15.0964H57.747M57.747 28.8313V15.0964M84.8554 50.5181H68.2289M57.747 66.7831H19.0723V50.5181H57.747M57.747 66.7831V76.5422M57.747 66.7831V50.5181M57.747 76.5422H68.2289M68.2289 76.5422V50.5181M68.2289 50.5181H57.747" stroke="#EE5E00" stroke-width="1.5"/>
</svg>
