<svg width="79" height="99" viewBox="0 0 79 99" fill="none" xmlns="http://www.w3.org/2000/svg">
<path d="M7.8744 77.2657L2 74.3285L40.1836 2L53.0338 26.5776M7.8744 77.2657L9.41293 74.3285M7.8744 77.2657V86.8116H11.5459M72.8599 77.2657L78 74.3285L61.1111 42.0265M72.8599 77.2657L71.3039 74.3285M72.8599 77.2657V86.8116H67.7198M9.41293 74.3285L40.1836 15.5845L71.3039 74.3285M9.41293 74.3285H21.8261M21.8261 74.3285V60.0097H29.3527M21.8261 74.3285V80.2029H29.3527M29.3527 80.2029H36.8792V74.3285M29.3527 80.2029V60.0097M29.3527 60.0097H36.8792V74.3285M50.2802 80.2029H43.1208V74.3285M50.2802 80.2029H57.4396V74.3285M50.2802 80.2029V60.0097M50.2802 60.0097H57.4396V74.3285M50.2802 60.0097H43.1208V74.3285M36.8792 74.3285H43.1208M57.4396 74.3285H71.3039M11.5459 86.8116V97.4589H19.6232V94.1546M11.5459 86.8116H19.6232M19.6232 86.8116V94.1546M19.6232 86.8116H29.3527M19.6232 94.1546L29.3527 86.8116M29.3527 86.8116H35.7778M29.3527 86.8116V97.4589H35.7778V86.8116M35.7778 86.8116H44.9565M44.9565 86.8116V97.4589H50.2802V86.8116M44.9565 86.8116H50.2802M50.2802 86.8116L61.1111 94.1546M50.2802 86.8116H61.1111M61.1111 94.1546V97.4589H67.7198V86.8116M61.1111 94.1546V86.8116M61.1111 86.8116H67.7198M61.1111 42.0265V14.4831H53.0338V26.5776M61.1111 42.0265L53.0338 26.5776" stroke="#EE5E00" stroke-width="1.5"/>
<path d="M47.1429 39.4494C47.1429 43.4961 43.8623 46.7767 39.8156 46.7767C35.7688 46.7767 32.4883 43.4961 32.4883 39.4494C32.4883 35.4026 35.7688 32.1221 39.8156 32.1221C43.8623 32.1221 47.1429 35.4026 47.1429 39.4494Z" stroke="#EE5E00" stroke-width="1.5"/>
</svg>
