<svg width="79" height="78" viewBox="0 0 79 78" fill="none" xmlns="http://www.w3.org/2000/svg">
<path d="M7.10442 64.7912H1V77H77.6104V64.7912H71.8112M7.10442 64.7912V32.743H26.0281M7.10442 64.7912H48.9197M71.8112 32.743V1H19.9237V12.9036H26.0281M71.8112 32.743H26.0281M71.8112 32.743V42.8153M71.8112 64.7912V42.8153M71.8112 64.7912H57.7711M26.0281 24.502V32.743M26.0281 24.502V12.9036M26.0281 24.502H48.9197M26.0281 12.9036H48.9197M48.9197 24.502H62.9598V12.9036H48.9197M48.9197 24.502V12.9036M71.8112 42.8153H57.7711M48.9197 56.5502H16.261V42.8153H48.9197M48.9197 56.5502V64.7912M48.9197 56.5502V42.8153M48.9197 64.7912H57.7711M57.7711 64.7912V42.8153M57.7711 42.8153H48.9197" stroke="#EE5E00" stroke-width="1.5"/>
</svg>
