<svg width="1820" height="962" viewBox="0 0 1820 962" fill="none" xmlns="http://www.w3.org/2000/svg">
<g clip-path="url(#clip0_3001_891)">
<rect width="1820" height="962" fill="#131112"/>
<rect opacity="0.3" x="234" y="271" width="269" height="269" fill="url(#paint0_linear_3001_891)"/>
<rect opacity="0.3" x="1314" y="271" width="269" height="269" fill="url(#paint1_linear_3001_891)"/>
<rect opacity="0.3" x="774" y="1" width="269" height="269" fill="url(#paint2_linear_3001_891)"/>
<rect opacity="0.3" x="774" y="541" width="269" height="269" fill="url(#paint3_linear_3001_891)"/>
<g opacity="0.04">
<line x1="1870" y1="270.5" x2="-50" y2="270.5" stroke="white"/>
<line x1="1870" y1="540.5" x2="-50" y2="540.5" stroke="white"/>
<line x1="233.5" y1="2.18557e-08" x2="233.5" y2="977" stroke="white"/>
<line x1="1043.5" y1="2.18557e-08" x2="1043.5" y2="977" stroke="white"/>
<line x1="503.5" y1="2.18557e-08" x2="503.5" y2="977" stroke="white"/>
<line x1="1313.5" y1="2.18557e-08" x2="1313.5" y2="977" stroke="white"/>
<line x1="773.5" y1="2.18557e-08" x2="773.5" y2="977" stroke="white"/>
<line x1="1583.5" y1="2.18557e-08" x2="1583.5" y2="977" stroke="white"/>
</g>
<g opacity="0.42" filter="url(#filter0_f_3001_891)">
<path d="M1409.11 808.7C1200.17 717.845 1104.07 554.074 817.162 541.315C523.203 528.242 325.631 664.443 97.7376 750.383C97.1875 750.591 96.6341 750.798 96.084 751.006L815.798 1079.5L1409.11 808.7Z" fill="#0A7CFF"/>
<path d="M1696.34 326L1227.1 631.664H2207C2167.35 532.893 2036.5 478.919 1901.98 423.441C1830 393.755 1756.99 363.64 1696.34 326Z" fill="#0A7CFF"/>
<path d="M931.75 675.5L267.22 326C201.03 354.666 126.324 380.843 51.6763 406.999C-154.647 479.291 -360.501 551.42 -384.71 675.5H931.75Z" fill="#FF7847" fill-opacity="0.78"/>
<path d="M931.872 782.793L233.527 1102.51C459.122 1188.73 682.296 1206.13 977.157 1215.52L977.239 1215.53L931.872 782.793Z" fill="#7733FF"/>
<path d="M1733.54 1148.75L931.872 782.793L977.239 1215.53C1246.85 1224.12 1541.23 1233.5 1733.54 1148.75Z" fill="#00DFDF"/>
</g>
<g opacity="0.06">
<path d="M-85.5699 839.051C-90.1762 745.526 -22.6827 660.715 58.8718 657.534C144.098 654.296 224.212 727.657 309.79 731.539C391.898 735.24 461.783 673.983 511.939 603.826C562.096 533.669 599.979 451.605 657.991 390.023C716.003 328.441 803.697 290.399 880.724 329.222C947.392 362.922 986.77 442.094 1029.44 510.349C1072.22 578.486 1136.83 646.757 1206.33 634.929C1288.14 621.142 1315.33 518.035 1362.29 455.66C1442.18 349.962 1569.88 297.174 1694.53 329.098C1821.72 361.547 1934.24 479.354 1974.24 621.838" stroke="#9254FF" stroke-width="2" stroke-miterlimit="10"/>
<path d="M-82.6475 817.007C-84.7928 724.828 -17.2162 641.927 63.9211 638.255C130.065 635.171 193.36 677.144 258.349 698.281C276.93 704.269 295.562 708.69 314.396 709.858C396.247 714.641 465.803 658.549 515.971 594.404C550.251 550.49 578.901 501.654 611.593 457.351C626.733 436.746 642.755 417.362 660.945 399.946C684.01 377.789 711.916 358.972 742.132 346.224C787.25 327.22 836.728 321.92 882.395 342.966C894.236 348.356 905.076 355.175 915.429 363.072C962.993 399.468 996.904 459.992 1032.82 514.641C1038.47 523.301 1044.55 531.968 1050.83 540.639C1093.34 597.813 1148.23 648.687 1207.41 641.503C1217.65 640.232 1226.91 637.617 1235.59 633.666C1268.68 619.038 1291.96 587.839 1313.34 553.593C1330.45 526.147 1346.22 496.508 1364.71 472.463C1369.23 466.631 1373.86 460.922 1378.6 455.335C1404.43 425.145 1434.1 399.483 1466.48 379.657C1534.66 338.255 1615.3 323.359 1694.83 342.937C1719.18 348.903 1743.13 358.119 1766.01 370.09C1862.45 420.231 1942 519.169 1973.91 634.052" stroke="#9156FF" stroke-width="2" stroke-miterlimit="10"/>
<path d="M-79.6265 794.843C-79.3012 704.25 -11.7505 623.137 69.0705 618.856C134.894 615.162 198.248 655.337 263.244 676.238C281.72 682.105 300.256 686.646 319.103 688.056C400.704 694.163 470.024 642.877 520.203 584.749C554.424 544.923 583.139 500.781 615.259 460.92C630.158 442.357 645.94 425.015 663.882 409.399C686.616 389.644 714.293 373.11 744.55 361.325C789.738 344.006 838.866 337.371 884.149 356.124C895.867 360.909 906.795 367.129 917.024 374.422C964.6 407.812 999.562 465.112 1036.28 518.582C1042.14 527.006 1048.22 535.676 1054.7 544.112C1097.83 600.587 1150.98 652.288 1209 647.736C1218.95 647.063 1228.12 644.808 1236.72 641.457C1269.47 628.991 1293.05 600.202 1315.03 568.008C1332.62 542.012 1348.94 512.977 1367.54 489.049C1372.06 483.216 1376.69 477.505 1381.44 471.916C1407.17 441.837 1436.31 415.798 1468.48 395.722C1535.81 353.571 1616.23 337.943 1695.55 356.799C1719.9 362.525 1743.63 371.498 1766.62 383.354C1863.06 432.783 1942.62 531.504 1974.01 646.287" stroke="#9158FF" stroke-width="2" stroke-miterlimit="10"/>
<path d="M-76.6085 772.658C-73.7105 683.534 -6.1768 604.451 74.219 599.437C139.832 595.255 203.236 633.39 267.929 654.171C286.41 660.039 304.95 664.581 323.6 666.229C404.844 673.538 473.936 627.303 524.127 575.193C558.289 539.459 587.069 500.012 618.725 464.718C633.383 448.197 648.925 432.898 666.627 419.326C689.14 402.095 716.58 387.604 746.777 376.901C792.026 361.026 840.604 353.294 885.613 369.875C897.208 374.056 908.012 379.672 918.219 386.243C965.807 416.624 1001.72 470.818 1039.35 522.99C1045.31 531.298 1051.48 539.61 1058.07 547.928C1101.8 603.463 1153.21 655.992 1209.98 654.434C1219.74 654.24 1228.72 652.464 1237.13 649.833C1269.34 639.526 1293.44 613.393 1316.01 582.77C1334.18 558.345 1350.94 529.794 1369.55 506.101C1374.08 500.266 1378.82 494.676 1383.46 489.205C1409.2 459.118 1437.92 432.823 1469.56 412.371C1536.14 369.351 1616.35 352.991 1695.24 371.12C1719.49 376.726 1743.32 385.341 1766.2 397.077C1862.43 445.791 1942.11 544.419 1973.29 658.986" stroke="#905AFF" stroke-width="2" stroke-miterlimit="10"/>
<path d="M-73.5931 750.474C-68.2219 662.939 -0.713774 585.646 79.4666 579.903C144.869 575.233 208.222 611.445 272.922 631.99C291.408 637.86 309.743 642.4 328.406 644.289C409.391 652.682 478.155 611.619 528.358 565.53C562.561 533.771 591.516 499.145 622.388 468.294C636.806 453.817 651.897 440.558 669.562 428.792C691.844 413.846 719.054 401.641 749.293 391.901C794.603 377.472 842.84 368.645 887.364 383.049C898.945 386.749 909.626 391.76 919.811 397.608C967.411 424.98 1004.49 476.069 1042.81 526.939C1048.77 535.007 1055.14 543.083 1061.84 551.285C1106.29 606.001 1155.73 659.355 1211.46 660.554C1220.92 660.717 1229.92 659.664 1238.15 657.512C1269.91 649.247 1294.41 625.65 1317.59 597.08C1336.13 574.225 1353.55 546.16 1372.38 522.706C1377.02 516.992 1381.65 511.278 1386.3 505.806C1412.05 475.953 1440.12 449.158 1471.55 428.214C1537.38 384.325 1617.17 367.229 1695.95 384.757C1720.19 390.122 1743.92 398.617 1766.8 410.114C1863.03 458.117 1942.51 556.525 1973.38 670.995" stroke="#905DFF" stroke-width="2" stroke-miterlimit="10"/>
<path d="M-70.5807 728.281C-62.7434 642.094 4.85673 566.955 84.6112 560.479C149.694 555.199 213.205 589.491 277.703 609.796C296.084 615.544 314.423 620.085 332.999 622.336C413.735 632.054 482.372 595.929 532.477 555.742C566.729 528.201 595.641 498.154 626.15 471.755C640.327 459.323 655.177 448.109 672.602 438.388C694.662 425.969 721.534 415.928 751.813 407.152C797.085 394.288 844.98 384.366 889.222 396.355C900.679 399.449 911.338 403.737 921.5 408.862C969.112 433.222 1007.24 481.083 1046.38 530.772C1052.53 538.604 1059.01 546.563 1065.6 554.644C1110.66 608.419 1158.36 662.601 1212.83 666.556C1222.1 667.198 1230.81 666.744 1239.05 665.075C1270.37 658.852 1295.18 637.909 1319.05 611.035C1338.07 589.631 1356.03 562.172 1374.98 538.835C1379.62 533.119 1384.26 527.646 1389.01 522.053C1414.67 492.312 1442.42 465.142 1473.32 443.821C1538.3 399.182 1617.87 381.353 1696.53 398.038C1720.78 403.163 1744.4 411.538 1767.28 422.796C1863.51 470.086 1942.9 568.396 1973.35 682.646" stroke="#8F5FFF" stroke-width="2" stroke-miterlimit="10"/>
<path d="M-67.6714 706.188C-57.3584 621.591 10.2169 548.243 89.6556 541.155C154.629 535.268 218.09 567.636 282.495 587.823C300.881 593.574 319.124 598.235 337.603 600.605C417.981 611.527 486.392 580.46 536.399 546.178C570.702 522.857 599.578 497.631 629.505 475.443C643.551 465.178 658.052 455.887 675.127 448.09C696.965 438.2 723.6 430.205 753.929 422.635C799.372 411.341 846.716 400.32 890.574 410.01C901.908 412.499 912.553 416.305 922.692 420.706C970.318 442.054 1009.61 486.807 1049.44 534.951C1055.8 542.547 1062.17 550.385 1068.96 558.231C1114.52 611.183 1160.48 666.194 1213.8 673.028C1222.88 674.15 1231.4 674.176 1239.56 673.108C1270.54 669.052 1295.76 650.647 1320.13 625.706C1339.62 605.753 1358.03 579.019 1377.21 555.921C1381.85 550.205 1386.49 544.73 1391.25 539.377C1416.82 509.747 1444.03 482.198 1474.61 460.504C1538.84 414.994 1618.2 396.433 1696.55 412.513C1720.69 417.517 1744.41 425.532 1767.19 436.671C1863.2 483.245 1942.72 581.462 1972.74 695.493" stroke="#8F61FF" stroke-width="2" stroke-miterlimit="10"/>
<path d="M-64.7752 683.852C-51.8842 600.727 15.7755 529.295 94.6876 521.592C159.341 515.093 222.86 545.658 287.164 565.486C305.446 571.115 323.803 575.9 342.084 578.509C422.315 590.639 490.287 564.629 540.408 536.259C574.651 517.038 603.593 496.518 633.056 478.906C646.861 470.687 661.121 463.443 678.057 457.574C699.564 450.092 725.97 444.386 756.34 437.781C801.844 427.934 848.848 415.817 892.22 423.327C903.431 425.211 914.053 428.292 924.179 432.211C971.918 450.426 1012.16 492.066 1052.8 539.028C1059.16 546.384 1065.84 554.109 1072.62 561.715C1118.91 613.847 1162.89 669.442 1215.18 679.28C1224.07 680.882 1232.39 681.387 1240.47 680.922C1270.9 679.03 1296.54 663.163 1321.6 639.919C1341.56 621.419 1360.53 595.291 1379.82 572.31C1384.57 566.715 1389.22 561.238 1393.86 555.761C1419.44 526.124 1446.23 498.319 1476.39 476.37C1539.87 429.99 1618.91 410.815 1697.04 426.169C1721.07 430.81 1744.8 438.828 1767.68 449.609C1863.69 495.47 1943.12 593.589 1972.72 707.401" stroke="#8E63FF" stroke-width="2" stroke-miterlimit="10"/>
<path d="M-61.7728 661.626C-46.5128 579.971 21.2316 510.454 99.9285 502.02C164.371 495.032 227.941 523.552 292.043 543.14C310.329 548.77 328.59 553.675 346.784 556.646C426.656 569.981 494.401 549.035 544.533 526.698C578.718 511.579 607.624 495.886 636.715 482.491C650.069 476.317 664.299 471.124 680.885 467.181C702.17 462.23 728.338 458.572 758.75 452.933C804.317 444.534 850.878 431.44 893.967 436.53C905.164 437.931 915.554 440.284 925.656 443.478C973.518 458.8 1014.71 497.084 1056.16 542.863C1062.72 549.983 1069.39 557.468 1076.18 565.076C1122.97 616.384 1165.31 672.691 1216.35 685.529C1224.94 687.731 1233.29 688.72 1241.18 688.735C1271.16 688.888 1297.2 675.562 1322.87 654.376C1343.31 637.329 1362.83 611.808 1382.23 588.944C1386.98 583.347 1391.63 577.869 1396.29 572.633C1421.77 543.106 1448.03 514.923 1477.97 492.481C1540.71 445.472 1619.42 425.439 1697.33 439.828C1721.36 444.228 1745.08 452.006 1767.86 462.667C1863.87 507.814 1943.1 605.713 1972.49 719.309" stroke="#8E65FF" stroke-width="2" stroke-miterlimit="10"/>
<path d="M-58.771 639.393C-40.9301 559.21 26.7983 491.729 105.07 482.56C169.193 474.961 232.923 501.557 296.933 521.027C315.224 526.659 333.38 531.442 351.486 534.775C431 549.315 498.518 533.435 548.764 517.016C582.991 505.882 611.761 495.137 640.379 486.081C653.492 481.956 667.371 478.69 683.827 476.918C704.89 474.5 730.719 473.011 761.172 468.337C806.701 461.506 853.021 447.196 895.516 449.981C906.591 450.775 917.067 452.526 927.046 455.115C975.022 467.3 1017.17 502.71 1059.43 547.065C1066.09 554.068 1072.76 561.313 1079.85 568.807C1127.37 619.295 1167.75 676.428 1217.74 692.032C1226.14 694.714 1234.19 696.303 1242.1 696.801C1271.64 699.001 1298.09 688.216 1324.36 669.089C1345.39 653.619 1365.35 628.582 1384.98 605.957C1389.63 600.478 1394.49 595.002 1399.04 589.642C1424.53 560.35 1450.37 531.668 1479.77 508.848C1541.76 460.968 1620.15 440.078 1697.86 453.982C1721.78 458.261 1745.5 465.799 1768.27 476.222C1864.18 520.532 1943.43 618.457 1972.4 731.833" stroke="#8D67FF" stroke-width="2" stroke-miterlimit="10"/>
<path d="M-55.8736 617.263C-35.5516 538.673 32.1525 472.987 110.108 463.205C174.021 455.116 237.701 479.784 301.61 498.894C319.897 504.286 337.965 509.432 355.975 512.884C435.342 528.634 502.422 517.819 552.68 507.441C586.849 500.412 615.474 494.376 643.837 489.907C656.608 487.951 670.348 486.616 686.555 486.652C707.286 486.646 732.987 487.33 763.381 483.742C809.081 478.483 854.74 462.948 896.96 463.553C907.911 463.741 918.365 464.767 928.322 466.631C976.412 475.677 1019.52 507.969 1062.69 551.022C1069.34 557.785 1076.32 564.916 1083.41 572.17C1131.44 621.834 1170.06 679.556 1218.8 698.163C1227.01 701.327 1234.87 703.396 1242.7 704.498C1271.68 708.864 1298.66 700.745 1325.51 683.195C1347.02 669.179 1367.54 644.75 1387.18 622.361C1391.94 617.003 1396.59 611.522 1401.25 606.283C1426.65 577.103 1451.95 548.041 1481.03 524.847C1542.27 476.095 1620.35 454.589 1697.84 467.768C1721.76 471.806 1745.37 478.981 1768.15 489.406C1863.95 533.121 1943.22 630.83 1971.76 743.986" stroke="#8D69FF" stroke-width="2" stroke-miterlimit="10"/>
<path d="M-52.8793 595.011C-30.083 517.774 37.715 454.248 115.245 443.73C178.838 435.029 242.68 457.77 306.496 476.763C324.788 482.156 342.752 487.18 360.674 490.995C439.683 507.951 506.528 501.966 556.807 497.873C591.026 495.075 619.498 493.509 647.498 493.506C659.918 493.478 673.425 494.435 689.493 496.404C710.103 498.814 735.465 501.669 765.8 499.167C811.562 495.359 856.881 478.725 898.717 477.026C909.544 476.607 919.984 477.15 929.918 478.288C978.123 484.195 1022.3 513.49 1066.16 555.236C1073.02 561.762 1080 568.653 1087.09 575.909C1135.84 624.752 1172.6 683.182 1220.19 704.677C1228.1 708.199 1235.88 710.872 1243.62 712.577C1272.16 718.992 1299.54 713.417 1327.01 697.928C1348.99 685.367 1369.96 661.665 1389.92 639.396C1394.69 634.037 1399.45 628.677 1404 623.314C1429.41 594.126 1454.29 564.808 1482.94 541.117C1543.33 491.611 1621.19 469.37 1698.46 481.823C1722.38 485.619 1745.89 492.674 1768.67 502.86C1864.47 545.86 1943.54 643.349 1971.77 756.409" stroke="#8C6BFF" stroke-width="2" stroke-miterlimit="10"/>
<path d="M-49.8879 572.754C-24.6077 497.111 43.1664 435.382 120.482 424.132C183.966 414.821 247.757 435.632 311.371 454.384C329.559 459.655 347.536 464.923 365.361 468.858C444.012 487.021 510.63 486.11 561.023 487.944C595.183 489.257 623.511 492.404 651.256 496.993C663.325 498.894 676.701 502.027 692.52 505.806C712.908 510.752 737.931 515.778 768.408 514.125C814.233 511.768 859.21 494.036 900.56 490.15C911.475 489.128 921.682 488.941 931.602 489.595C979.922 492.361 1025.05 518.535 1069.73 559.096C1076.69 565.505 1083.66 572.156 1090.96 579.175C1140.32 627.073 1175.22 686.212 1221.66 710.837C1229.38 714.84 1236.97 717.994 1244.63 720.303C1272.61 728.646 1300.42 725.858 1328.58 712.07C1351.04 700.966 1372.56 677.871 1392.64 655.72C1397.41 650.359 1402.17 644.998 1406.83 639.756C1432.14 610.68 1456.49 580.982 1484.93 557.039C1544.57 506.66 1622.22 483.683 1699.28 495.409C1723.09 499.084 1746.6 505.898 1769.37 515.845C1865.07 558.007 1944.15 655.521 1972.07 768.242" stroke="#8C6EFF" stroke-width="2" stroke-miterlimit="10"/>
<path d="M-46.9007 550.474C-19.0337 476.307 48.8266 416.499 125.616 404.631C188.89 394.83 252.632 413.709 316.146 432.101C334.339 437.374 352.211 442.52 369.949 446.818C448.453 466.193 514.634 470.354 565.04 478.237C599.243 483.543 627.215 491.404 654.706 500.587C666.534 504.541 679.668 509.727 695.247 515.559C715.412 523.044 740.197 530.124 770.616 529.558C816.403 528.772 861.039 509.939 902.005 503.747C912.796 502.118 922.989 501.446 932.777 501.252C981.102 500.751 1027.2 524.046 1072.68 563.179C1079.74 569.228 1086.92 575.884 1094.21 582.664C1144.18 629.616 1177.33 689.588 1222.63 717.103C1230.15 721.588 1237.45 725.343 1245.02 728.256C1272.56 738.649 1300.88 738.531 1329.54 726.683C1352.38 717.155 1374.56 694.55 1394.76 672.757C1399.64 667.518 1404.4 662.155 1408.85 656.909C1434.07 627.944 1458.1 597.869 1486.01 573.547C1544.9 522.295 1622.23 498.701 1699.07 509.7C1722.89 513.134 1746.39 519.708 1769.17 529.657C1864.87 571.104 1943.97 668.402 1971.36 781.023" stroke="#8B70FF" stroke-width="2" stroke-miterlimit="10"/>
<path d="M-44.0159 528.308C-13.6619 455.737 54.1749 397.727 130.648 385.245C193.603 374.83 257.506 391.781 320.928 410.054C339.126 415.329 356.902 420.596 374.544 425.013C452.69 445.597 518.643 454.838 569.164 468.654C603.308 478.075 631.228 490.293 658.473 504.315C669.84 510.076 682.952 517.563 698.181 525.327C718.124 535.351 742.679 544.728 773.03 545.007C818.99 545.797 863.065 525.618 903.655 517.361C914.323 515.124 924.493 513.725 934.267 513.046C982.708 509.401 1029.87 529.694 1076.06 567.518C1083.22 573.45 1090.5 579.746 1097.89 586.408C1148.48 632.658 1179.76 693.097 1223.8 723.623C1231.03 728.709 1238.24 732.826 1245.73 736.343C1272.82 748.789 1301.56 751.219 1330.81 741.193C1354.24 733.246 1376.86 711.126 1397.18 689.45C1402.06 684.209 1406.82 678.846 1411.39 673.72C1436.62 644.99 1460 614.412 1487.69 589.596C1545.73 537.589 1622.74 513.136 1699.37 523.407C1723.07 526.477 1746.58 533.052 1769.36 542.762C1864.96 583.613 1944.07 680.694 1971.04 793.095" stroke="#8B72FF" stroke-width="2" stroke-miterlimit="10"/>
<path d="M-41.0364 506.015C-8.20223 434.798 59.7295 378.952 135.777 365.733C198.522 354.827 262.478 369.725 325.699 387.758C343.792 392.91 361.683 398.301 379.135 403.201C456.923 424.994 522.642 439.075 573.184 459.189C607.269 472.727 635.036 489.424 661.925 508.164C673.05 515.981 685.82 525.642 701.011 535.223C720.621 547.664 745.048 559.22 775.441 560.469C821.465 562.712 865.097 541.552 905.403 530.866C915.948 528.021 926.096 525.895 935.848 524.489C984.404 517.697 1032.42 534.984 1079.63 571.383C1086.99 577.077 1094.37 583.257 1101.66 589.797C1152.87 635.101 1182.39 696.373 1225.28 729.792C1232.32 735.36 1239.44 740.082 1246.74 744.081C1273.38 758.58 1302.43 763.679 1332.4 755.599C1356.3 749.11 1379.38 727.718 1399.91 706.041C1404.79 700.798 1409.56 695.675 1414.02 690.426C1439.16 661.807 1462.12 630.971 1489.38 605.657C1546.66 552.775 1623.46 527.585 1699.77 537.248C1723.37 540.195 1746.98 546.411 1769.66 556C1865.15 596.012 1944.17 692.996 1970.83 805.3" stroke="#8A74FF" stroke-width="2" stroke-miterlimit="10"/>
<path d="M-38.0595 483.715C-2.73512 414.096 65.174 360.05 141.008 346.097C203.434 334.577 267.45 347.663 330.579 365.577C348.678 370.731 366.363 376.12 383.829 381.263C461.47 404.27 526.752 423.431 577.408 449.486C611.537 467.023 639.252 488.082 665.692 511.905C676.466 521.655 689.104 533.496 703.944 545.011C723.332 559.994 747.42 573.727 777.965 576.067C824.052 579.765 867.343 557.503 907.163 544.626C917.694 541.296 927.719 538.562 937.448 536.429C986.01 526.366 1035.1 540.648 1083.12 575.86C1090.48 581.313 1097.96 587.375 1105.56 593.801C1157.49 638.281 1185.04 700.142 1226.89 736.579C1233.63 742.506 1240.66 747.833 1247.89 752.437C1274.07 768.991 1303.54 776.64 1334.1 770.385C1358.49 765.355 1382.12 744.572 1402.78 723.254C1407.76 718.133 1412.43 712.885 1417 707.757C1442.15 679.13 1464.57 647.914 1491.41 622.343C1547.94 568.586 1624.42 542.778 1700.62 551.594C1724.22 554.299 1747.73 560.394 1770.4 569.743C1865.89 609.039 1944.83 705.925 1971.06 818.011" stroke="#8A76FF" stroke-width="2" stroke-miterlimit="10"/>
<path d="M-35.0876 461.401C2.82983 393.26 70.7248 341.258 146.134 326.566C208.451 314.435 272.419 325.585 335.347 343.258C353.342 348.291 371.141 353.804 388.409 359.187C465.694 383.404 530.748 407.654 581.419 439.77C615.489 461.429 643.262 486.976 669.135 515.518C679.658 527.083 692.063 541.224 706.764 554.677C725.929 572.204 749.779 587.995 780.265 591.425C826.315 596.697 869.365 573.214 908.7 558.145C919.108 554.206 929.11 550.744 938.825 548.125C987.605 534.793 1037.66 546.189 1086.39 580.089C1093.95 585.306 1101.43 591.126 1109.14 597.435C1161.78 640.849 1187.47 703.663 1228.06 743.116C1234.61 749.526 1241.45 755.335 1248.59 760.545C1274.33 779.153 1304.22 789.598 1335.38 785.167C1360.25 781.598 1384.43 761.424 1405.21 740.223C1410.2 735.1 1414.98 729.975 1419.43 724.722C1444.49 696.207 1466.49 664.732 1493.11 638.666C1548.79 584.153 1625.05 557.606 1701.04 565.693C1724.64 568.158 1748.14 574.011 1770.71 583.24C1866.1 621.695 1945.06 718.608 1970.97 830.355" stroke="#8978FF" stroke-width="2" stroke-miterlimit="10"/>
<path d="M-32.1214 439.073C8.17968 372.409 76.2635 322.212 151.256 307.024C213.254 294.278 277.385 303.495 340.222 321.049C358.221 326.083 375.815 331.594 393.097 337.221C470.133 362.773 534.843 391.747 585.536 430.172C619.548 455.953 647.48 485.871 672.896 519.259C683.168 532.64 695.239 549.201 709.69 564.471C728.632 584.543 752.244 602.393 782.671 606.913C828.895 613.764 871.283 589.051 910.444 571.673C920.728 567.125 930.708 562.935 940.3 559.708C989.086 543.1 1040.11 551.608 1089.76 584.2C1097.42 589.299 1105.11 594.882 1112.7 601.07C1165.86 643.656 1189.79 707.062 1229.22 749.413C1235.58 756.306 1242.23 762.598 1249.18 768.29C1274.47 788.955 1304.77 801.954 1336.53 799.349C1361.88 797.24 1386.62 777.676 1407.62 756.715C1412.61 751.591 1417.39 746.464 1421.86 741.453C1446.93 713.172 1468.39 681.074 1494.58 654.75C1549.51 599.361 1625.56 572.076 1701.24 579.554C1724.73 581.895 1748.13 587.385 1770.8 596.497C1866.09 634.355 1945.07 731.051 1970.55 842.578" stroke="#897AFF" stroke-width="2" stroke-miterlimit="10"/>
<path d="M-29.3701 416.73C13.5273 351.546 81.4876 303.271 156.165 287.467C217.953 274.228 282.036 281.508 344.773 298.701C362.879 303.617 380.377 309.249 397.461 315.116C474.242 341.76 538.623 375.946 589.431 420.321C623.486 450.109 651.375 484.639 676.223 522.751C686.254 538.192 698.082 556.814 712.293 574.144C730.911 596.881 754.284 616.791 784.855 622.163C831.143 630.471 873.189 604.654 911.864 585.081C922.024 579.924 931.991 575.248 941.56 571.292C990.353 551.408 1042.46 557.149 1092.81 588.187C1100.57 592.925 1108.35 598.39 1116.05 604.46C1169.94 646.221 1192.09 710.22 1230.17 755.709C1236.34 763.085 1242.8 769.861 1249.66 776.159C1274.5 798.639 1305.22 814.435 1337.59 813.9C1363.52 813.375 1388.82 794.421 1409.73 773.574C1414.83 768.572 1419.61 763.443 1424.08 758.431C1449.06 730.261 1470.09 697.904 1495.86 671.082C1550.03 614.816 1625.66 586.789 1701.22 593.417C1724.71 595.517 1748.01 600.885 1770.78 609.637C1866.07 646.777 1944.85 743.253 1970.02 854.684" stroke="#887CFF" stroke-width="2" stroke-miterlimit="10"/>
<path d="M-26.4118 394.386C18.9821 330.802 87.0301 284.455 161.383 267.792C222.853 253.937 287.098 259.282 349.635 276.233C367.637 281.027 385.038 286.78 402.136 292.891C478.559 320.747 542.916 359.79 593.535 410.476C627.633 444.273 655.69 483.42 679.759 526.257C689.538 543.515 701.133 564.441 715.094 583.589C733.379 608.751 756.624 630.846 787.136 637.309C833.488 647.074 875.082 620.03 913.381 598.385C923.519 592.498 933.362 587.212 942.808 582.647C991.607 559.485 1044.79 562.216 1096.05 591.943C1103.92 596.563 1111.69 601.787 1119.6 607.619C1174.1 648.433 1194.39 713.143 1231.42 761.657C1237.39 769.516 1243.56 776.895 1250.44 783.68C1274.83 808.219 1305.97 826.813 1338.94 827.864C1365.35 828.802 1391.1 810.577 1412.34 789.851C1417.34 784.967 1422.12 779.837 1426.59 774.823C1451.58 746.646 1472.08 713.907 1497.52 686.708C1550.96 629.807 1626.26 600.918 1701.6 606.817C1725.1 608.674 1748.39 613.801 1771.06 622.432C1866.24 658.731 1945.04 755.233 1969.79 866.444" stroke="#887FFF" stroke-width="2" stroke-miterlimit="10"/>
<path d="M-23.4595 372.031C24.5344 309.928 92.5697 265.629 166.498 248.225C227.759 233.878 292.058 237.163 354.505 253.996C372.512 258.791 389.919 264.545 406.819 270.897C482.995 300.09 547.016 344.108 597.751 400.75C631.791 438.677 659.906 482.322 683.618 529.893C693.155 549.213 704.407 572.321 718.228 593.412C736.29 621.123 759.195 645.401 789.75 652.836C836.066 664.178 877.318 636.03 915.333 611.948C925.458 605.575 935.169 599.436 944.702 594.265C993.61 567.703 1047.87 567.663 1099.85 596.077C1107.91 600.459 1115.8 605.565 1123.6 611.276C1178.82 651.264 1197.34 716.568 1233.02 768.224C1238.8 776.568 1244.77 784.43 1251.57 791.821C1275.51 818.42 1307.07 839.573 1340.64 842.695C1367.44 845.216 1393.85 827.482 1415.2 806.873C1420.2 801.988 1425.09 796.979 1429.57 791.964C1454.46 763.898 1474.53 730.901 1499.54 703.201C1552.23 645.422 1627.32 615.793 1702.35 621.081C1725.63 622.693 1749.03 627.701 1771.7 636.092C1866.78 671.792 1945.6 768.078 1970.14 879.074" stroke="#8781FF" stroke-width="2" stroke-miterlimit="10"/>
<path d="M-20.5148 349.659C29.9712 288.915 97.9939 246.664 171.608 228.643C232.66 213.802 296.912 215.146 359.26 231.617C377.163 236.29 394.474 242.166 411.498 248.886C487.418 279.173 551.112 328.412 601.861 391.134C635.844 433.193 664.127 481.462 687.16 533.643C696.556 554.906 707.355 580.074 720.934 603.229C738.773 633.49 761.439 659.832 791.937 668.36C838.427 681.284 879.228 651.907 916.757 625.627C926.758 618.643 936.346 611.894 945.967 606.117C994.883 576.272 1050.12 573.338 1103.01 600.441C1111.08 604.581 1119.16 609.45 1127.07 615.043C1182.81 654.201 1199.77 720.103 1234.19 774.783C1239.66 783.488 1245.66 792.08 1252.27 799.955C1275.86 828.496 1307.63 852.448 1342.02 857.403C1369.3 861.388 1396.26 844.265 1417.63 823.893C1422.75 819.129 1427.53 813.996 1432 808.979C1456.8 781.025 1476.45 747.526 1501.14 719.691C1553.07 661.034 1627.85 630.784 1702.67 635.341C1725.95 636.71 1749.34 641.477 1771.91 649.747C1867 684.729 1945.74 780.918 1969.85 891.695" stroke="#8783FF" stroke-width="2" stroke-miterlimit="10"/>
<path d="M-17.6746 327.392C79.3533 219.146 226.825 173.512 363.913 209.344C517.101 249.454 627.247 376.657 690.49 537.388C711.679 591.007 740.303 667.197 794.122 683.889C853.064 702.126 902.018 648.496 947.119 617.849C1003.48 579.752 1069.85 577.614 1130.43 618.685C1195.87 663.115 1205.6 745.653 1252.65 807.965C1275.79 838.568 1307.98 865.08 1342.86 871.986C1377.22 878.762 1411.04 851.804 1434.13 826.117C1458.94 798.398 1478.05 764.516 1502.42 736.061C1569.44 658.114 1676.92 629.021 1771.81 663.28C1866.79 697.42 1945.44 793.513 1969.24 904.193" stroke="#8685FF" stroke-width="2" stroke-miterlimit="10"/>
<path d="M-21.8127 342.937C27.2636 287.138 88.6964 246.591 155.73 224.453C221.302 202.776 292.339 198.657 361.048 215.723C413.348 228.627 460.947 252.123 503.15 284.502C543.071 315.023 577.867 353.096 607.354 396.415C629.496 428.935 648.468 464.433 664.979 502.072C671.858 517.714 678.22 533.711 684.278 550.067C691.629 570.205 700.036 593.393 710.514 615.404C728.294 653.065 752.337 688.649 786.615 699.546C823.666 711.218 857.501 694.091 888.209 672.058C906.345 659.028 923.365 644.28 939.954 632.315C955.003 621.657 970.661 613.315 986.733 607.768C1023.05 595.292 1061.53 596.195 1099.18 613.213C1106.37 616.369 1113.58 620.252 1120.59 624.617C1158.91 648.44 1179.53 685.785 1199.38 725.3C1213.45 753.437 1227.02 782.414 1246.82 808.345C1247.49 809.326 1248.26 810.188 1248.93 811.17C1272.13 840.676 1303.43 866.44 1337.46 873.088C1360.64 877.609 1383.62 867.208 1403.16 852.019C1413.24 844.187 1422.42 834.884 1430.23 825.679C1439.17 815.402 1447.23 804.139 1455.07 792.63C1469.04 772.13 1482.03 751.007 1497.11 731.981C1514.92 709.485 1535.7 690.557 1558.41 675.422C1600.32 647.517 1649.55 632.715 1699.79 634.91C1721.58 635.769 1743.48 640.026 1764.75 647.303C1772.98 650.234 1781.12 653.527 1789.07 657.302C1875.38 697.835 1944.67 789.501 1965.78 892.955" stroke="#8B88FB" stroke-width="2" stroke-miterlimit="10"/>
<path d="M-26.1628 209.381C23.0697 152.386 84.1061 110.023 151.055 85.9499C216.55 62.5792 288.347 56.535 357.748 72.7609C410.542 85.0644 458.753 108.324 501.512 141.796C541.659 173.041 576.277 212.315 604.742 256.82C626.067 290.288 644.003 326.488 659.369 364.705C665.831 380.579 671.778 396.808 677.42 413.395C684.363 434.007 692.354 457.425 702.525 479.789C719.785 517.796 743.763 554.705 778.463 565.85C815.622 577.885 850.073 560.53 880.554 538.256C898.676 524.986 915.574 509.877 931.93 497.425C946.747 486.281 962.072 477.571 977.793 471.171C1013.31 457.109 1050.97 456.178 1088.43 470.886C1095.6 473.555 1102.79 476.953 1109.9 480.955C1148.34 502.591 1170.26 538.132 1191.03 576.805C1205.81 604.341 1220.01 633.08 1239.91 658.885C1240.57 659.866 1241.34 660.728 1242.11 661.59C1265.52 691.093 1296.94 717.46 1331.17 724.109C1354.88 728.76 1378.37 718.25 1398.09 702.339C1408.26 694.147 1417.54 684.727 1425.45 675.162C1434.37 664.402 1442.51 652.78 1450.23 640.908C1464.07 619.804 1476.72 597.831 1491.34 577.832C1508.57 554.24 1528.46 534.089 1550.49 517.733C1591.15 487.51 1639.72 469.427 1690.85 470.061C1712.92 470.318 1735.33 474.219 1757.12 481.383C1765.45 484.193 1773.8 487.489 1781.96 491.267C1870.25 531.704 1941.3 626.047 1961.75 731.77" stroke="#8F8BF6" stroke-width="2" stroke-miterlimit="10"/>
<path d="M-30.4023 374.118C18.8852 316.046 79.6274 271.749 146.602 245.864C212.013 220.558 284.476 212.951 354.671 228.218C407.849 239.798 456.791 263.186 500.206 297.632C540.58 329.602 574.919 370.196 602.464 415.766C623.074 450.063 639.763 486.961 654.094 525.879C660.039 542.104 665.782 558.568 671.009 575.388C677.545 596.472 685.119 620.121 695.094 642.962C711.833 681.315 735.957 719.552 770.767 731.059C808.026 743.215 843.103 725.875 873.457 703.241C891.566 689.732 908.341 674.26 924.465 661.322C939.051 649.692 954.033 640.372 969.421 633.605C1004.24 618.079 1040.97 614.95 1078.35 627.472C1085.51 629.898 1092.68 632.809 1099.88 636.449C1138.45 655.901 1161.68 689.637 1183.36 727.469C1198.86 754.405 1213.67 782.905 1233.88 808.589C1234.65 809.45 1235.31 810.432 1236.08 811.293C1259.79 840.674 1291.03 867.759 1325.67 874.414C1350 879.075 1373.91 868.332 1393.93 852.067C1404.3 843.637 1413.46 833.854 1421.45 823.929C1430.46 812.809 1438.49 800.824 1445.98 788.466C1459.58 766.636 1471.88 743.813 1485.93 722.96C1502.5 698.393 1521.7 677.022 1543.04 659.204C1582.44 626.42 1630.37 605.3 1682.37 604.374C1704.74 604.03 1727.66 607.575 1749.97 614.625C1758.61 617.319 1767.07 620.738 1775.32 624.395C1865.71 664.86 1938.41 761.756 1958.09 869.624" stroke="#948DF2" stroke-width="2" stroke-miterlimit="10"/>
<path d="M-34.644 389.755C14.9097 330.61 75.0454 284.495 142.037 256.556C207.373 229.559 280.595 220.028 351.583 234.336C405.254 245.316 454.92 268.591 498.678 304.126C539.278 336.82 573.439 378.614 599.853 425.245C619.749 460.371 635.09 498.086 648.59 537.465C654.12 553.922 659.346 570.738 664.369 587.792C670.599 609.23 677.555 633.347 687.324 656.422C703.544 695.121 727.603 734.682 762.834 746.437C800.093 758.833 835.895 741.388 866.022 718.513C884.119 704.764 900.67 689.05 916.663 675.507C930.915 663.51 945.666 653.704 960.703 646.084C994.622 629.091 1030.64 624.013 1067.82 634.226C1074.96 636.166 1082.23 638.715 1089.41 641.868C1127.89 659.133 1152.53 691.189 1175.23 728.06C1191.44 754.397 1206.78 782.778 1227.29 808.34C1228.06 809.202 1228.73 810.183 1229.5 811.044C1253.52 840.545 1284.77 868.109 1319.4 874.763C1344.26 879.553 1368.68 868.7 1388.89 851.958C1399.36 843.411 1408.71 833.148 1416.58 822.86C1425.47 811.377 1433.48 798.909 1440.96 786.312C1454.32 763.755 1466.27 740.083 1479.87 718.501C1495.87 692.838 1514.19 670.245 1534.94 651.088C1573.19 615.869 1620.36 591.589 1673.04 589.1C1695.8 588.036 1719.13 591.345 1741.95 598.281C1750.81 600.978 1759.46 604.157 1767.93 608.06C1860.31 648.671 1934.66 747.877 1953.78 858.135" stroke="#9990EE" stroke-width="2" stroke-miterlimit="10"/>
<path d="M-38.9978 405.265C10.6109 345.045 70.4528 296.997 137.47 267.248C202.73 238.559 276.711 227.106 348.39 240.575C402.555 250.956 452.833 273.993 497.146 310.621C537.972 344.038 571.956 387.032 597.35 434.847C616.43 470.92 630.737 509.336 643.094 549.292C648.208 565.981 653.019 583.028 657.526 600.433C663.349 622.344 669.889 646.691 679.352 670.119C695.154 709.044 719.046 750.047 754.598 762.169C791.855 774.804 828.274 757.132 858.393 734.263C876.375 720.394 892.905 704.198 908.666 690.17C922.687 677.688 937.206 667.395 951.902 659.165C985.128 640.711 1020.22 633.437 1057.22 641.584C1064.33 643.039 1071.58 645.103 1078.75 648.013C1117.36 663.095 1143.2 693.468 1166.92 729.379C1183.85 755.116 1199.8 783.259 1220.52 808.819C1221.29 809.68 1221.96 810.661 1222.73 811.523C1247.06 840.901 1278.21 869.063 1313.15 875.842C1338.43 880.638 1363.48 869.799 1383.98 852.46C1394.53 843.553 1403.99 833.173 1411.95 822.525C1420.93 810.683 1428.82 797.853 1436.17 784.65C1449.39 761.248 1461 736.97 1474.03 714.292C1489.57 687.659 1507 663.844 1527.18 643.349C1564.16 605.571 1610.9 578.261 1664.25 574.209C1687.3 572.544 1711.14 575.498 1734.37 582.198C1743.32 584.775 1752.3 588.08 1760.97 591.742C1855.32 632.258 1931.43 734.138 1949.78 846.538" stroke="#9D93E9" stroke-width="2" stroke-miterlimit="10"/>
<path d="M-43.2418 420.895C6.52354 359.48 65.8696 309.739 132.904 277.937C198.081 247.316 272.618 234.179 345.31 246.936C399.968 256.718 450.867 279.761 495.726 317.238C536.677 351.499 570.483 395.692 594.96 444.57C613.325 481.471 626.388 520.583 637.711 561.241C642.411 578.161 646.807 595.439 651.008 613.198C656.315 635.459 662.66 660.282 671.816 684.062C686.99 723.211 711.028 765.54 746.79 777.905C784.047 790.78 821.191 773.003 851.184 749.774C869.154 735.666 885.561 719.108 901.2 704.718C914.998 691.992 929.066 680.967 943.522 672.008C975.845 652.089 1010.33 642.747 1047.13 648.588C1054.24 649.801 1061.47 651.378 1068.83 653.807C1107.46 666.827 1134.71 695.279 1159.34 730.35C1176.98 755.487 1193.56 783.393 1214.48 808.951C1215.25 809.812 1215.92 810.793 1216.69 811.654C1241.23 841.029 1272.39 869.912 1307.43 876.571C1333.33 881.377 1358.79 870.305 1379.59 852.611C1390.35 843.467 1399.68 832.724 1407.73 821.717C1416.69 809.393 1424.57 796.323 1431.8 782.758C1444.78 758.631 1456.04 733.504 1468.63 710.097C1483.49 682.488 1500.34 657.337 1519.63 635.62C1555.26 595.405 1601.45 564.942 1655.58 559.451C1679.02 557.067 1703.27 559.785 1727.02 566.371C1736.18 568.951 1745.25 572.135 1754.24 575.924C1850.68 616.467 1928.45 720.897 1946.13 835.563" stroke="#A296E5" stroke-width="2" stroke-miterlimit="10"/>
<path d="M-47.4995 436.277C2.32096 373.787 61.3739 322.115 128.333 288.624C193.435 256.313 268.73 241.255 342.113 253.174C397.264 262.357 448.783 285.406 494.298 323.855C535.475 358.838 569.105 404.23 592.663 454.171C610.315 491.9 622.243 531.832 632.424 573.066C636.608 590.336 640.699 607.969 644.477 625.717C649.378 648.45 655.307 673.502 664.259 697.516C678.914 737.01 702.887 780.661 738.97 793.392C776.327 806.388 814.094 788.626 843.861 765.156C861.927 750.932 878.001 734.009 893.51 719.014C907.077 705.803 920.913 694.292 934.927 684.843C966.558 663.464 1000.01 652.048 1036.73 655.706C1043.82 656.433 1051.14 657.649 1058.38 659.711C1097.03 670.428 1125.69 697.202 1151.23 731.433C1169.59 755.972 1186.79 783.64 1207.92 809.195C1208.69 810.056 1209.35 811.037 1210.12 811.898C1234.86 841.27 1266.15 870.754 1301.39 877.415C1327.82 882.35 1353.79 871.169 1374.88 852.879C1385.63 843.495 1395.26 832.396 1403.3 821.149C1412.25 808.585 1420.01 794.911 1427.22 780.864C1439.96 756.011 1450.87 730.037 1462.99 705.658C1477.29 676.956 1493.25 650.584 1511.96 627.53C1546.44 584.883 1591.88 551.265 1646.89 544.216C1670.62 541.232 1695.37 543.595 1719.64 550.067C1729.01 552.651 1738.29 555.838 1747.38 559.506C1845.91 600.077 1925.22 706.933 1942.35 823.985" stroke="#A799E1" stroke-width="2" stroke-miterlimit="10"/>
<path d="M-51.747 451.89C-1.76991 388.207 56.7793 334.6 123.764 299.302C188.893 265.183 264.845 248.324 338.919 259.404C394.555 267.746 446.804 290.924 492.662 330.46C534.066 366.167 567.518 412.756 590.058 463.88C606.895 502.555 617.681 543.063 626.83 584.997C630.6 602.499 634.276 620.362 637.75 638.464C642.244 661.67 647.758 686.951 656.514 711.441C670.65 751.281 694.66 796.133 730.961 809.35C768.318 822.585 806.709 804.838 836.452 780.889C854.505 766.426 870.457 749.141 885.734 733.662C898.968 720.085 912.464 707.965 926.238 697.788C956.968 674.945 989.704 661.34 1026.24 662.936C1033.31 663.178 1040.61 663.909 1047.94 665.609C1086.61 674.265 1116.69 699.363 1143.24 732.635C1162.31 756.575 1180.02 783.883 1201.36 809.436C1202.13 810.297 1202.89 811.158 1203.67 812.261C1228.72 841.51 1259.81 871.712 1295.47 878.379C1322.42 883.443 1348.9 871.91 1370.19 853.385C1381.13 843.765 1390.76 832.426 1398.78 820.697C1407.71 807.651 1415.56 793.619 1422.55 779.329C1435.15 753.632 1445.72 727.052 1457.28 701.822C1471.01 672.027 1486.19 644.558 1504.21 620.043C1537.43 574.842 1582.23 538.194 1638.12 529.587C1662.14 526.004 1687.41 528.012 1712.19 534.371C1721.66 536.834 1731.15 540.024 1740.45 543.696C1840.95 584.171 1922.02 693.697 1938.38 812.889" stroke="#AC9CDC" stroke-width="2" stroke-miterlimit="10"/>
<path d="M-55.9965 467.499C-5.96424 402.742 52.191 347.326 119.303 310.102C184.247 274.172 260.965 255.635 335.831 265.759C391.959 273.502 444.93 296.566 491.232 337.07C532.862 373.499 566.035 421.404 587.549 473.468C603.673 512.969 613.326 554.296 621.436 596.687C624.79 614.42 628.052 632.514 631.112 650.847C635.2 674.525 640.3 700.035 648.749 724.877C662.469 764.943 686.422 811.358 723.035 824.699C760.5 838.296 799.506 820.322 829.132 796.255C847.172 781.553 863.112 764.031 877.946 748.063C891.059 734.124 904.214 721.396 917.538 710.487C947.467 686.062 979.496 670.511 1015.94 669.926C1023 669.926 1030.28 670.173 1037.6 671.388C1076.3 677.985 1107.77 701.164 1135.24 733.596C1155.02 756.938 1173.25 784.127 1194.9 809.559C1195.66 810.42 1196.43 811.28 1197.31 812.264C1222.56 841.511 1253.77 872.312 1289.42 878.978C1316.79 884.048 1343.9 872.529 1365.47 853.408C1376.62 843.551 1386.12 831.85 1394.34 819.643C1403.36 806.239 1411.08 791.844 1418.05 777.073C1430.42 750.651 1440.64 723.225 1451.64 697.143C1464.7 666.375 1479.09 637.567 1496.53 611.717C1528.61 564.085 1572.76 524.166 1629.22 514.119C1653.63 509.817 1679.3 511.589 1704.6 517.835C1714.28 520.301 1723.98 523.495 1733.49 527.169C1836.07 567.671 1918.69 679.862 1934.49 801.197" stroke="#B09ED8" stroke-width="2" stroke-miterlimit="10"/>
<path d="M-60.3598 482.978C-10.1707 417.028 47.5912 359.802 114.62 320.649C179.59 282.912 256.965 262.576 332.632 271.985C389.253 279.131 442.835 301.959 489.691 343.553C531.547 380.703 564.544 429.806 585.04 483.05C600.452 523.378 608.762 565.52 615.941 608.49C618.882 626.454 621.73 644.779 624.485 663.466C628.167 687.616 632.751 713.475 640.996 738.55C654.198 778.961 678.187 826.577 715.019 840.402C752.484 854.239 792.105 836.038 821.614 811.853C839.641 796.913 855.358 779.148 870.062 762.577C882.945 748.153 895.768 735.059 908.852 723.422C937.989 697.658 969.192 679.797 1005.45 677.152C1012.5 676.667 1019.76 676.429 1027.27 677.405C1065.89 681.821 1098.87 703.206 1127.26 734.799C1147.75 757.543 1166.6 784.495 1188.45 809.925C1189.22 810.785 1190.09 811.768 1190.86 812.629C1216.32 841.873 1247.44 873.271 1283.5 879.942C1311.49 885.023 1339.01 873.513 1360.88 853.797C1372.12 843.581 1381.82 831.644 1390.03 819.197C1398.93 805.431 1406.63 790.555 1413.48 775.422C1425.61 748.276 1435.38 720.121 1446.14 693.073C1458.63 661.213 1472.24 631.309 1489 604.243C1519.82 554.058 1563.33 511.112 1620.67 499.509C1645.37 494.608 1671.65 495.906 1697.37 502.158C1707.25 504.627 1717.05 507.701 1726.77 511.377C1831.44 551.907 1915.6 666.521 1930.73 790.117" stroke="#B5A1D4" stroke-width="2" stroke-miterlimit="10"/>
<path d="M-64.6129 498.574C-14.3686 431.551 43 372.517 110.156 331.439C175.052 292.016 253.075 269.639 329.642 278.215C386.755 284.763 440.957 307.596 488.358 350.037C530.44 387.91 563.26 438.208 582.739 492.633C597.338 533.906 604.616 576.747 610.656 620.292C613.081 638.606 615.515 657.162 618.067 676.083C621.234 700.581 625.623 726.916 633.563 752.343C646.247 793.098 670.171 842.034 707.425 856.105C744.99 870.062 785.233 851.876 814.617 827.332C832.631 812.152 848.007 793.781 862.7 776.972C875.469 762.428 887.834 748.362 900.476 736.236C928.924 709.014 959.201 688.963 995.276 684.258C1002.3 683.29 1009.55 682.809 1017.15 683.182C1055.79 685.54 1090.07 705.127 1119.47 735.763C1140.68 757.909 1160.14 784.623 1182.2 810.051C1182.97 810.911 1183.84 811.894 1184.61 812.754C1210.38 841.876 1241.51 873.994 1277.56 880.664C1306.08 885.873 1334.11 874.012 1356.17 853.819C1367.5 843.486 1377.29 831.191 1385.48 818.263C1394.48 804.138 1402.06 788.9 1408.89 773.287C1420.89 745.54 1430.31 716.539 1440.4 688.517C1452.32 655.566 1465.26 624.447 1481.23 596.043C1510.81 543.549 1553.77 497.457 1611.88 484.177C1636.97 478.557 1663.66 479.621 1689.89 485.759C1699.98 488.231 1709.99 491.308 1719.81 494.864C1826.45 535.298 1912.37 652.579 1926.74 778.553" stroke="#BAA4CF" stroke-width="2" stroke-miterlimit="10"/>
<path d="M-68.9807 514.033C-18.47 445.942 38.3964 384.977 105.469 341.971C170.291 300.862 249.072 276.568 326.329 284.307C383.935 290.257 438.858 312.978 486.712 356.627C529.019 395.221 561.663 446.715 580.126 502.321C594.013 544.419 600.051 587.955 605.06 632.199C607.072 650.744 609.202 669.654 611.23 688.682C613.992 713.652 617.967 740.215 625.601 765.994C637.768 807.095 661.627 857.349 699.091 871.664C736.656 885.859 777.624 867.569 806.781 842.785C824.783 827.367 840.155 809 854.608 791.464C867.037 776.313 879.18 762.004 891.583 749.151C919.131 720.468 948.802 698.354 984.684 691.349C991.691 689.897 999.034 689.055 1006.51 689.062C1045.17 689.364 1080.86 707.035 1111.17 736.833C1133.09 758.382 1153.17 784.859 1175.44 810.284C1176.2 811.144 1177.08 812.127 1177.85 812.987C1203.93 842.229 1234.96 874.701 1271.32 881.496C1300.37 886.834 1328.91 874.864 1351.16 854.195C1362.69 843.626 1372.47 831.091 1380.75 817.805C1389.84 803.322 1397.3 787.723 1403.9 771.625C1415.76 743.035 1424.74 713.307 1434.38 684.558C1445.63 650.635 1457.78 618.178 1473.18 588.44C1501.49 533.396 1543.82 484.279 1602.71 469.563C1628.08 463.345 1655.28 464.055 1681.92 469.957C1692.21 472.19 1702.43 475.269 1712.46 479.071C1821.19 519.532 1908.76 639.356 1922.47 767.59" stroke="#BEA7CB" stroke-width="2" stroke-miterlimit="10"/>
<path d="M-73.1393 529.505C-22.5732 460.342 34.0016 397.451 101.101 352.641C165.84 309.606 245.284 283.757 323.333 290.541C381.321 295.771 437.073 318.5 485.371 363.115C527.904 402.43 560.27 455.238 577.818 511.904C590.994 554.827 595.901 599.18 599.872 643.88C601.47 662.656 603.086 681.915 604.911 701.178C607.267 726.619 610.829 753.411 618.267 779.664C630.018 820.99 653.813 872.563 691.596 887.242C729.16 901.677 770.852 883.282 799.892 858.381C817.881 842.724 833.132 823.997 847.354 805.977C859.452 790.461 871.465 775.549 883.419 761.965C910.277 731.826 939.023 707.524 974.72 698.461C981.716 696.767 989.041 695.442 996.711 694.969C1035.4 693.215 1072.48 708.971 1103.81 737.812C1126.54 758.644 1147.04 785.122 1169.71 810.307C1170.47 811.167 1171.35 812.15 1172.12 813.01C1198.4 842.248 1229.46 875.439 1266.01 881.994C1295.58 887.461 1324.63 875.14 1347.17 854.118C1358.8 843.19 1368.67 830.297 1376.94 816.771C1385.9 801.927 1393.45 785.728 1400.04 769.392C1411.66 740.079 1420.29 709.505 1429.47 679.787C1440.16 644.774 1451.53 611.223 1466.14 580.147C1493.2 522.555 1534.98 470.295 1594.65 454.145C1620.31 447.087 1648.02 447.684 1675.18 453.473C1685.68 455.709 1696.11 458.791 1706.24 462.473C1817.04 502.961 1906.26 625.327 1919.2 755.695" stroke="#C3AAC6" stroke-width="2" stroke-miterlimit="10"/>
<path d="M-77.4018 545.073C-26.6788 474.719 29.4026 410.141 96.5202 363.287C161.185 318.567 241.387 290.802 320.125 296.75C378.605 301.383 434.968 323.877 483.819 369.58C526.578 409.616 558.768 463.618 575.292 521.221C587.656 565.088 591.424 610.017 594.366 655.414C595.551 674.42 596.753 693.91 598.166 713.403C600.117 739.315 603.264 766.336 610.397 792.941C621.522 834.489 645.362 887.502 683.465 902.547C721.029 917.22 763.334 898.599 792.359 873.461C810.445 857.689 825.574 838.601 839.456 819.975C851.433 804.097 862.896 788.574 874.62 774.506C900.68 742.788 928.509 716.541 964.122 705.302C971.1 703.125 978.406 701.315 986.066 700.601C1024.78 696.792 1063.16 710.753 1095.5 738.638C1119.05 758.996 1140.06 785.114 1162.82 810.174C1163.7 811.157 1164.47 812.016 1165.34 812.999C1191.93 842.115 1222.9 875.902 1259.66 882.701C1289.74 888.055 1319.32 875.866 1342.15 854.25C1353.88 843.206 1363.84 829.954 1372.09 815.947C1381.14 800.745 1388.57 784.185 1394.94 767.365C1406.32 737.329 1414.71 706.032 1423.33 675.465C1433.56 639.484 1444.04 604.717 1457.96 572.185C1483.89 512.167 1524.92 456.763 1585.36 439.179C1611.31 431.523 1639.53 431.766 1667.2 437.441C1677.91 439.681 1688.44 442.643 1698.78 446.328C1811.55 486.721 1902.42 611.627 1914.81 744.375" stroke="#C8ADC2" stroke-width="2" stroke-miterlimit="10"/>
<path d="M-81.7773 560.522C-30.8976 488.978 24.7918 422.594 91.9361 373.938C156.629 327.416 237.485 297.855 317.022 303.091C375.995 307.127 433.078 329.507 482.372 376.175C525.458 416.812 557.371 472.128 572.88 530.91C584.642 575.723 587.061 621.223 588.975 667.318C589.646 686.674 590.536 706.275 591.645 726.121C593.082 752.381 595.925 779.753 602.854 806.59C613.564 848.364 637.448 902.816 675.761 918.103C713.535 933.019 756.353 914.29 785.153 888.912C803.226 872.902 818.133 853.572 831.885 834.344C843.631 817.983 854.864 801.975 866.139 787.178C891.41 754.123 918.525 725.694 953.945 712.158C960.904 709.497 968.301 707.327 975.942 706.128C1014.68 700.266 1054.46 712.314 1087.71 739.362C1111.97 759.123 1133.49 784.882 1156.57 810.062C1157.45 811.045 1158.21 811.904 1159.09 812.886C1185.88 842 1216.86 876.505 1253.93 883.187C1284.54 888.67 1314.62 876.13 1337.75 854.161C1349.68 842.881 1359.63 829.39 1367.97 815.026C1377.11 799.466 1384.42 782.545 1390.77 765.245C1402.01 734.367 1409.95 702.344 1418.02 670.928C1427.58 633.977 1437.27 597.874 1450.73 564.132C1475.4 501.568 1515.79 443.143 1577.01 423.884C1603.24 415.63 1631.97 415.519 1660.16 421.082C1670.97 423.202 1681.81 426.29 1692.36 429.977C1807.21 470.397 1899.72 597.843 1911.35 732.724" stroke="#CCAFBE" stroke-width="2" stroke-miterlimit="10"/>
<path d="M-86.047 576.078C-35.1112 503.464 20.0774 435.152 87.2489 384.695C151.758 336.367 233.271 305.011 313.709 309.416C373.173 312.855 430.976 335.122 480.722 382.997C524.034 424.354 555.67 480.983 570.266 540.823C581.318 586.461 582.507 632.897 583.384 679.448C583.752 699.156 584.018 718.984 584.925 739.064C585.957 765.795 588.496 793.518 595.12 820.707C605.314 862.825 629.134 918.594 667.767 934.246C705.541 949.4 749.081 930.567 777.757 904.831C795.717 888.701 810.603 868.892 824.125 849.18C835.54 832.455 846.543 815.963 857.579 800.44C882.162 765.93 908.354 735.316 943.589 719.725C950.53 716.581 957.917 714.169 965.54 712.487C1004.3 704.571 1045.48 714.707 1079.64 740.919C1104.61 760.084 1126.75 785.606 1150.04 810.785C1150.91 811.767 1151.68 812.626 1152.65 813.489C1179.65 842.6 1210.75 877.704 1247.81 884.384C1278.94 889.996 1309.55 877.347 1332.86 854.903C1344.88 843.264 1354.93 829.657 1363.25 814.812C1372.27 798.891 1379.56 781.49 1385.79 763.829C1396.79 732.229 1404.39 699.361 1412.11 667.1C1421.1 629.059 1430.02 591.863 1442.79 556.667C1466.22 491.798 1506.17 430.115 1568.06 409.301C1594.68 400.33 1623.82 399.985 1652.52 405.434C1663.54 407.558 1674.48 410.526 1685.23 414.216C1802.06 454.54 1896.33 584.648 1907.29 721.785" stroke="#D1B2B9" stroke-width="2" stroke-miterlimit="10"/>
<path d="M-90.4305 591.504C-39.3376 517.7 15.4599 447.584 82.6587 395.326C147.095 345.315 229.365 312.047 310.491 315.617C370.339 318.337 428.861 340.491 479.16 389.452C522.808 431.653 554.158 489.351 567.74 550.37C577.982 596.951 578.033 643.961 577.883 691.209C577.838 711.148 577.691 731.206 578.185 751.516C578.812 778.717 580.939 806.669 587.258 834.21C596.936 876.672 620.792 933.638 659.636 949.532C697.41 964.924 741.673 945.987 770.232 920.134C788.18 903.766 802.945 883.597 816.236 863.402C827.532 846.315 838.195 829.218 848.783 812.965C872.468 776.997 897.947 744.203 932.997 726.558C939.928 723.172 947.289 720.036 955.112 718.116C993.9 708.148 1036.48 716.372 1071.54 741.749C1097.23 760.317 1119.98 785.602 1143.47 810.779C1144.35 811.761 1145.12 812.62 1146.09 813.483C1173.4 842.472 1204.31 878.29 1241.78 884.977C1273.53 890.598 1304.55 877.959 1328.16 854.921C1340.27 843.165 1350.4 828.959 1358.71 813.875C1367.83 797.597 1375 779.835 1381.1 761.813C1391.87 729.49 1399.23 695.901 1406.28 662.669C1414.71 623.539 1422.84 585.008 1434.84 548.719C1457.01 481.306 1496.32 416.604 1558.99 394.358C1585.9 384.79 1615.54 384.091 1644.76 389.427C1655.99 391.554 1667.14 394.525 1678.1 398.218C1797.01 438.57 1892.71 571.211 1903.22 710.606" stroke="#D6B5B5" stroke-width="2" stroke-miterlimit="10"/>
<path d="M-94.7058 607.051C-43.5569 532.177 10.9507 460.139 78.0673 405.958C142.532 354.147 225.456 319.086 307.373 321.702C367.813 323.707 426.853 345.986 477.696 395.792C521.569 438.712 552.744 497.603 565.313 559.799C574.844 607.203 573.768 655.029 572.582 702.732C572.124 722.901 571.565 743.188 571.756 763.852C571.979 791.523 573.692 819.703 579.817 847.718C589.08 890.405 612.77 948.805 651.933 965.064C689.707 980.695 734.592 961.773 763.027 935.561C780.962 918.955 795.614 898.667 808.777 877.871C819.741 860.42 830.065 842.716 840.314 825.857C863.312 788.436 887.867 753.458 922.734 733.76C929.646 729.892 936.997 726.514 944.802 724.111C983.615 712.093 1027.6 718.648 1063.68 743.07C1090.07 761.042 1113.34 786.21 1137.14 811.266C1138.01 812.247 1138.88 812.987 1139.76 813.969C1167.27 842.955 1198.29 879.371 1235.86 885.937C1268.03 891.565 1299.66 878.697 1323.56 855.307C1335.87 843.316 1346 828.871 1354.4 813.43C1363.49 796.672 1370.76 778.553 1376.63 760.048C1387.26 726.884 1394.17 692.57 1400.77 658.371C1408.53 618.272 1415.99 578.53 1427.3 540.787C1448.22 470.83 1486.89 403.112 1550.44 379.315C1577.74 369.032 1607.79 368.098 1637.52 373.321C1648.85 375.328 1660.2 378.302 1671.38 381.998C1792.36 422.377 1889.71 557.555 1899.45 699.081" stroke="#DBB8B1" stroke-width="2" stroke-miterlimit="10"/>
<path d="M-98.9843 622.589C-47.6783 546.527 6.33766 472.806 73.5827 416.706C137.974 363.215 221.655 326.242 304.261 328.024C365.192 329.434 424.951 351.6 476.238 402.368C520.337 446.007 551.235 506.21 562.782 569.341C571.605 617.568 569.291 666.086 567.078 714.486C566.107 735.004 565.245 755.645 565.015 776.296C564.724 804.315 566.134 832.846 571.954 861.211C580.702 904.243 604.328 963.958 643.81 980.581C681.685 996.331 727.082 977.302 755.502 950.854C773.425 934.009 787.956 913.362 800.889 892.083C811.733 874.272 821.718 855.962 831.628 838.497C853.729 799.619 877.572 762.463 912.355 740.593C919.25 736.243 926.691 732.505 934.477 729.619C973.316 715.55 1018.79 720.076 1055.68 743.782C1082.88 761.04 1106.68 786.09 1130.68 811.144C1131.55 812.126 1132.53 812.988 1133.29 813.847C1161.12 842.953 1192.05 879.722 1229.82 886.532C1262.51 892.288 1294.66 879.312 1318.85 855.327C1331.25 842.978 1341.47 828.417 1349.96 812.377C1359.05 795.381 1366.29 776.782 1372.05 757.917C1382.44 724.032 1389 688.874 1395.15 653.95C1402.35 612.763 1409.03 571.929 1419.66 532.734C1439.44 460.357 1477.36 389.5 1541.68 364.273C1569.27 353.393 1599.83 352.106 1630.08 357.216C1641.61 359.226 1653.18 362.203 1664.45 365.779C1787.4 406.063 1886.5 543.899 1895.58 687.677" stroke="#DFBBAC" stroke-width="2" stroke-miterlimit="10"/>
<path d="M-103.28 637.876C-51.9179 560.744 1.80863 485.103 68.9717 427.082C133.282 371.67 217.516 333.024 301.131 334.099C362.554 334.913 423.031 356.966 474.761 408.697C519.086 453.055 549.809 514.449 560.444 578.637C568.558 627.686 565.117 677.02 561.768 725.993C560.385 746.741 559.111 767.612 558.578 788.616C557.883 817.104 558.989 845.986 564.396 874.58C572.729 917.836 596.291 978.865 636.093 995.852C673.967 1011.84 720.086 992.707 748.282 966.02C766.301 949.06 780.501 928.05 793.304 906.17C803.919 887.875 813.574 869.202 823.137 850.889C844.551 810.559 867.472 771.221 902.071 747.301C908.947 742.468 916.379 738.489 924.256 735.243C963.12 719.125 1009.89 721.861 1047.79 744.613C1075.7 761.275 1100.11 786.089 1124.21 811.019C1125.08 812 1126.06 812.862 1126.83 813.721C1154.95 842.705 1185.8 880.31 1223.88 887.003C1257.09 892.887 1289.74 879.561 1314.03 855.221C1326.63 842.637 1336.94 827.718 1345.41 811.44C1354.48 793.964 1361.6 775.006 1367.34 755.661C1377.61 721.178 1383.82 685.176 1389.31 649.282C1395.94 607.008 1401.73 564.96 1411.79 524.435C1430.22 449.636 1467.7 375.527 1532.69 348.747C1560.57 337.271 1591.63 335.631 1622.29 340.505C1634.13 342.4 1645.79 345.257 1657.28 349.077C1782.31 389.388 1883.05 529.758 1891.37 675.665" stroke="#E4BEA8" stroke-width="2" stroke-miterlimit="10"/>
<path d="M-107.564 653.402C-55.9353 575.205 -2.80872 497.758 64.4836 437.821C128.721 380.729 213.713 340.172 298.016 340.414C359.931 340.633 421.019 362.45 473.309 415.509C517.86 460.586 548.408 523.171 558.032 588.536C565.336 638.527 560.759 688.434 556.385 738.104C554.59 759.082 552.803 780.301 551.958 801.416C550.751 830.252 551.554 859.485 556.766 888.552C564.794 932.156 588.191 994.618 628.203 1011.85C666.078 1028.07 712.919 1008.84 740.999 982.032C759.007 964.834 773.195 943.586 785.659 921.102C796.053 902.566 805.361 883.045 814.695 864.249C835.213 822.464 857.423 780.949 891.839 754.978C898.595 749.782 906.109 745.202 914.078 741.596C953.077 723.552 1001.13 724.257 1039.94 746.174C1068.56 762.242 1093.59 786.82 1117.89 811.748C1118.77 812.729 1119.74 813.591 1120.62 814.572C1148.95 843.553 1179.81 881.633 1218.09 888.328C1251.92 894.223 1284.99 880.906 1309.56 855.973C1322.15 843.15 1332.55 827.874 1341.12 811.238C1350.28 793.405 1357.28 774.087 1362.9 754.382C1372.93 719.178 1378.7 682.451 1383.94 645.595C1389.9 602.352 1395.02 559.095 1404.4 517.359C1421.7 440.142 1458.54 363.019 1524.3 334.568C1552.57 322.376 1584.04 320.503 1615.21 325.264C1627.15 327.039 1639.13 330.022 1650.71 333.723C1777.82 374.061 1880.1 516.843 1887.86 665.124" stroke="#E9C0A4" stroke-width="2" stroke-miterlimit="10"/>
<path d="M-111.967 668.793C-60.2813 589.528 -7.44348 510.162 59.7672 448.305C124.033 389.415 209.679 347.069 294.671 346.478C356.969 345.979 418.783 367.925 471.617 421.826C516.394 467.622 546.666 531.516 555.379 597.937C561.974 648.75 556.17 699.591 550.762 749.715C548.555 770.922 546.356 792.372 545.209 813.839C543.598 843.144 543.989 872.605 548.998 901.904C556.402 945.729 579.944 1009.51 620.276 1027.1C658.261 1043.69 705.714 1024.22 733.67 997.061C751.666 979.626 765.733 958.018 777.967 935.052C788.132 916.033 797.11 896.149 805.996 876.626C825.829 833.389 847.117 789.695 881.45 761.555C888.298 756 895.692 751.057 903.642 746.968C942.776 726.999 992.12 725.675 1031.84 746.758C1061.17 762.23 1086.6 786.569 1111.42 811.379C1112.29 812.36 1113.27 813.222 1114.14 814.202C1142.78 843.062 1173.55 881.978 1212.04 888.675C1246.4 894.698 1279.87 881.15 1304.84 855.746C1317.63 842.688 1328.02 827.174 1336.57 810.059C1345.71 791.988 1352.7 772.191 1358.19 751.885C1368.08 715.841 1373.4 678.39 1378.09 640.688C1383.49 596.358 1387.93 551.892 1396.53 508.824C1412.57 429.067 1448.78 348.933 1515.31 319.053C1543.87 306.266 1575.85 304.039 1607.53 308.688C1619.68 310.466 1631.76 313.329 1643.55 317.032C1772.62 357.276 1876.65 502.712 1883.76 653.243" stroke="#EDC39F" stroke-width="2" stroke-miterlimit="10"/>
<path d="M-116.259 684.302C-64.4161 603.85 -11.9675 522.684 55.2714 459.031C166.358 354.011 344.194 298.535 470.147 428.387C515.149 474.9 545.247 539.985 552.839 607.459C558.726 659.094 551.688 710.627 545.356 761.327C538.922 812.147 533.263 864.065 541.244 915.495C548.134 959.664 571.612 1024.76 612.154 1042.59C650.24 1059.3 698.314 1039.85 726.046 1012.44C758.867 980.303 778.175 934.17 797.213 889.36C816.252 844.551 836.628 798.919 870.878 768.612C911.142 732.977 974.689 723.449 1023.76 747.826C1054.86 763.206 1081.8 788.53 1107.59 814.438C1136.44 843.296 1167.33 882.808 1205.9 889.385C1240.68 895.414 1274.87 881.76 1300.03 855.883C1326.71 828.463 1343.03 789.882 1353.52 750.115C1374.49 670.098 1373.9 583.314 1388.8 501.141C1403.71 418.968 1439.17 335.7 1506.58 304.273C1546.49 285.649 1593.32 287.781 1636.75 301.2C1767.9 341.471 1873.57 489.439 1879.91 642.097" stroke="#F2C69B" stroke-width="2" stroke-miterlimit="10"/>
</g>
<path d="M754.134 345.721L753.355 343.302L747.738 347.381L754.134 345.721Z" fill="#1E1E1E"/>
<line x1="1583.5" y1="435.5" x2="1583.5" y2="645.5" stroke="url(#paint4_linear_3001_891)"/>
<line x1="1688" y1="541" x2="1478" y2="541" stroke="url(#paint5_linear_3001_891)"/>
<line x1="227" y1="192" x2="227" y2="369" stroke="url(#paint6_linear_3001_891)"/>
<line x1="315" y1="281" x2="138" y2="281" stroke="url(#paint7_linear_3001_891)"/>
</g>
<defs>
<filter id="filter0_f_3001_891" x="-632.457" y="78.2532" width="3087.2" height="1390.41" filterUnits="userSpaceOnUse" color-interpolation-filters="sRGB">
<feFlood flood-opacity="0" result="BackgroundImageFix"/>
<feBlend mode="normal" in="SourceGraphic" in2="BackgroundImageFix" result="shape"/>
<feGaussianBlur stdDeviation="123.873" result="effect1_foregroundBlur_3001_891"/>
</filter>
<linearGradient id="paint0_linear_3001_891" x1="368.5" y1="271" x2="368.5" y2="540" gradientUnits="userSpaceOnUse">
<stop stop-color="#222020"/>
<stop offset="1" stop-color="#131212"/>
</linearGradient>
<linearGradient id="paint1_linear_3001_891" x1="1448.5" y1="271" x2="1448.5" y2="540" gradientUnits="userSpaceOnUse">
<stop stop-color="#222020"/>
<stop offset="1" stop-color="#131212"/>
</linearGradient>
<linearGradient id="paint2_linear_3001_891" x1="908.5" y1="1" x2="908.5" y2="270" gradientUnits="userSpaceOnUse">
<stop stop-color="#222020"/>
<stop offset="1" stop-color="#131212"/>
</linearGradient>
<linearGradient id="paint3_linear_3001_891" x1="908.5" y1="541" x2="908.5" y2="810" gradientUnits="userSpaceOnUse">
<stop stop-color="#222020"/>
<stop offset="1" stop-color="#131212"/>
</linearGradient>
<linearGradient id="paint4_linear_3001_891" x1="1582.5" y1="435.5" x2="1582.5" y2="645.5" gradientUnits="userSpaceOnUse">
<stop stop-color="#131212" stop-opacity="0"/>
<stop offset="0.49" stop-color="#00DFDF"/>
<stop offset="1" stop-color="#131212" stop-opacity="0"/>
</linearGradient>
<linearGradient id="paint5_linear_3001_891" x1="1688" y1="540" x2="1478" y2="540" gradientUnits="userSpaceOnUse">
<stop stop-color="#131212" stop-opacity="0"/>
<stop offset="0.49" stop-color="#00DFDF"/>
<stop offset="1" stop-color="#131212" stop-opacity="0"/>
</linearGradient>
<linearGradient id="paint6_linear_3001_891" x1="226" y1="192" x2="226" y2="369" gradientUnits="userSpaceOnUse">
<stop stop-color="#131212" stop-opacity="0"/>
<stop offset="0.49" stop-color="#00DFDF"/>
<stop offset="1" stop-color="#131212" stop-opacity="0"/>
</linearGradient>
<linearGradient id="paint7_linear_3001_891" x1="315" y1="280" x2="138" y2="280" gradientUnits="userSpaceOnUse">
<stop stop-color="#131212" stop-opacity="0"/>
<stop offset="0.49" stop-color="#00DFDF"/>
<stop offset="1" stop-color="#131212" stop-opacity="0"/>
</linearGradient>
<clipPath id="clip0_3001_891">
<rect width="1820" height="962" fill="white"/>
</clipPath>
</defs>
</svg>
