<svg width="17" height="20" viewBox="0 0 17 20" fill="none" xmlns="http://www.w3.org/2000/svg">
<path d="M15.7273 8.36364C15.7273 14.0909 8.36364 19 8.36364 19C8.36364 19 1 14.0909 1 8.36364C1 6.41068 1.77581 4.53771 3.15676 3.15676C4.53771 1.77581 6.41068 1 8.36364 1C10.3166 1 12.1896 1.77581 13.5705 3.15676C14.9515 4.53771 15.7273 6.41068 15.7273 8.36364Z" stroke="#EE5E00" stroke-width="1.5" stroke-linecap="round" stroke-linejoin="round"/>
<path d="M8.3647 10.8183C9.72031 10.8183 10.8192 9.71933 10.8192 8.36373C10.8192 7.00812 9.72031 5.90918 8.3647 5.90918C7.00909 5.90918 5.91016 7.00812 5.91016 8.36373C5.91016 9.71933 7.00909 10.8183 8.3647 10.8183Z" stroke="#EE5E00" stroke-width="1.5" stroke-linecap="round" stroke-linejoin="round"/>
</svg>
