<svg width="43" height="53" viewBox="0 0 43 53" fill="none" xmlns="http://www.w3.org/2000/svg">
<path d="M5.07692 41.4231L2 39.8846L22 2L28.7308 14.8734M5.07692 41.4231L5.88278 39.8846M5.07692 41.4231V46.4231H7M39.1154 41.4231L41.8077 39.8846L32.9615 22.9653M39.1154 41.4231L38.3004 39.8846M39.1154 41.4231V46.4231H36.4231M5.88278 39.8846L22 9.11538L38.3004 39.8846M5.88278 39.8846H12.3846M12.3846 39.8846V32.3846H16.3269M12.3846 39.8846V42.9615H16.3269M16.3269 42.9615H20.2692V39.8846M16.3269 42.9615V32.3846M16.3269 32.3846H20.2692V39.8846M27.2885 42.9615H23.5385V39.8846M27.2885 42.9615H31.0385V39.8846M27.2885 42.9615V32.3846M27.2885 32.3846H31.0385V39.8846M27.2885 32.3846H23.5385V39.8846M20.2692 39.8846H23.5385M31.0385 39.8846H38.3004M7 46.4231V52H11.2308V50.2692M7 46.4231H11.2308M11.2308 46.4231V50.2692M11.2308 46.4231H16.3269M11.2308 50.2692L16.3269 46.4231M16.3269 46.4231H19.6923M16.3269 46.4231V52H19.6923V46.4231M19.6923 46.4231H24.5M24.5 46.4231V52H27.2885V46.4231M24.5 46.4231H27.2885M27.2885 46.4231L32.9615 50.2692M27.2885 46.4231H32.9615M32.9615 50.2692V52H36.4231V46.4231M32.9615 50.2692V46.4231M32.9615 46.4231H36.4231M32.9615 22.9653V8.53846H28.7308V14.8734M32.9615 22.9653L28.7308 14.8734" stroke="#EE5E00" stroke-width="1.5"/>
<path d="M5.07692 41.4231L2 39.8846L22 2L28.7308 14.8734M5.07692 41.4231L5.88278 39.8846M5.07692 41.4231V46.4231H7M39.1154 41.4231L41.8077 39.8846L32.9615 22.9653M39.1154 41.4231L38.3004 39.8846M39.1154 41.4231V46.4231H36.4231M5.88278 39.8846L22 9.11538L38.3004 39.8846M5.88278 39.8846H12.3846M12.3846 39.8846V32.3846H16.3269M12.3846 39.8846V42.9615H16.3269M16.3269 42.9615H20.2692V39.8846M16.3269 42.9615V32.3846M16.3269 32.3846H20.2692V39.8846M27.2885 42.9615H23.5385V39.8846M27.2885 42.9615H31.0385V39.8846M27.2885 42.9615V32.3846M27.2885 32.3846H31.0385V39.8846M27.2885 32.3846H23.5385V39.8846M20.2692 39.8846H23.5385M31.0385 39.8846H38.3004M7 46.4231V52H11.2308V50.2692M7 46.4231H11.2308M11.2308 46.4231V50.2692M11.2308 46.4231H16.3269M11.2308 50.2692L16.3269 46.4231M16.3269 46.4231H19.6923M16.3269 46.4231V52H19.6923V46.4231M19.6923 46.4231H24.5M24.5 46.4231V52H27.2885V46.4231M24.5 46.4231H27.2885M27.2885 46.4231L32.9615 50.2692M27.2885 46.4231H32.9615M32.9615 50.2692V52H36.4231V46.4231M32.9615 50.2692V46.4231M32.9615 46.4231H36.4231M32.9615 22.9653V8.53846H28.7308V14.8734M32.9615 22.9653L28.7308 14.8734" stroke="#EE5E00" stroke-width="1.5"/>
<path d="M25.2897 21.6155C25.2897 23.5379 23.7313 25.0963 21.8089 25.0963C19.8865 25.0963 18.3281 23.5379 18.3281 21.6155C18.3281 19.6932 19.8865 18.1348 21.8089 18.1348C23.7313 18.1348 25.2897 19.6932 25.2897 21.6155Z" stroke="#EE5E00" stroke-width="1.5"/>
<path d="M25.2897 21.6155C25.2897 23.5379 23.7313 25.0963 21.8089 25.0963C19.8865 25.0963 18.3281 23.5379 18.3281 21.6155C18.3281 19.6932 19.8865 18.1348 21.8089 18.1348C23.7313 18.1348 25.2897 19.6932 25.2897 21.6155Z" stroke="#EE5E00" stroke-width="1.5"/>
</svg>
