<svg width="97" height="92" viewBox="0 0 97 92" fill="none" xmlns="http://www.w3.org/2000/svg">
<path d="M0 91H4.55696M96.8354 91H93.4177M4.55696 91V42.7722L27.7215 28.3418M4.55696 91H16.1392M70.2532 28.3418L93.4177 42.7722V91M93.4177 91H81.8354M27.7215 91H16.1392M27.7215 91V59.8608M27.7215 91H37.9747M70.2532 91V59.8608M70.2532 91H81.8354M70.2532 91H57.7215M27.7215 22.6456V12.0127L47.4684 1L70.2532 12.0127V22.6456M27.7215 22.6456L47.4684 12.0127L70.2532 22.6456M27.7215 22.6456V49.9873M70.2532 22.6456V49.9873M70.2532 59.8608H82.0253L81.8354 91M70.2532 59.8608V49.9873M16.1392 91V59.8608H27.7215M27.7215 59.8608V49.9873M13.6709 49.9873H27.7215M82.0253 49.9873H70.2532M37.9747 46.5696H57.7215M37.9747 91V74.6709H57.7215V91M37.9747 91H57.7215M37.9747 55.6835H57.7215V66.3165H37.9747V55.6835Z" stroke="#EE5E00" stroke-width="1.5"/>
<path d="M0 91H4.55696M96.8354 91H93.4177M4.55696 91V42.7722L27.7215 28.3418M4.55696 91H16.1392M70.2532 28.3418L93.4177 42.7722V91M93.4177 91H81.8354M27.7215 91H16.1392M27.7215 91V59.8608M27.7215 91H37.9747M70.2532 91V59.8608M70.2532 91H81.8354M70.2532 91H57.7215M27.7215 22.6456V12.0127L47.4684 1L70.2532 12.0127V22.6456M27.7215 22.6456L47.4684 12.0127L70.2532 22.6456M27.7215 22.6456V49.9873M70.2532 22.6456V49.9873M70.2532 59.8608H82.0253L81.8354 91M70.2532 59.8608V49.9873M16.1392 91V59.8608H27.7215M27.7215 59.8608V49.9873M13.6709 49.9873H27.7215M82.0253 49.9873H70.2532M37.9747 46.5696H57.7215M37.9747 91V74.6709H57.7215V91M37.9747 91H57.7215M37.9747 55.6835H57.7215V66.3165H37.9747V55.6835Z" stroke="#EE5E00" stroke-width="1.5"/>
<circle cx="48.228" cy="31.7595" r="7.60443" stroke="#EE5E00" stroke-width="1.5"/>
</svg>
