<svg width="122" height="25" viewBox="0 0 122 25" fill="none" xmlns="http://www.w3.org/2000/svg">
<path d="M100.41 1V2.72336H110.478C113.29 2.90476 119.131 5.00907 119.277 11.9751C119.422 18.941 113.744 21.1361 110.841 21.6803H102.134V11.9751H100.41V23.3129H110.841C114.197 23.3129 121 19.9569 121 11.9751C121 3.9932 114.107 1 110.841 1H100.41Z" fill="white" stroke="white"/>
<path d="M1 1.0907V2.63265H11.1587C12.7007 2.63265 16.3288 4.5698 16.3288 8.70975C16.3288 12.7007 12.836 14.1822 10.9773 14.3333L1 14.5147V23.2222H2.72336V16.1474L10.9773 15.966L15.966 23.2222H18.2336L12.7007 15.4218C16.3288 15.059 17.8707 10.8874 17.8707 8.70975C17.8707 3.53968 13.517 1.0907 11.1587 1.0907H1Z" fill="white" stroke="white"/>
<rect x="23.4943" y="1.0907" width="14.5125" height="1.63265" fill="white" stroke="white"/>
<path d="M59.7755 1.0907H42.5419V2.72335H57.3265L42.5419 21.6803V23.2222H59.7755V21.6803H44.7188L59.7755 2.45124V1.0907Z" fill="white" stroke="white"/>
<path d="M84.8095 12.1564C84.8095 17.9673 80.0176 22.678 74.1066 22.678C68.1955 22.678 63.4036 17.9673 63.4036 12.1564C63.4036 6.34554 68.1955 1.63489 74.1066 1.63489C80.0176 1.63489 84.8095 6.34554 84.8095 12.1564Z" stroke="white" stroke-width="3"/>
<rect x="23.4943" y="11.2494" width="14.5125" height="1.63265" fill="white" stroke="white"/>
<rect x="23.4943" y="21.5896" width="14.5125" height="1.63265" fill="white" stroke="white"/>
<rect x="90.9773" y="1.0907" width="1.81406" height="22.1315" fill="white" stroke="white"/>
</svg>
