<svg width="49" height="49" viewBox="0 0 49 49" fill="none" xmlns="http://www.w3.org/2000/svg">
<path d="M16.2525 33.2056L33.3651 16.073M18.1126 21.503L8.62626 11.6728L4.62712 11.0175L1 4.83846L4.62712 1L10.6723 4.37036L11.6954 8.20882L21.2747 18.1326M23.8865 32.1758L18.9496 37.0441C19.5386 40.7577 18.5218 48.1476 9.74229 47.9978C-1.23208 47.8105 -1.6041 28.6182 12.6254 30.3034L30.389 12.609C29.645 8.52089 30.7424 0.569343 41.0844 1.4681L35.8762 6.99175L37.1782 12.609L42.4794 13.4516L47.8736 8.20882C48.4826 12.0785 47.1962 19.668 37.1782 19.0689L32.1464 24.0308M23.8865 32.1758L26.2039 34.4227C26.8549 33.8298 28.3801 32.9997 29.273 34.4227C30.1658 35.8457 29.335 36.7632 28.8079 37.0441L38.4803 46.6084M23.8865 32.1758L32.1464 24.0308M32.1464 24.0308L34.0161 26.0904C33.6131 26.933 33.0489 28.8054 34.0161 29.5544C34.9834 30.3034 36.5272 29.8665 37.1782 29.5544L46.5716 39.0101M33.3651 33.2056L41.0844 41.257M38.4803 46.6084L39.3173 47.436C40.9604 47.8729 44.7115 48.2412 46.5716 46.219C48.4316 44.1967 47.5946 40.8201 46.9436 39.3846L46.5716 39.0101M38.4803 46.6084L46.5716 39.0101M7.88224 34.9844H12.6254L15.2295 39.0101L12.6254 42.9422H7.88224L5.65016 39.0101L7.88224 34.9844Z" stroke="#EE5E00" stroke-width="1.5"/>
</svg>
