<svg width="76" height="77" viewBox="0 0 76 77" fill="none" xmlns="http://www.w3.org/2000/svg">
<path d="M13.2079 25.8864V64.75C14.9007 65.4318 15.8665 67.0795 16.1378 67.8182V76H5.72038C5.72038 74.0114 5.72038 69.5909 5.72038 67.8182C5.72038 66.0455 7.78216 65.0341 8.81304 64.75V25.8864M13.2079 25.8864H21.8348V1H1V25.8864H8.81304M13.2079 25.8864H8.81304M8.81304 21.625V14.9773M8.81304 14.9773V6.11364H11.7429C13.5334 6.05682 17.0819 6.89773 16.9516 10.7159C16.7889 15.4886 11.5802 15.4886 8.81304 14.9773ZM27.6946 50.2614H67.4109M27.6946 50.2614C27.8088 48.9459 28.0393 47.3535 28.4099 45.6591M27.6946 50.2614C27.0662 50.1956 26.1662 50.3482 25.253 50.937M67.4109 50.2614C67.3961 48.5916 67.2696 47.0609 67.0505 45.6591M67.4109 50.2614C68.6758 50.1568 69.7336 50.4287 70.6121 50.937M26.7179 70.2045C21.3465 70.2045 20.8582 66.1136 21.8348 57.9318C22.3145 53.9131 23.8005 51.8734 25.253 50.937M26.7179 70.2045C28.1834 70.2045 32.1766 70.2045 37.2981 70.2045M26.7179 70.2045C28.3999 72.9886 32.8707 76.8864 37.2981 70.2045M69.5269 70.2045C72.077 70.1477 76.6238 67.6136 74.4101 57.9318C74.2081 55.9017 73.1704 52.4171 70.6121 50.937M69.5269 70.2045C66.3962 70.2045 62.4125 70.2045 58.1329 70.2045M69.5269 70.2045C64.188 77.2955 59.7063 73.1591 58.1329 70.2045M37.2981 70.2045C43.4269 70.2045 51.1713 70.2045 58.1329 70.2045M28.4099 45.6591C29.7998 39.3032 33.1599 31.5114 39.7397 31.5114H54.0636C57.9602 31.6121 65.3371 34.6965 67.0505 45.6591M28.4099 45.6591C26.3053 45.7118 22.7275 46.8411 25.253 50.937M67.0505 45.6591C69.142 45.4845 72.7825 46.2956 70.6121 50.937M34.0427 44.2955L41.8557 35.9432M40.3908 44.2955L48.041 35.9432M39.7397 57.9318C40.2605 57.9318 51.0252 57.9318 56.3424 57.9318L53.5753 63.3864H43.1579L39.7397 57.9318Z" stroke="#EE5E00" stroke-width="1.5"/>
<path d="M34.7583 60.1478C34.7583 61.7435 33.5315 62.9773 32.0901 62.9773C30.6487 62.9773 29.4219 61.7435 29.4219 60.1478C29.4219 58.5521 30.6487 57.3182 32.0901 57.3182C33.5315 57.3182 34.7583 58.5521 34.7583 60.1478Z" stroke="#EE5E00" stroke-width="1.5"/>
<path d="M66.0102 60.1478C66.0102 61.7435 64.7834 62.9773 63.342 62.9773C61.9006 62.9773 60.6738 61.7435 60.6738 60.1478C60.6738 58.5521 61.9006 57.3182 63.342 57.3182C64.7834 57.3182 66.0102 58.5521 66.0102 60.1478Z" stroke="#EE5E00" stroke-width="1.5"/>
</svg>
