<svg width="48" height="50" viewBox="0 0 48 50" fill="none" xmlns="http://www.w3.org/2000/svg">
<path d="M23.8078 28.4815C23.0371 27.2539 21.2587 25.472 19.0523 25.5917M14.2969 35.1819C14.4742 36.2158 15.6775 38.1698 19.0523 38.2092M19.0523 25.5917C18.2334 25.6361 15.9212 25.9984 15.2027 27.7046C13.7308 31.2005 18.1466 31.7831 21.3168 32.56C24.4871 33.3368 24.6003 37.9009 19.7317 38.1922C19.496 38.2063 19.2697 38.2117 19.0523 38.2092M19.0523 25.5917V23.4319M19.0523 38.2092V40.5228" stroke="#EE5E00" stroke-width="1.5"/>
<path d="M13.0516 15.9545C6.29586 20.9717 -3.97808 33.2793 3.76737 41.688C12.7121 51.3987 27.4312 48 31.2808 43.9214L32.0734 43.3388M13.0516 15.9545C12.259 15.825 10.4475 15.1777 10.4475 13.2355C10.4475 11.0992 13.0516 11.0992 13.0516 11.0992H14.8632M13.0516 15.9545H25.846M32.0734 43.3388L27.4312 38.3863H32.5263V23.1405M32.0734 43.3388L36.942 48L46 38.3863H41.8107L41.3578 20.033H32.5263V23.1405M25.846 15.9545C25.846 15.9545 28.4502 15.3719 28.4502 13.2355C28.4502 11.3905 25.846 11.0992 25.846 11.0992H23.4683M25.846 15.9545C27.9218 18.0909 32.164 22.519 32.5263 23.1405M14.8632 11.0992C13.0516 9.73965 9.65489 8.47727 9.65489 5.75825C9.65489 4.481 11.1268 2.4566 15.769 4.10743C16.0332 2.8774 17.0634 0.999999 19.3922 1C21.8832 1 22.4493 3.07162 22.5625 3.81611C24.0722 3.13636 27.3632 2.43719 28.4502 5.07851C29.5371 7.71983 25.5818 10.1928 23.4683 11.0992M14.8632 11.0992H23.4683" stroke="#EE5E00" stroke-width="1.5"/>
</svg>
