<svg width="76" height="77" viewBox="0 0 76 77" fill="none" xmlns="http://www.w3.org/2000/svg">
<path d="M1 76H19.6382M74.9563 76H55.2744M55.2744 76H37.4563M55.2744 76V61.5368M55.2744 43.7932V51.0994M55.2744 51.0994L61.3877 44.9861M55.2744 51.0994V57.5109M55.2744 57.5109L47.9682 51.0994M55.2744 57.5109V61.5368M19.6382 76H37.4563M19.6382 76V63.1769M19.6382 39.6183V48.4155M19.6382 53.6342L27.2425 46.4771M19.6382 53.6342V48.4155M19.6382 53.6342V63.1769M19.6382 48.4155L13.5249 42.3022M37.4563 76V57.5109M37.4563 16.0596V25.7515M37.4563 25.7515L43.3459 20.3837M37.4563 25.7515V33.0577M37.4563 33.0577L30.672 25.7515M37.4563 33.0577V46.4771M1 44.9861C1.0994 37.5308 5.98012 23.3658 24.7078 26.3479M1.59642 49.6084C2.83897 54.1312 8.18688 63.1769 19.6382 63.1769M19.6382 63.1769C24.4592 63.1769 34.7724 60.2247 37.4563 48.4155M37.4563 48.4155V46.4771M37.4563 48.4155V57.5109M37.4563 48.4155C38.1272 45.8807 40.9006 41.1093 46.6262 42.3022C44.6879 39.5189 42.8688 32.4314 51.0994 26.3479M37.4563 46.4771C27.9384 39.6183 14.6133 20.9205 37.4563 1C41.8549 3.23658 50.7416 11.4374 51.0994 26.3479M51.0994 26.3479C56.5666 24.8072 67.5905 25.3042 67.9483 39.6183C73.5646 43.1968 80.175 54.3797 67.9483 63.1769C65.9498 64.6149 57.5109 65.8608 55.2744 61.5368M55.2744 61.5368C53.1869 64.9662 42.004 68.0974 37.4563 57.5109" stroke="#EE5E00" stroke-width="1.5"/>
</svg>
