<svg width="173" height="120" viewBox="0 0 173 120" fill="none" xmlns="http://www.w3.org/2000/svg">
<rect width="173" height="120" rx="16" fill="white"/>
<rect x="16" y="67" width="9" height="36" rx="4.5" fill="url(#paint0_linear_13081_2218)"/>
<rect x="35" y="48" width="9" height="55" rx="4.5" fill="url(#paint1_linear_13081_2218)"/>
<rect x="54" y="59" width="9" height="44" rx="4.5" fill="url(#paint2_linear_13081_2218)"/>
<rect x="73" y="43" width="9" height="60" rx="4.5" fill="url(#paint3_linear_13081_2218)"/>
<rect x="92" y="69" width="9" height="34" rx="4.5" fill="url(#paint4_linear_13081_2218)"/>
<rect x="111" y="50" width="9" height="53" rx="4.5" fill="url(#paint5_linear_13081_2218)"/>
<rect x="130" y="43" width="9" height="60" rx="4.5" fill="url(#paint6_linear_13081_2218)"/>
<rect x="149" y="27" width="9" height="76" rx="4.5" fill="url(#paint7_linear_13081_2218)"/>
<path d="M17.3333 61.5C17.3333 62.9728 18.5272 64.1667 20 64.1667C21.4728 64.1667 22.6667 62.9728 22.6667 61.5C22.6667 60.0272 21.4728 58.8333 20 58.8333C18.5272 58.8333 17.3333 60.0272 17.3333 61.5ZM39.5 36.5L39.8536 36.1464C39.7522 36.0451 39.6123 35.9921 39.4693 36.0009C39.3263 36.0098 39.1939 36.0795 39.1057 36.1925L39.5 36.5ZM58.5 55.5L58.1464 55.8536C58.2454 55.9525 58.3812 56.0054 58.521 55.9996C58.6608 55.9937 58.7917 55.9295 58.882 55.8226L58.5 55.5ZM77.5 33L77.9299 32.7447C77.8473 32.6056 77.7025 32.5151 77.5413 32.5017C77.3801 32.4883 77.2224 32.5538 77.118 32.6774L77.5 33ZM96.5 65L96.0701 65.2553C96.1523 65.3938 96.2963 65.4842 96.4568 65.4981C96.6174 65.512 96.7748 65.4477 96.8796 65.3254L96.5 65ZM114.5 44L114.379 43.5149C114.278 43.5401 114.188 43.5959 114.12 43.6746L114.5 44ZM134.5 39L134.621 39.4851C134.709 39.4631 134.789 39.4176 134.854 39.3536L134.5 39ZM154 20C154 19.7239 153.776 19.5 153.5 19.5H149C148.724 19.5 148.5 19.7239 148.5 20C148.5 20.2761 148.724 20.5 149 20.5H153V24.5C153 24.7761 153.224 25 153.5 25C153.776 25 154 24.7761 154 24.5V20ZM20.3943 61.8075L39.8943 36.8075L39.1057 36.1925L19.6057 61.1925L20.3943 61.8075ZM39.1464 36.8536L58.1464 55.8536L58.8536 55.1464L39.8536 36.1464L39.1464 36.8536ZM58.882 55.8226L77.882 33.3226L77.118 32.6774L58.118 55.1774L58.882 55.8226ZM77.0701 33.2553L96.0701 65.2553L96.9299 64.7447L77.9299 32.7447L77.0701 33.2553ZM96.8796 65.3254L114.88 44.3254L114.12 43.6746L96.1204 64.6746L96.8796 65.3254ZM114.621 44.4851L134.621 39.4851L134.379 38.5149L114.379 43.5149L114.621 44.4851ZM134.854 39.3536L153.854 20.3536L153.146 19.6464L134.146 38.6464L134.854 39.3536Z" fill="url(#paint8_linear_13081_2218)"/>
<path d="M13.9055 109.12C13.2455 109.12 12.6655 108.97 12.1655 108.67C11.6722 108.37 11.2888 107.953 11.0155 107.42C10.7422 106.88 10.6055 106.25 10.6055 105.53C10.6055 104.817 10.7455 104.187 11.0255 103.64C11.3055 103.087 11.7055 102.657 12.2255 102.35C12.7522 102.037 13.3755 101.88 14.0955 101.88C14.9088 101.88 15.5822 102.077 16.1155 102.47C16.6555 102.857 17.0055 103.397 17.1655 104.09H15.8155C15.7155 103.743 15.5188 103.473 15.2255 103.28C14.9322 103.087 14.5522 102.99 14.0855 102.99C13.6122 102.99 13.2055 103.093 12.8655 103.3C12.5322 103.5 12.2755 103.793 12.0955 104.18C11.9222 104.56 11.8355 105.013 11.8355 105.54C11.8355 106.067 11.9222 106.52 12.0955 106.9C12.2755 107.28 12.5288 107.57 12.8555 107.77C13.1822 107.963 13.5655 108.06 14.0055 108.06C14.6588 108.06 15.1522 107.877 15.4855 107.51C15.8188 107.143 16.0155 106.667 16.0755 106.08H14.2655V105.17H17.2855V109H16.1855L16.0855 108.04C15.9322 108.267 15.7555 108.463 15.5555 108.63C15.3555 108.79 15.1188 108.913 14.8455 109C14.5788 109.08 14.2655 109.12 13.9055 109.12ZM18.5801 109V102H21.0901C21.6435 102 22.1001 102.097 22.4601 102.29C22.8268 102.477 23.0968 102.73 23.2701 103.05C23.4501 103.363 23.5401 103.72 23.5401 104.12C23.5401 104.493 23.4535 104.84 23.2801 105.16C23.1068 105.48 22.8368 105.737 22.4701 105.93C22.1035 106.123 21.6335 106.22 21.0601 106.22H19.7801V109H18.5801ZM22.2301 109L20.7601 105.91H22.0601L23.6001 109H22.2301ZM19.7801 105.33H21.0101C21.4568 105.33 21.7835 105.223 21.9901 105.01C22.2035 104.79 22.3101 104.503 22.3101 104.15C22.3101 103.803 22.2068 103.527 22.0001 103.32C21.7935 103.107 21.4635 103 21.0101 103H19.7801V105.33ZM27.9713 109.12C27.298 109.12 26.7013 108.97 26.1813 108.67C25.668 108.363 25.2646 107.94 24.9713 107.4C24.678 106.853 24.5313 106.22 24.5313 105.5C24.5313 104.787 24.678 104.16 24.9713 103.62C25.2646 103.073 25.668 102.647 26.1813 102.34C26.7013 102.033 27.298 101.88 27.9713 101.88C28.658 101.88 29.2613 102.033 29.7813 102.34C30.3013 102.647 30.7046 103.073 30.9913 103.62C31.278 104.16 31.4213 104.787 31.4213 105.5C31.4213 106.22 31.278 106.853 30.9913 107.4C30.7046 107.94 30.3013 108.363 29.7813 108.67C29.2613 108.97 28.658 109.12 27.9713 109.12ZM27.9813 108.04C28.428 108.04 28.818 107.94 29.1513 107.74C29.4846 107.533 29.7413 107.24 29.9213 106.86C30.1013 106.48 30.1913 106.027 30.1913 105.5C30.1913 104.973 30.1013 104.52 29.9213 104.14C29.7413 103.76 29.4846 103.47 29.1513 103.27C28.818 103.063 28.428 102.96 27.9813 102.96C27.5346 102.96 27.1446 103.063 26.8113 103.27C26.478 103.47 26.218 103.76 26.0313 104.14C25.8513 104.52 25.7613 104.973 25.7613 105.5C25.7613 106.027 25.8513 106.48 26.0313 106.86C26.218 107.24 26.478 107.533 26.8113 107.74C27.1446 107.94 27.5346 108.04 27.9813 108.04ZM33.7108 109L31.8508 102H33.1308L34.4408 107.63L35.9608 102H37.2908L38.7608 107.64L40.0808 102H41.3708L39.4608 109H38.0408L36.6008 103.7L35.1208 109H33.7108ZM47.4215 109.12C46.9149 109.12 46.4549 109.02 46.0415 108.82C45.6349 108.62 45.3082 108.313 45.0615 107.9C44.8215 107.487 44.7015 106.967 44.7015 106.34V102H45.9015V106.35C45.9015 106.73 45.9649 107.043 46.0915 107.29C46.2182 107.537 46.3949 107.723 46.6215 107.85C46.8549 107.97 47.1282 108.03 47.4415 108.03C47.7615 108.03 48.0349 107.97 48.2615 107.85C48.4949 107.723 48.6715 107.537 48.7915 107.29C48.9182 107.043 48.9815 106.73 48.9815 106.35V102H50.1815V106.34C50.1815 106.967 50.0582 107.487 49.8115 107.9C49.5649 108.313 49.2315 108.62 48.8115 108.82C48.3915 109.02 47.9282 109.12 47.4215 109.12ZM51.5293 109V102H54.0493C54.6093 102 55.0727 102.097 55.4393 102.29C55.806 102.477 56.0793 102.73 56.2593 103.05C56.4393 103.37 56.5293 103.737 56.5293 104.15C56.5293 104.537 56.4427 104.893 56.2693 105.22C56.096 105.54 55.826 105.8 55.4593 106C55.0927 106.193 54.6227 106.29 54.0493 106.29H52.7293V109H51.5293ZM52.7293 105.31H53.9793C54.4527 105.31 54.7927 105.207 54.9993 105C55.206 104.787 55.3093 104.503 55.3093 104.15C55.3093 103.783 55.206 103.497 54.9993 103.29C54.7927 103.083 54.4527 102.98 53.9793 102.98H52.7293V105.31Z" fill="#292D32"/>
<path d="M13.3808 22.146V15.762H14.9908V22.146H13.3808ZM10.7628 19.738V18.156H17.5948V19.738H10.7628ZM19.4935 23L23.0915 14.81H18.3455V13.2H25.0235V14.53L21.4535 23H19.4935ZM30.305 23.168C29.4183 23.168 28.653 22.9533 28.009 22.524C27.365 22.0947 26.8703 21.502 26.525 20.746C26.189 19.9807 26.021 19.0987 26.021 18.1C26.021 17.1013 26.189 16.224 26.525 15.468C26.8703 14.7027 27.3603 14.1053 27.995 13.676C28.639 13.2467 29.409 13.032 30.305 13.032C31.201 13.032 31.9663 13.2467 32.601 13.676C33.245 14.1053 33.735 14.7027 34.071 15.468C34.4163 16.224 34.589 17.1013 34.589 18.1C34.589 19.0987 34.4163 19.9807 34.071 20.746C33.735 21.502 33.245 22.0947 32.601 22.524C31.9663 22.9533 31.201 23.168 30.305 23.168ZM30.305 21.474C30.7716 21.474 31.1823 21.3387 31.537 21.068C31.8916 20.788 32.167 20.396 32.363 19.892C32.5683 19.388 32.671 18.7907 32.671 18.1C32.671 17.4 32.5683 16.8027 32.363 16.308C32.167 15.804 31.8916 15.4167 31.537 15.146C31.1823 14.8753 30.7716 14.74 30.305 14.74C29.8383 14.74 29.4276 14.8753 29.073 15.146C28.7183 15.4167 28.4383 15.804 28.233 16.308C28.037 16.8027 27.939 17.4 27.939 18.1C27.939 18.7907 28.037 19.388 28.233 19.892C28.4383 20.396 28.7183 20.788 29.073 21.068C29.4276 21.3387 29.8383 21.474 30.305 21.474ZM37.8524 23L43.3544 13.2H45.1884L39.6864 23H37.8524ZM44.8524 23.168C44.395 23.168 43.9797 23.07 43.6064 22.874C43.2424 22.6687 42.953 22.3793 42.7384 22.006C42.5237 21.6233 42.4164 21.1753 42.4164 20.662C42.4164 20.1393 42.5237 19.6913 42.7384 19.318C42.953 18.9447 43.2424 18.66 43.6064 18.464C43.9797 18.2587 44.395 18.156 44.8524 18.156C45.3097 18.156 45.7204 18.2587 46.0844 18.464C46.4484 18.66 46.7377 18.9447 46.9524 19.318C47.167 19.6913 47.2744 20.1393 47.2744 20.662C47.2744 21.1753 47.167 21.6233 46.9524 22.006C46.7377 22.3793 46.4484 22.6687 46.0844 22.874C45.7204 23.07 45.3097 23.168 44.8524 23.168ZM44.8384 21.866C45.025 21.866 45.1884 21.8193 45.3284 21.726C45.4684 21.6327 45.5804 21.4973 45.6644 21.32C45.7484 21.1427 45.7904 20.9233 45.7904 20.662C45.7904 20.3913 45.7484 20.1673 45.6644 19.99C45.5897 19.8033 45.4777 19.6633 45.3284 19.57C45.1884 19.4767 45.025 19.43 44.8384 19.43C44.661 19.43 44.4977 19.4767 44.3484 19.57C44.2084 19.6633 44.0964 19.8033 44.0124 19.99C43.9284 20.1673 43.8864 20.3913 43.8864 20.662C43.8864 20.9233 43.9284 21.1427 44.0124 21.32C44.0964 21.4973 44.2084 21.6327 44.3484 21.726C44.4977 21.8193 44.661 21.866 44.8384 21.866ZM38.2584 18.058C37.8104 18.058 37.3997 17.9553 37.0264 17.75C36.6624 17.5447 36.3684 17.2553 36.1444 16.882C35.9297 16.5087 35.8224 16.0653 35.8224 15.552C35.8224 15.02 35.9297 14.572 36.1444 14.208C36.3684 13.8347 36.6624 13.5453 37.0264 13.34C37.3997 13.1347 37.815 13.032 38.2724 13.032C38.7297 13.032 39.1357 13.1347 39.4904 13.34C39.8544 13.5453 40.1437 13.8347 40.3584 14.208C40.5824 14.572 40.6944 15.02 40.6944 15.552C40.6944 16.0653 40.5824 16.5087 40.3584 16.882C40.1437 17.2553 39.8544 17.5447 39.4904 17.75C39.1264 17.9553 38.7157 18.058 38.2584 18.058ZM38.2584 16.756C38.4357 16.756 38.5944 16.7093 38.7344 16.616C38.8837 16.5227 39.0004 16.3873 39.0844 16.21C39.1684 16.0327 39.2104 15.8133 39.2104 15.552C39.2104 15.272 39.1684 15.0433 39.0844 14.866C39.0004 14.6887 38.8837 14.5533 38.7344 14.46C38.5944 14.3667 38.4357 14.32 38.2584 14.32C38.081 14.32 37.9177 14.3667 37.7684 14.46C37.6284 14.5533 37.5164 14.6933 37.4324 14.88C37.3484 15.0573 37.3064 15.2813 37.3064 15.552C37.3064 15.8133 37.3484 16.0327 37.4324 16.21C37.5164 16.3873 37.6284 16.5227 37.7684 16.616C37.9177 16.7093 38.081 16.756 38.2584 16.756Z" fill="#292D32"/>
<path d="M150.333 101.061L144 97.3186V104.803L150.333 108.258V101.061Z" fill="#3291F6"/>
<path d="M163.001 104.803V97.3186L156.668 101.061V108.546L163.001 104.803Z" fill="#3248F6"/>
<path d="M147.168 102.788V95.5913L153.501 99.3337L159.834 95.5913V102.788L153.501 106.531L147.168 102.788Z" fill="#32D9F6"/>
<defs>
<linearGradient id="paint0_linear_13081_2218" x1="20.5" y1="67" x2="20.5" y2="103" gradientUnits="userSpaceOnUse">
<stop stop-color="#B8F4FF"/>
<stop offset="1" stop-color="white" stop-opacity="0"/>
</linearGradient>
<linearGradient id="paint1_linear_13081_2218" x1="39.5" y1="48" x2="39.5" y2="103" gradientUnits="userSpaceOnUse">
<stop stop-color="#B8F4FF"/>
<stop offset="1" stop-color="white" stop-opacity="0"/>
</linearGradient>
<linearGradient id="paint2_linear_13081_2218" x1="58.5" y1="59" x2="58.5" y2="103" gradientUnits="userSpaceOnUse">
<stop stop-color="#B8F4FF"/>
<stop offset="1" stop-color="white" stop-opacity="0"/>
</linearGradient>
<linearGradient id="paint3_linear_13081_2218" x1="77.5" y1="43" x2="77.5" y2="103" gradientUnits="userSpaceOnUse">
<stop stop-color="#B8F4FF"/>
<stop offset="1" stop-color="white" stop-opacity="0"/>
</linearGradient>
<linearGradient id="paint4_linear_13081_2218" x1="96.5" y1="69" x2="96.5" y2="103" gradientUnits="userSpaceOnUse">
<stop stop-color="#B8F4FF"/>
<stop offset="1" stop-color="white" stop-opacity="0"/>
</linearGradient>
<linearGradient id="paint5_linear_13081_2218" x1="115.5" y1="50" x2="115.5" y2="103" gradientUnits="userSpaceOnUse">
<stop stop-color="#B8F4FF"/>
<stop offset="1" stop-color="white" stop-opacity="0"/>
</linearGradient>
<linearGradient id="paint6_linear_13081_2218" x1="134.5" y1="43" x2="134.5" y2="103" gradientUnits="userSpaceOnUse">
<stop stop-color="#B8F4FF"/>
<stop offset="1" stop-color="white" stop-opacity="0"/>
</linearGradient>
<linearGradient id="paint7_linear_13081_2218" x1="153.5" y1="27" x2="153.5" y2="103" gradientUnits="userSpaceOnUse">
<stop stop-color="#B8F4FF"/>
<stop offset="1" stop-color="white" stop-opacity="0"/>
</linearGradient>
<linearGradient id="paint8_linear_13081_2218" x1="160.5" y1="14.0001" x2="80" y2="69.0001" gradientUnits="userSpaceOnUse">
<stop stop-color="#3248F6"/>
<stop offset="1" stop-color="#32D9F6"/>
</linearGradient>
</defs>
</svg>
