<svg width="54" height="52" viewBox="0 0 54 52" fill="none" xmlns="http://www.w3.org/2000/svg">
<path d="M42.4762 51H52V47.627H47.2381M42.4762 51V47.627H47.2381M42.4762 51H40.0953M47.2381 47.627V44.6508M47.2381 33.7381V37.7063M47.2381 37.7063V44.6508M47.2381 37.7063C46.5156 37.3623 45.4816 36.6674 44.7899 35.7222M47.2381 44.6508C54.381 42.2699 51.5371 37.7064 49.2223 35.7222C49.5529 35.4577 50.2143 34.4524 50.2143 32.5476C50.2143 31.226 48.7472 30.3935 47.2381 30.4572M47.2381 44.6508C40.254 43.2223 42.6959 38.1032 44.7899 35.7222M44.7899 35.7222C44.1519 34.8506 43.805 33.7661 44.2619 32.5476C44.7916 31.1351 46.0284 30.5082 47.2381 30.4572M30.1746 51L29.5794 35.127H40.0953V51M30.1746 51H40.0953M30.1746 51H22.6349M33.5476 41.2778V44.6508M18.2699 51H2V47.627H3.19048M18.2699 51V47.627H16.6826M18.2699 51H22.6349M3.19048 47.627H16.6826M3.19048 47.627C3.47373 46.4373 4.11848 44.9711 5.17461 44.0824M16.6826 47.627C16.0476 44.1349 13.1111 44.8492 11.7222 45.6429C8.72747 42.7389 6.58448 42.896 5.17461 44.0824M5.17461 44.0824V32.5476M5.17461 32.5476H2L6.36508 25.8016H9.14286M5.17461 32.5476H22.6349M22.6349 25.8016L35.1349 8.53969L47.2381 25.8016M22.6349 25.8016H18.2699M22.6349 25.8016V32.5476M47.2381 25.8016V30.4572M47.2381 25.8016H52L35.1349 2.19048L31.1667 7.54762M31.1667 7.54762H21.0476M31.1667 7.54762L26.2064 14.8889M21.0476 7.54762V4.76984H22.6349V1H12.7143V4.76984H15.2937V7.54762M21.0476 7.54762H15.2937M15.2937 7.54762H9.14286L3.19048 14.8889H9.14286M26.2064 14.8889L18.2699 25.8016M26.2064 14.8889H9.14286M18.2699 25.8016H9.14286M9.14286 25.8016V14.8889M22.6349 32.5476V51M11.7222 17.0714V22.4286H16.6826V17.0714H11.7222ZM31.1667 20.8413V28.5794H38.1111V20.8413H31.1667ZM11.127 36.1191H16.6826V41.2778H11.127V36.1191Z" stroke="#EE5E00" stroke-width="1.5"/>
</svg>
