<svg width="53" height="52" viewBox="0 0 53 52" fill="none" xmlns="http://www.w3.org/2000/svg">
<path d="M1.88822 51H6.37802M40.8678 24.8776H51.4801V51H40.8678M40.8678 24.8776V51M40.8678 24.8776V1H19.6433V15.0816M40.8678 51H33.2148M19.6433 51H6.37802M19.6433 51V15.0816M19.6433 51H25.5617M6.37802 51V45.6939M6.37802 40.3878V45.6939M6.37802 45.6939C10.0515 43.517 15.1943 37.7347 6.37802 32.0204C2.70455 33.3129 -3.62203 40.3878 6.37802 45.6939ZM9.43926 28.9592V15.0816H19.6433M25.5617 51V40.3878H33.3168L33.2148 51M25.5617 51H33.2148M13.1127 32.6327H15.1535V31.6122H13.1127V32.6327ZM13.1127 25.898V27.3265H15.7658V25.898H13.1127ZM13.1127 20.3878V21.8163H15.7658V20.3878H13.1127ZM24.7454 7.73469V14.0612H26.9903V7.73469H24.7454ZM32.0923 7.73469V14.0612H34.1331V7.73469H32.0923ZM24.7454 18.3469H26.9903V24.8776H24.7454V18.3469ZM32.0923 18.3469H34.1331V24.8776H32.0923V18.3469ZM32.0923 28.9592H34.1331V35.6939H32.0923V28.9592ZM26.9903 28.9592H24.7454V35.6939H26.9903V28.9592ZM43.5209 31.6122V33.449H46.7862V31.6122H43.5209ZM43.929 37.5306V39.3673H46.7862V37.5306H43.929ZM43.929 43.449V45.0816H46.7862V43.449H43.929Z" stroke="#EE5E00" stroke-width="1.5"/>
</svg>
