<svg width="1820" height="1047" viewBox="0 0 1820 1047" fill="none" xmlns="http://www.w3.org/2000/svg">
<g clip-path="url(#clip0_658_1605)">
<rect width="1820" height="1047" fill="#131212"/>
<g opacity="0.04">
<line x1="1870" y1="270.5" x2="-50" y2="270.5" stroke="white"/>
<line x1="1870" y1="540.5" x2="-50" y2="540.5" stroke="white"/>
<line x1="1870" y1="809.5" x2="-50" y2="809.5" stroke="white"/>
<line x1="233.5" y1="2.18557e-08" x2="233.5" y2="3353" stroke="white"/>
<line x1="1043.5" y1="2.18557e-08" x2="1043.5" y2="3353" stroke="white"/>
<line x1="503.5" y1="2.18557e-08" x2="503.5" y2="3353" stroke="white"/>
<line x1="1313.5" y1="2.18557e-08" x2="1313.5" y2="3353" stroke="white"/>
<line x1="773.5" y1="2.18557e-08" x2="773.5" y2="3353" stroke="white"/>
<line x1="1583.5" y1="2.18557e-08" x2="1583.5" y2="3353" stroke="white"/>
</g>
<rect opacity="0.32" x="235" y="270" width="269" height="269" fill="url(#paint0_linear_658_1605)"/>
<rect opacity="0.32" x="234" y="810" width="269" height="269" fill="url(#paint1_linear_658_1605)"/>
<rect opacity="0.32" x="1315" y="270" width="269" height="269" fill="url(#paint2_linear_658_1605)"/>
<rect opacity="0.32" x="1314" y="810" width="269" height="269" fill="url(#paint3_linear_658_1605)"/>
<rect opacity="0.32" x="775" width="269" height="269" fill="url(#paint4_linear_658_1605)"/>
<rect opacity="0.32" x="775" y="540" width="269" height="269" fill="url(#paint5_linear_658_1605)"/>
<g filter="url(#filter0_f_658_1605)">
<circle cx="92" cy="658" r="201" fill="#FF7847"/>
</g>
<g filter="url(#filter1_f_658_1605)">
<circle cx="39" cy="254" r="254" fill="#00DFDF" fill-opacity="0.35"/>
</g>
<line x1="88.5" y1="165" x2="88.5" y2="375" stroke="url(#paint6_linear_658_1605)"/>
<line x1="193" y1="270.5" x2="-17" y2="270.5" stroke="url(#paint7_linear_658_1605)"/>
</g>
<defs>
<filter id="filter0_f_658_1605" x="-709" y="-143" width="1602" height="1602" filterUnits="userSpaceOnUse" color-interpolation-filters="sRGB">
<feFlood flood-opacity="0" result="BackgroundImageFix"/>
<feBlend mode="normal" in="SourceGraphic" in2="BackgroundImageFix" result="shape"/>
<feGaussianBlur stdDeviation="300" result="effect1_foregroundBlur_658_1605"/>
</filter>
<filter id="filter1_f_658_1605" x="-815" y="-600" width="1708" height="1708" filterUnits="userSpaceOnUse" color-interpolation-filters="sRGB">
<feFlood flood-opacity="0" result="BackgroundImageFix"/>
<feBlend mode="normal" in="SourceGraphic" in2="BackgroundImageFix" result="shape"/>
<feGaussianBlur stdDeviation="300" result="effect1_foregroundBlur_658_1605"/>
</filter>
<linearGradient id="paint0_linear_658_1605" x1="369.5" y1="270" x2="369.5" y2="539" gradientUnits="userSpaceOnUse">
<stop stop-color="#222020"/>
<stop offset="1" stop-color="#131212"/>
</linearGradient>
<linearGradient id="paint1_linear_658_1605" x1="368.5" y1="810" x2="368.5" y2="1079" gradientUnits="userSpaceOnUse">
<stop stop-color="#222020"/>
<stop offset="1" stop-color="#131212"/>
</linearGradient>
<linearGradient id="paint2_linear_658_1605" x1="1449.5" y1="270" x2="1449.5" y2="539" gradientUnits="userSpaceOnUse">
<stop stop-color="#222020"/>
<stop offset="1" stop-color="#131212"/>
</linearGradient>
<linearGradient id="paint3_linear_658_1605" x1="1448.5" y1="810" x2="1448.5" y2="1079" gradientUnits="userSpaceOnUse">
<stop stop-color="#222020"/>
<stop offset="1" stop-color="#131212"/>
</linearGradient>
<linearGradient id="paint4_linear_658_1605" x1="909.5" y1="0" x2="909.5" y2="269" gradientUnits="userSpaceOnUse">
<stop stop-color="#222020"/>
<stop offset="1" stop-color="#131212"/>
</linearGradient>
<linearGradient id="paint5_linear_658_1605" x1="909.5" y1="540" x2="909.5" y2="809" gradientUnits="userSpaceOnUse">
<stop stop-color="#222020"/>
<stop offset="1" stop-color="#131212"/>
</linearGradient>
<linearGradient id="paint6_linear_658_1605" x1="87.5" y1="165" x2="87.5" y2="375" gradientUnits="userSpaceOnUse">
<stop stop-color="#131212"/>
<stop offset="0.49" stop-color="#00DFDF"/>
<stop offset="1" stop-color="#131212"/>
</linearGradient>
<linearGradient id="paint7_linear_658_1605" x1="193" y1="269.5" x2="-17" y2="269.5" gradientUnits="userSpaceOnUse">
<stop stop-color="#131212"/>
<stop offset="0.49" stop-color="#00DFDF"/>
<stop offset="1" stop-color="#131212"/>
</linearGradient>
<clipPath id="clip0_658_1605">
<rect width="1820" height="1047" fill="white"/>
</clipPath>
</defs>
</svg>
