<svg width="54" height="52" viewBox="0 0 54 52" fill="none" xmlns="http://www.w3.org/2000/svg">
<path d="M0 51H2.53165M53.7975 51H51.8987M2.53165 51V24.2068L15.4008 16.1899M2.53165 51H8.96624M39.0295 16.1899L51.8987 24.2068V51M51.8987 51H45.4641M15.4008 51H8.96624M15.4008 51V33.7004M15.4008 51H21.097M39.0295 51V33.7004M39.0295 51H45.4641M39.0295 51H32.0675M15.4008 13.0253V7.11814L26.3713 1L39.0295 7.11814V13.0253M15.4008 13.0253L26.3713 7.11814L39.0295 13.0253M15.4008 13.0253V28.2152M39.0295 13.0253V28.2152M39.0295 33.7004H45.5696L45.4641 51M39.0295 33.7004V28.2152M8.96624 51V33.7004H15.4008M15.4008 33.7004V28.2152M7.59494 28.2152H15.4008M45.5696 28.2152H39.0295M21.097 26.3165H32.0675M21.097 51V41.9283H32.0675V51M21.097 51H32.0675M21.097 31.3797H32.0675V37.2869H21.097V31.3797Z" stroke="#EE5E00" stroke-width="1.5"/>
<path d="M0 51H2.53165M53.7975 51H51.8987M2.53165 51V24.2068L15.4008 16.1899M2.53165 51H8.96624M39.0295 16.1899L51.8987 24.2068V51M51.8987 51H45.4641M15.4008 51H8.96624M15.4008 51V33.7004M15.4008 51H21.097M39.0295 51V33.7004M39.0295 51H45.4641M39.0295 51H32.0675M15.4008 13.0253V7.11814L26.3713 1L39.0295 7.11814V13.0253M15.4008 13.0253L26.3713 7.11814L39.0295 13.0253M15.4008 13.0253V28.2152M39.0295 13.0253V28.2152M39.0295 33.7004H45.5696L45.4641 51M39.0295 33.7004V28.2152M8.96624 51V33.7004H15.4008M15.4008 33.7004V28.2152M7.59494 28.2152H15.4008M45.5696 28.2152H39.0295M21.097 26.3165H32.0675M21.097 51V41.9283H32.0675V51M21.097 51H32.0675M21.097 31.3797H32.0675V37.2869H21.097V31.3797Z" stroke="#EE5E00" stroke-width="1.5"/>
<path d="M30.685 18.0886C30.685 20.2377 28.9428 21.98 26.7937 21.98C24.6446 21.98 22.9023 20.2377 22.9023 18.0886C22.9023 15.9395 24.6446 14.1973 26.7937 14.1973C28.9428 14.1973 30.685 15.9395 30.685 18.0886Z" stroke="#EE5E00" stroke-width="1.5"/>
</svg>
