<svg width="51" height="52" viewBox="0 0 51 52" fill="none" xmlns="http://www.w3.org/2000/svg">
<path d="M1 51H13.4254M50.3042 51H37.1829M37.1829 51H25.3042M37.1829 51V41.3579M37.1829 29.5288V34.3996M37.1829 34.3996L41.2584 30.3241M37.1829 34.3996V38.674M37.1829 38.674L32.3121 34.3996M37.1829 38.674V41.3579M13.4254 51H25.3042M13.4254 51V42.4513M13.4254 26.7455V32.6103M13.4254 36.0895L18.495 31.3181M13.4254 36.0895V32.6103M13.4254 36.0895V42.4513M13.4254 32.6103L9.3499 28.5348M25.3042 51V38.674M25.3042 11.0398V17.501M25.3042 17.501L29.2306 13.9225M25.3042 17.501V22.3718M25.3042 22.3718L20.7813 17.501M25.3042 22.3718V31.3181M1 30.3241C1.06627 25.3539 4.32008 15.9105 16.8052 17.8986M1.39761 33.4056C2.22598 36.4208 5.79125 42.4513 13.4254 42.4513M13.4254 42.4513C16.6395 42.4513 23.5149 40.4831 25.3042 32.6103M25.3042 32.6103V31.3181M25.3042 32.6103V38.674M25.3042 32.6103C25.7515 30.9205 27.6004 27.7396 31.4175 28.5348C30.1252 26.6793 28.9125 21.9543 34.3996 17.8986M25.3042 31.3181C18.9589 26.7455 10.0755 14.2803 25.3042 1C28.2366 2.49105 34.161 7.95825 34.3996 17.8986M34.3996 17.8986C38.0444 16.8714 45.3936 17.2028 45.6322 26.7455C49.3764 29.1312 53.7833 36.5865 45.6322 42.4513C44.2999 43.4099 38.674 44.2406 37.1829 41.3579M37.1829 41.3579C35.7913 43.6441 28.336 45.7316 25.3042 38.674" stroke="#EE5E00" stroke-width="1.5"/>
</svg>
