<svg width="52" height="53" viewBox="0 0 52 53" fill="none" xmlns="http://www.w3.org/2000/svg">
<path d="M9.24857 17.8151V44.0743C10.3924 44.535 11.0449 45.6483 11.2282 46.1474V51.6757H4.18945C4.18945 50.332 4.18945 47.3452 4.18945 46.1474C4.18945 44.9496 5.58254 44.2663 6.27908 44.0743V17.8151M9.24857 17.8151H15.0776V1H1V17.8151H6.27908M9.24857 17.8151H6.27908M6.27908 14.9358V10.4441M6.27908 10.4441V4.45516H8.25874C9.46853 4.41677 11.8661 4.98495 11.7781 7.5648C11.6681 10.7896 8.14876 10.7896 6.27908 10.4441ZM19.0369 34.2847H45.8722M19.0369 34.2847C19.114 33.3959 19.2698 32.3199 19.5202 31.1751M19.0369 34.2847C18.6123 34.2402 18.0042 34.3434 17.3872 34.7412M45.8722 34.2847C45.8622 33.1565 45.7768 32.1223 45.6287 31.1751M45.8722 34.2847C46.7269 34.214 47.4416 34.3978 48.0352 34.7412M18.377 47.7598C14.7476 47.7598 14.4177 44.9957 15.0776 39.4674C15.4017 36.7521 16.4057 35.3739 17.3872 34.7412M18.377 47.7598C19.3672 47.7598 22.0653 47.7598 25.5257 47.7598M18.377 47.7598C19.5135 49.641 22.5343 52.2746 25.5257 47.7598M47.302 47.7598C49.025 47.7214 52.0971 46.0092 50.6014 39.4674C50.4649 38.0957 49.7638 35.7413 48.0352 34.7412M47.302 47.7598C45.1866 47.7598 42.4949 47.7598 39.6033 47.7598M47.302 47.7598C43.6946 52.551 40.6665 49.7561 39.6033 47.7598M25.5257 47.7598C29.6668 47.7598 34.8995 47.7598 39.6033 47.7598M19.5202 31.1751C20.4593 26.8805 22.7296 21.6158 27.1755 21.6158H36.8538C39.4866 21.6839 44.471 23.7679 45.6287 31.1751M19.5202 31.1751C18.0982 31.2107 15.6807 31.9737 17.3872 34.7412M45.6287 31.1751C47.0419 31.0571 49.5017 31.6052 48.0352 34.7412M23.3261 30.2537L28.6052 24.6103M27.6154 30.2537L32.7845 24.6103M27.1755 39.4674C27.5274 39.4674 34.8008 39.4674 38.3935 39.4674L36.5238 43.1529H29.4851L27.1755 39.4674Z" stroke="#EE5E00" stroke-width="1.5"/>
<path d="M23.5665 40.965C23.5665 41.9195 22.836 42.6336 22.0069 42.6336C21.1777 42.6336 20.4473 41.9195 20.4473 40.965C20.4473 40.0105 21.1777 39.2964 22.0069 39.2964C22.836 39.2964 23.5665 40.0105 23.5665 40.965Z" stroke="#EE5E00" stroke-width="1.5"/>
<path d="M44.6817 40.965C44.6817 41.9195 43.9512 42.6336 43.1221 42.6336C42.293 42.6336 41.5625 41.9195 41.5625 40.965C41.5625 40.0105 42.293 39.2964 43.1221 39.2964C43.9512 39.2964 44.6817 40.0105 44.6817 40.965Z" stroke="#EE5E00" stroke-width="1.5"/>
</svg>
