<svg width="56" height="46" viewBox="0 0 56 46" fill="none" xmlns="http://www.w3.org/2000/svg">
<path d="M12.1667 19.7037L10.0833 21.4167H3L28.8333 1L38.2041 8.91667M12.1667 19.7037L28.8333 6L45.5 19.7037M12.1667 19.7037V40.5833M12.1667 40.5833H7.16667V44.3333H50.5V40.5833H49.25M12.1667 40.5833H16.3333M26.75 40.5833V23.5H16.3333V40.5833M26.75 40.5833H16.3333M26.75 40.5833H36.125M45.5 33.0833V19.7037M45.5 19.7037L47.5833 21.4167H53L45.5 15.0805M36.125 23.5H30.9167V27.6667M36.125 23.5H41.3333V27.6667M36.125 23.5V27.6667M36.125 31.8333H41.3333V27.6667M36.125 31.8333H30.9167V27.6667M36.125 31.8333V27.6667M36.125 27.6667H30.9167M36.125 27.6667H41.3333M38.2041 8.91667V1.83333H45.5V15.0805M38.2041 8.91667L45.5 15.0805M36.125 40.5833C35.7778 39.3333 36 36.8333 39.6667 36.8333C40.7778 35.3056 43.5833 33.25 45.9167 37.25C46.8889 37.1111 48.9167 37.5833 49.25 40.5833M36.125 40.5833H49.25" stroke="#EE5E00" stroke-width="1.5"/>
</svg>
