<svg width="427" height="347" viewBox="0 0 427 347" fill="none" xmlns="http://www.w3.org/2000/svg">
<path d="M155.814 158.041L39 89.217V226.866L155.814 290.397V158.041Z" fill="url(#paint0_linear_13051_2317)" stroke="url(#paint1_linear_13051_2317)"/>
<path d="M387.999 226.702V89.217L271.906 157.959V295.444L387.999 226.702Z" fill="url(#paint2_linear_13051_2317)" stroke="url(#paint3_linear_13051_2317)"/>
<g style="mix-blend-mode:plus-lighter" filter="url(#filter0_f_13051_2317)">
<path d="M155.814 158.041L39 89.217V226.866L155.814 290.397V158.041Z" fill="url(#paint4_linear_13051_2317)"/>
<path d="M155.814 158.041L39 89.217V226.866L155.814 290.397V158.041Z" stroke="url(#paint5_linear_13051_2317)"/>
</g>
<g style="mix-blend-mode:plus-lighter" filter="url(#filter1_f_13051_2317)">
<path d="M387.999 226.702V89.217L271.906 157.959V295.444L387.999 226.702Z" fill="url(#paint6_linear_13051_2317)"/>
<path d="M387.999 226.702V89.217L271.906 157.959V295.444L387.999 226.702Z" stroke="url(#paint7_linear_13051_2317)"/>
</g>
<path d="M97.4062 183.355V51L213.86 119.825L330.313 51V183.355L213.86 252.18L97.4062 183.355Z" fill="url(#paint8_linear_13051_2317)" stroke="url(#paint9_linear_13051_2317)"/>
<g style="mix-blend-mode:plus-lighter" filter="url(#filter2_f_13051_2317)">
<path d="M97.4062 183.355V51L213.86 119.825L330.313 51V183.355L213.86 252.18L97.4062 183.355Z" fill="url(#paint10_linear_13051_2317)"/>
<path d="M97.4062 183.355V51L213.86 119.825L330.313 51V183.355L213.86 252.18L97.4062 183.355Z" stroke="url(#paint11_linear_13051_2317)"/>
</g>
<g style="mix-blend-mode:plus-lighter" filter="url(#filter3_f_13051_2317)">
<path d="M155.814 158.041L39 89.217V226.866L155.814 290.397V158.041Z" fill="url(#paint12_linear_13051_2317)"/>
<path d="M155.814 158.041L39 89.217V226.866L155.814 290.397V158.041Z" stroke="url(#paint13_linear_13051_2317)"/>
</g>
<g style="mix-blend-mode:plus-lighter" filter="url(#filter4_f_13051_2317)">
<path d="M387.999 226.702V89.217L271.906 157.959V295.444L387.999 226.702Z" fill="url(#paint14_linear_13051_2317)"/>
<path d="M387.999 226.702V89.217L271.906 157.959V295.444L387.999 226.702Z" stroke="url(#paint15_linear_13051_2317)"/>
</g>
<g style="mix-blend-mode:plus-lighter" filter="url(#filter5_f_13051_2317)">
<path d="M97.4062 183.355V51L213.86 119.825L330.313 51V183.355L213.86 252.18L97.4062 183.355Z" fill="url(#paint16_linear_13051_2317)"/>
<path d="M97.4062 183.355V51L213.86 119.825L330.313 51V183.355L213.86 252.18L97.4062 183.355Z" stroke="url(#paint17_linear_13051_2317)"/>
</g>
<defs>
<filter id="filter0_f_13051_2317" x="0.5" y="50.342" width="193.814" height="278.896" filterUnits="userSpaceOnUse" color-interpolation-filters="sRGB">
<feFlood flood-opacity="0" result="BackgroundImageFix"/>
<feBlend mode="normal" in="SourceGraphic" in2="BackgroundImageFix" result="shape"/>
<feGaussianBlur stdDeviation="19" result="effect1_foregroundBlur_13051_2317"/>
</filter>
<filter id="filter1_f_13051_2317" x="233.406" y="50.3398" width="193.093" height="283.982" filterUnits="userSpaceOnUse" color-interpolation-filters="sRGB">
<feFlood flood-opacity="0" result="BackgroundImageFix"/>
<feBlend mode="normal" in="SourceGraphic" in2="BackgroundImageFix" result="shape"/>
<feGaussianBlur stdDeviation="19" result="effect1_foregroundBlur_13051_2317"/>
</filter>
<filter id="filter2_f_13051_2317" x="2.80625" y="-43.9762" width="422.107" height="390.837" filterUnits="userSpaceOnUse" color-interpolation-filters="sRGB">
<feFlood flood-opacity="0" result="BackgroundImageFix"/>
<feBlend mode="normal" in="SourceGraphic" in2="BackgroundImageFix" result="shape"/>
<feGaussianBlur stdDeviation="47.05" result="effect1_foregroundBlur_13051_2317"/>
</filter>
<filter id="filter3_f_13051_2317" x="0.5" y="50.342" width="193.814" height="278.896" filterUnits="userSpaceOnUse" color-interpolation-filters="sRGB">
<feFlood flood-opacity="0" result="BackgroundImageFix"/>
<feBlend mode="normal" in="SourceGraphic" in2="BackgroundImageFix" result="shape"/>
<feGaussianBlur stdDeviation="19" result="effect1_foregroundBlur_13051_2317"/>
</filter>
<filter id="filter4_f_13051_2317" x="233.406" y="50.3398" width="193.093" height="283.982" filterUnits="userSpaceOnUse" color-interpolation-filters="sRGB">
<feFlood flood-opacity="0" result="BackgroundImageFix"/>
<feBlend mode="normal" in="SourceGraphic" in2="BackgroundImageFix" result="shape"/>
<feGaussianBlur stdDeviation="19" result="effect1_foregroundBlur_13051_2317"/>
</filter>
<filter id="filter5_f_13051_2317" x="2.80625" y="-43.9762" width="422.107" height="390.837" filterUnits="userSpaceOnUse" color-interpolation-filters="sRGB">
<feFlood flood-opacity="0" result="BackgroundImageFix"/>
<feBlend mode="normal" in="SourceGraphic" in2="BackgroundImageFix" result="shape"/>
<feGaussianBlur stdDeviation="47.05" result="effect1_foregroundBlur_13051_2317"/>
</filter>
<linearGradient id="paint0_linear_13051_2317" x1="-4.91442" y1="29.0074" x2="88.2507" y2="145.488" gradientUnits="userSpaceOnUse">
<stop stop-color="#3291F6"/>
<stop offset="1" stop-color="#1C1C1C" stop-opacity="0"/>
</linearGradient>
<linearGradient id="paint1_linear_13051_2317" x1="35.4657" y1="85.9722" x2="81.2474" y2="132.874" gradientUnits="userSpaceOnUse">
<stop stop-color="#3291F6"/>
<stop offset="1" stop-color="#1C1C1C" stop-opacity="0"/>
</linearGradient>
<linearGradient id="paint2_linear_13051_2317" x1="409.728" y1="37.5754" x2="354.695" y2="149.005" gradientUnits="userSpaceOnUse">
<stop stop-color="#444CE7"/>
<stop offset="1" stop-color="#1C1C1C" stop-opacity="0"/>
</linearGradient>
<linearGradient id="paint3_linear_13051_2317" x1="385.085" y1="92.0077" x2="358.233" y2="146.396" gradientUnits="userSpaceOnUse">
<stop stop-color="#3249FF"/>
<stop offset="1" stop-color="#1C1C1C" stop-opacity="0"/>
</linearGradient>
<linearGradient id="paint4_linear_13051_2317" x1="-4.91442" y1="29.0074" x2="88.2507" y2="145.488" gradientUnits="userSpaceOnUse">
<stop stop-color="#3291F6"/>
<stop offset="1" stop-color="#1C1C1C" stop-opacity="0"/>
</linearGradient>
<linearGradient id="paint5_linear_13051_2317" x1="35.4657" y1="85.9722" x2="81.2474" y2="132.874" gradientUnits="userSpaceOnUse">
<stop stop-color="#3291F6"/>
<stop offset="1" stop-color="#1C1C1C" stop-opacity="0"/>
</linearGradient>
<linearGradient id="paint6_linear_13051_2317" x1="409.728" y1="37.5754" x2="354.695" y2="149.005" gradientUnits="userSpaceOnUse">
<stop stop-color="#444CE7"/>
<stop offset="1" stop-color="#1C1C1C" stop-opacity="0"/>
</linearGradient>
<linearGradient id="paint7_linear_13051_2317" x1="385.085" y1="92.0077" x2="358.233" y2="146.396" gradientUnits="userSpaceOnUse">
<stop stop-color="#3249FF"/>
<stop offset="1" stop-color="#1C1C1C" stop-opacity="0"/>
</linearGradient>
<linearGradient id="paint8_linear_13051_2317" x1="337.956" y1="29.3678" x2="320.312" y2="135.139" gradientUnits="userSpaceOnUse">
<stop stop-color="#32D9F6"/>
<stop offset="1" stop-color="#1C1C1C" stop-opacity="0"/>
</linearGradient>
<linearGradient id="paint9_linear_13051_2317" x1="324.467" y1="53.7223" x2="307.733" y2="181.081" gradientUnits="userSpaceOnUse">
<stop stop-color="#32D9F6"/>
<stop offset="1" stop-color="#1C1C1C" stop-opacity="0"/>
</linearGradient>
<linearGradient id="paint10_linear_13051_2317" x1="337.956" y1="29.3678" x2="320.312" y2="135.139" gradientUnits="userSpaceOnUse">
<stop stop-color="#32D9F6"/>
<stop offset="1" stop-color="#1C1C1C" stop-opacity="0"/>
</linearGradient>
<linearGradient id="paint11_linear_13051_2317" x1="324.467" y1="53.7223" x2="307.733" y2="181.081" gradientUnits="userSpaceOnUse">
<stop stop-color="#32D9F6"/>
<stop offset="1" stop-color="#1C1C1C" stop-opacity="0"/>
</linearGradient>
<linearGradient id="paint12_linear_13051_2317" x1="-4.91442" y1="29.0074" x2="88.2507" y2="145.488" gradientUnits="userSpaceOnUse">
<stop stop-color="#3291F6"/>
<stop offset="1" stop-color="#1C1C1C" stop-opacity="0"/>
</linearGradient>
<linearGradient id="paint13_linear_13051_2317" x1="35.4657" y1="85.9722" x2="81.2474" y2="132.874" gradientUnits="userSpaceOnUse">
<stop stop-color="#3291F6"/>
<stop offset="1" stop-color="#1C1C1C" stop-opacity="0"/>
</linearGradient>
<linearGradient id="paint14_linear_13051_2317" x1="409.728" y1="37.5754" x2="354.695" y2="149.005" gradientUnits="userSpaceOnUse">
<stop stop-color="#444CE7"/>
<stop offset="1" stop-color="#1C1C1C" stop-opacity="0"/>
</linearGradient>
<linearGradient id="paint15_linear_13051_2317" x1="385.085" y1="92.0077" x2="358.233" y2="146.396" gradientUnits="userSpaceOnUse">
<stop stop-color="#3249FF"/>
<stop offset="1" stop-color="#1C1C1C" stop-opacity="0"/>
</linearGradient>
<linearGradient id="paint16_linear_13051_2317" x1="337.956" y1="29.3678" x2="320.312" y2="135.139" gradientUnits="userSpaceOnUse">
<stop stop-color="#32D9F6"/>
<stop offset="1" stop-color="#1C1C1C" stop-opacity="0"/>
</linearGradient>
<linearGradient id="paint17_linear_13051_2317" x1="324.467" y1="53.7223" x2="307.733" y2="181.081" gradientUnits="userSpaceOnUse">
<stop stop-color="#32D9F6"/>
<stop offset="1" stop-color="#1C1C1C" stop-opacity="0"/>
</linearGradient>
</defs>
</svg>
